<svg width="89" height="96" viewBox="0 0 89 96" fill="none" xmlns="http://www.w3.org/2000/svg">
<path d="M88.2443 16.7C87.2443 11.8 84.8443 7.5 81.4443 3.8C80.2443 2.5 78.7443 1.3 77.4443 0C78.5443 2 79.7443 3.8 80.7443 5.8C82.7443 9.8 83.9443 14.1 83.6443 18.6C83.5443 20.7 82.7443 22.5 80.9443 23.7C79.4443 24.8 77.7443 25.3 75.9443 25.5C73.7443 25.8 71.6443 25.9 69.4443 26.2C61.4443 27.4 56.3443 32 53.4443 39.4C53.2443 39.8 53.1443 40.2 53.0443 40.7C50.4443 38.9 47.6443 38 44.5443 38C41.4443 38 38.6443 39 36.0443 40.7C35.9443 40.3 35.7443 40 35.6443 39.6C34.0443 35.3 31.4443 31.7 27.6443 29.1C24.1443 26.7 20.1443 26 16.0443 25.7C14.3443 25.6 12.5443 25.4 10.8443 25C8.14434 24.3 6.14434 22.7 5.54434 19.9C5.24434 18.8 5.14434 17.5 5.24434 16.4C5.34434 12.6 6.44434 9 8.24434 5.6C9.24434 3.7 10.4443 1.9 11.5443 0.0999999C11.5443 0.0999999 11.5443 0.0999998 11.4443 0.2C5.34434 4.8 1.44434 10.6 0.244339 18C-0.155661 20.4 -0.155661 22.8 0.944339 25.1C2.24434 27.8 4.44434 29.5 7.14434 30.5C9.54434 31.3 11.9443 32 14.4443 32.5C21.0443 33.9 25.4443 37.7 27.7443 44.1C27.9443 44.6 28.0443 45.1 28.1443 45.6C21.0443 40.6 13.7443 36 4.74434 35.7C4.74434 35.7 4.74434 35.8 4.84434 35.8C5.14434 36 5.44434 36.2 5.74434 36.4C9.44434 39 12.7443 42.1 14.8443 46.2C16.4443 49.2 18.6443 51.4 21.7443 52.7C23.2443 53.3 24.8443 53.9 26.4443 54.5C26.4443 54.7 26.3443 54.9 26.3443 55.1C25.5443 59.1 25.4443 63 26.2443 67C27.1443 71.5 29.1443 75.6 31.6443 79.4C35.2443 84.9 40.0443 90.2 44.5443 95.1C44.3443 94.9 44.6443 95.2 44.5443 95.1C46.8443 92.4 49.2443 89.8 51.5443 87.1C55.0443 82.9 58.3443 78.4 60.5443 73.3C62.6443 68.6 63.5443 63.8 62.9443 58.7C62.8443 57.3 62.5443 55.9 62.3443 54.6C63.6443 54.2 64.9443 53.8 66.1443 53.3C69.5443 52 72.2443 50 73.8443 46.7C75.6443 43.2 78.1443 40.4 81.2443 38C82.1443 37.3 83.1443 36.6 84.1443 35.9C80.8443 36.2 77.7443 36.8 74.7443 37.8C70.5443 39.3 66.7443 41.7 63.1443 44.2C62.3443 44.8 61.5443 45.3 60.6443 45.9C60.6443 45.7 60.6443 45.6 60.6443 45.5C60.8443 44.7 61.0443 43.9 61.4443 43.1C63.8443 37.5 68.0443 34 74.1443 32.7C76.7443 32.2 79.4443 31.7 81.9443 30.5C84.9443 29.1 87.3443 27.1 88.3443 23.7C88.8443 21.4 88.7443 19 88.2443 16.7ZM44.3443 40.1C44.4443 40.1 44.4443 40.1 44.5443 40.1C46.3443 51.4 48.0443 62.8 49.8443 74.2C48.1443 74.8 46.4443 75.5 44.7443 76.1C44.5443 76.2 44.2443 76.1 44.0443 76.1C42.4443 75.5 40.8443 74.9 39.1443 74.2C40.8443 62.8 42.5443 51.5 44.3443 40.1ZM36.8443 65.8C36.2443 64.8 35.8443 63.9 35.3443 63.1C34.8443 62.2 34.3443 61.3 33.7443 60.4C33.6443 60.2 33.2443 60.1 33.0443 60.1C31.5443 60.4 30.5443 59.9 29.8443 58.3C30.6443 58.2 31.3443 58.1 32.0443 58C32.2443 58 32.5443 58.2 32.7443 58.3C33.3443 58.8 33.8443 59.4 34.4443 59.8C34.0443 58.5 33.9443 57.2 32.7443 56.3C31.6443 55.4 30.8443 54.3 29.8443 53.3C29.1443 52.6 28.7443 51.7 28.6443 50.5C28.8443 50.6 29.0443 50.6 29.2443 50.7C31.0443 51.6 32.8443 52.4 34.6443 53.3C34.8443 53.4 35.0443 53.6 35.0443 53.8C35.6443 57.6 36.2443 61.4 36.7443 65.2C36.8443 65.5 36.8443 65.6 36.8443 65.8ZM38.9443 74.9C38.9443 74.8 39.0443 74.6 39.0443 74.3C40.6443 76.5 42.2443 78.5 43.8443 80.5L43.7443 80.6C42.5443 79.7 41.3443 78.9 40.2443 78C38.4443 76.9 38.5443 76.9 38.9443 74.9ZM44.4443 87.5C43.1443 85.6 41.8443 83.7 40.6443 81.8C40.6443 81.7 40.6443 81.7 40.7443 81.6C41.7443 82 42.8443 82.4 43.8443 82.7C44.2443 82.8 44.7443 82.8 45.1443 82.7C46.1443 82.4 47.2443 82 48.3443 81.7C46.9443 83.7 45.7443 85.5 44.4443 87.5ZM50.0443 77.1C48.4443 78.3 46.8443 79.5 45.2443 80.6C45.2443 80.6 45.1443 80.6 44.9443 80.6C46.5443 78.5 48.1443 76.5 49.7443 74.3C49.9443 75.2 50.0443 75.9 50.1443 76.6C50.2443 76.8 50.1443 77 50.0443 77.1ZM59.1443 53C58.0443 54.2 56.9443 55.4 55.8443 56.6C55.3443 57.1 54.8443 57.7 54.7443 58.4C54.6443 58.9 54.4443 59.4 54.3443 60C55.5443 58.4 56.9443 57.5 58.9443 58.4C58.3443 59.8 57.2443 60.4 55.8443 60.1C55.3443 60 55.2443 60.2 55.0443 60.5C54.1443 62.1 53.2443 63.6 52.4443 65.2C52.3443 65.4 52.2443 65.5 52.0443 65.8C52.4443 63.3 52.7443 61 53.1443 58.7C53.3443 57.2 53.6443 55.7 53.8443 54.2C53.9443 53.8 54.0443 53.5 54.4443 53.3C55.9443 52.6 57.3443 51.9 58.8443 51.2C59.2443 51 59.6443 50.8 60.1443 50.6C59.8443 51.5 59.7443 52.3 59.1443 53Z" fill="#B1B9D8"/>
</svg>
