<svg width="20" height="20" viewBox="0 0 20 20" fill="none" xmlns="http://www.w3.org/2000/svg">
<path fill-rule="evenodd" clip-rule="evenodd" d="M13.5799 4.09741C14.1099 4.29479 14.5873 4.60729 14.9798 5.01232C15.9622 5.99719 16.2822 7.1571 15.7222 7.71716C15.5297 7.90209 15.2698 8.00207 14.9998 7.99206C14.8699 7.98876 14.7411 7.97363 14.6148 7.94506C14.5491 7.93029 14.484 7.91186 14.4198 7.88964C13.8899 7.69457 13.4099 7.37963 13.0199 6.9746C12.0351 5.99218 11.7175 4.82983 12.2775 4.26989C12.57 3.97741 13.0324 3.91735 13.5799 4.09741ZM14.6298 7.25463C14.9123 7.3496 15.1498 7.3446 15.2498 7.24462C15.4573 7.0371 15.2698 6.24975 14.5048 5.48474C14.1874 5.15234 13.7974 4.89477 13.3649 4.72985C13.2957 4.70629 13.2246 4.68884 13.1525 4.67785C13.1022 4.67028 13.0513 4.66589 12.9999 4.66479C12.942 4.66015 12.8852 4.66918 12.8328 4.69067C12.8015 4.70349 12.772 4.72082 12.7449 4.7423C12.5399 4.94982 12.725 5.7373 13.4899 6.50219C13.8074 6.83471 14.1973 7.09216 14.6298 7.25463Z" fill="#B1B9D8"/>
<path fill-rule="evenodd" clip-rule="evenodd" d="M16.4672 3.5249C17.7821 4.79235 18.8371 6.30224 19.5695 7.9746C20.1845 9.51196 20.1394 10.7419 19.442 11.4393C19.377 11.5043 14.3673 16.444 9.60024 16.444C8.5978 16.454 7.60781 16.204 6.72792 15.719L5.97548 16.474C5.91018 16.5393 5.87392 16.6248 5.8694 16.7125C5.86599 16.7793 5.88088 16.8474 5.91542 16.9089C6.06545 17.1864 6.15041 17.4913 6.16542 17.8064C6.21547 18.9563 5.32558 19.9313 4.17568 19.9838C3.02565 20.0362 2.0508 19.1438 1.99831 17.9939C1.68081 17.9813 1.37087 17.8938 1.09084 17.7439C0.0783883 17.194 -0.296612 15.9265 0.253437 14.9141C0.803364 13.9016 2.07082 13.5267 3.08315 14.0767C3.22573 14.1566 3.40322 14.1342 3.52065 14.0166L4.27065 13.2667C1.3008 7.90954 8.47524 0.630122 8.55532 0.550166C9.93764 -0.832281 13.4124 0.475092 16.4672 3.5249ZM5.33059 17.2264C5.10805 16.8264 5.178 16.324 5.50307 16.0015L6.15297 15.3566C5.56557 14.9415 5.053 14.4316 4.63552 13.8467L3.99062 14.4916C3.66811 14.8165 3.16567 14.8866 2.76577 14.6641C2.56325 14.5566 2.33828 14.4966 2.1083 14.4966C1.32326 14.4866 0.683369 15.1166 0.675923 15.899C0.668354 16.6814 1.2958 17.3238 2.08083 17.3314C2.17324 16.9914 2.35073 16.6814 2.59328 16.4289C2.72072 16.2965 2.93068 16.2939 3.06325 16.4215C3.1957 16.5489 3.2007 16.7589 3.07314 16.8915C2.86074 17.1114 2.72329 17.3889 2.67824 17.6914V17.6938C2.6332 17.9989 2.68825 18.3138 2.83571 18.5839C3.21071 19.2738 4.07314 19.5288 4.76052 19.1538C5.45058 18.7788 5.70546 17.9164 5.33059 17.2264ZM6.67592 13.7405C6.71877 13.7234 6.75881 13.697 6.79287 13.6616C6.91787 13.5342 6.91787 13.3292 6.79287 13.1992C5.88796 12.2967 5.46047 11.0194 5.64553 9.75439C5.65651 9.6394 5.60793 9.53137 5.5248 9.46215C5.47609 9.42163 5.41555 9.3944 5.34804 9.38696C5.16555 9.3695 5.00051 9.50195 4.98061 9.68444C4.95058 9.90441 4.933 10.1219 4.933 10.3419C4.933 11.5818 5.428 12.7842 6.3229 13.6716C6.42006 13.7651 6.55873 13.7873 6.67592 13.7405ZM12.0026 7.99206C14.9773 10.9644 18.0071 11.9318 18.9721 10.9694C19.4595 10.4794 19.452 9.47949 18.9495 8.2246C18.2495 6.63464 17.2472 5.19982 15.9948 3.99487C13.7625 1.76 11.4926 0.660151 10.0952 0.660151V0.662592C9.70522 0.635127 9.32021 0.765132 9.02529 1.02258C8.5353 1.51 8.54531 2.51 9.04775 3.76489C9.7477 5.35473 10.7501 6.78967 12.0026 7.99206Z" fill="#B1B9D8"/>
</svg>
