<svg width="84" height="97" viewBox="0 0 84 97" fill="none" xmlns="http://www.w3.org/2000/svg">
<path d="M82 31.7C82 32.3 82.1 32.6 82.1 33C82.3 34.8 81.6 36.2 79.9 37.1C78.7 37.7 77.5 38.4 76.2 39.1C75.9 39.3 75.4 39.3 75 39.5C75 39.2 75 39.1 75 39C75.8 37.3 76.5 35.5 77.5 33.9C78.8 31.8 80.4 29.9 81.8 27.9C82.6 26.7 83 25.4 82.9 23.9C82.8 21.8 82.6 19.7 82.4 17.6C82.1 15 81.4 12.6 79.9 10.4C79.7 10.1 79.5 9.89998 79.3 9.69998C80.3 13.6 80.8 17.4 80.5 21.3C80.3 23.7 79.7 26 78.3 27.9C78.1 28.2 77.7 28.3 77.4 28.5C77.2 28.1 76.9 27.8 76.7 27.4C76.6 27.2 76.7 27 76.7 26.8C76.8 24 76.5 21.3 75.8 18.6C74.8 14.9 73.8 11.1 71.1 8.19998C69.1 5.99998 67 3.99998 65 1.99998C64.3 1.29998 63.5 0.799976 62.7 0.199976C63.2 0.899976 63.8 1.49998 64.3 2.19998C68.6 6.99998 70.9 12.8 72.8 18.7C73.2 19.9 73.2 21.2 72.9 22.5C71.6 22.1 70.7 21.4 69.9 20.5C68.7 19 67.6 17.5 66.5 16C65.4 14.5 64 13.4 62.2 12.4C62.6 13 62.9 13.5 63.2 14C64.7 16.7 66.3 19.5 67.8 22.2C68.6 23.6 69.6 24.7 71.1 25.3C72.4 25.8 73 26.7 73 28.1C73 29.5 73.3 31.1 72.9 32.4C72.2 34.9 71.2 37.4 70.3 39.8C69.8 41.2 68.9 42.3 67.6 43.1C65.8 44.1 64 45 62.2 46C62.1 46.1 61.9 46.1 61.6 46.2C62.9 43.8 63.7 41.3 64.1 38.7C64.2 38.4 64.4 38 64.5 37.7C65.3 36.2 66.2 34.7 67 33.2C67.2 32.8 67.3 32.4 67.4 31.9C67.4 31.9 67.3 31.9 67.3 31.8C66.4 33 65.4 34.2 64.5 35.4C65.1 31.1 64.9 27.1 62.6 23.1C62.7 24.3 62.9 25.2 62.9 26.2C63 29.4 62.9 32.6 62 35.7C61.4 37.7 60 38.6 58.2 39.1C57.6 39.3 57.3 39.1 57.5 38.4C57.5 38.2 57.6 38 57.6 37.8C58.9 34.1 58.6 30.4 57.7 26.7C57.1 24.4 56.1 22.4 54.8 20.4C55.2 22.7 55.6 25 55.9 27.4C56.2 29.9 56.2 32.5 55.3 34.9C54.6 36.9 53.9 39 53.3 41C52.5 43.4 50.8 45.1 48.4 46.5C48.3 43.9 48.2 41.5 46 39.8C46 40.4 46 40.9 46 41.4C45.9 44.6 45.8 47.7 44.6 50.7C43.9 52.4 44 52.4 42.1 52.4C41.3 52.4 40.2 52.6 39.7 52.2C39.1 51.8 39 50.7 38.7 50C37.6 47 37.6 43.9 37.5 40.7C37.5 40.4 37.5 40.1 37.5 39.8C35.5 41.6 35.2 43.9 35.2 46.2C35 46.2 34.9 46.2 34.8 46.2C34.6 46.1 34.4 46.1 34.3 45.9C32.3 44.6 30.8 42.8 30.2 40.4C29.8 38.9 29.2 37.5 28.7 36C28.3 34.6 27.7 33.2 27.5 31.8C27.2 29 27.5 26.3 28 23.6C28.2 22.6 28.4 21.6 28.6 20.7C28.5 20.7 28.4 20.6 28.3 20.6C27.5 22.4 26.6 24.2 26 26.1C24.8 30.1 24.6 34.2 26 38.3C26.3 39.2 26.1 39.4 25.2 39.1C23.4 38.6 22.1 37.6 21.6 35.7C20.7 32.2 20.6 28.6 20.8 25.1C20.8 24.6 20.9 24.2 20.9 23.7C18.6 27.4 18.5 31.4 19.2 35.7C18.1 34.3 17.2 33 16.3 31.8C16.3 32.2 16.3 32.6 16.5 32.9C17.3 34.4 18.1 35.9 18.9 37.4C19.2 37.9 19.5 38.5 19.6 39.1C20 41.3 20.7 43.4 21.6 45.4C21.7 45.6 21.8 45.9 21.9 46.2C21.8 46.3 21.8 46.3 21.7 46.4C19.9 45.4 18 44.4 16.2 43.3C14.8 42.5 13.8 41.2 13.3 39.7C12.7 38 12.3 36.3 11.6 34.7C10.5 32.5 10.6 30.2 10.8 27.9C10.9 26.7 11.4 25.9 12.5 25.4C14.1 24.7 15.3 23.6 16.1 22C17.4 19.5 18.7 17.1 20.1 14.7C20.5 14 20.9 13.4 21.4 12.6C19.3 13.7 17.9 15.1 16.7 16.7C15.7 18.1 14.6 19.5 13.5 20.8C12.8 21.5 11.9 22 11.1 22.6C11 22.5 10.9 22.5 10.8 22.4C10.8 21.7 10.7 20.9 10.8 20.2C11.2 18.4 11.8 16.7 12.4 14.9C14.3 9.49997 17 4.49998 21.1 0.399976C21.2 0.299976 21.2 0.299976 21.3 0.0999756C18.2 2.29998 15.7 4.69998 13.4 7.39998C12.4 8.59998 11.3 9.89998 10.7 11.3C8.39999 16.2 7.09999 21.4 7.19999 26.8C7.19999 27.1 7.29999 27.4 7.09999 27.6C6.99999 27.9 6.69999 28.2 6.49999 28.3C6.29999 28.4 5.79999 28.1 5.69999 27.9C4.99999 26.6 4.19999 25.4 3.89999 24C2.99999 20.5 3.19999 17 3.79999 13.5C3.99999 12.2 4.39999 10.8 4.59999 9.49998C4.49999 9.49998 4.39999 9.39997 4.39999 9.39997C3.79999 10.6 2.99999 11.7 2.59999 12.9C1.29999 16.4 1.09999 20.1 0.899993 23.8C0.799993 25.2 1.19999 26.6 1.99999 27.8C3.09999 29.4 4.09999 31 5.29999 32.4C6.79999 34.2 7.89999 36.2 8.59999 38.4C8.69999 38.7 8.69999 39 8.69999 39.4C8.19999 39.3 7.89999 39.3 7.69999 39.1C6.19999 38.3 4.59999 37.4 3.09999 36.6C2.39999 36 1.99999 35 1.99999 33.9C1.99999 33.3 1.99999 32.6 1.99999 32C1.49999 32.5 1.19999 33.1 0.899993 33.7C0.0999929 35.4 0.299994 36.3 1.59999 37.6C3.09999 38.9 4.59999 40.2 6.19999 41.3C8.69999 43 11.4 44.4 14 46.1C17.3 48.3 20.8 50.1 24.5 51.7C25.9 52.3 27.2 52.8 28.5 53.5C29.7 54.1 30.8 55.5 30.9 56.3C27.1 52.4 22 51.4 16.6 50.6C16.8 51.1 16.9 51.5 17 51.9C17.7 53.2 18.4 54.4 19 55.7C20.2 58.1 22 59.7 24.5 60.6C25.1 60.8 25.8 60.9 26.4 60.8C28 60.5 29.5 60.4 31 61.2C31.5 61.5 31.8 61.8 31.6 62.4C31.2 63.8 31.3 65.1 32 66.4C32.5 67.5 33 68.6 33.5 69.8C33.7 70.4 33.9 71.2 33.8 71.8C33.7 72.8 33.5 73.8 33.3 74.8C32.4 78.3 31.4 81.9 30.5 85.4C30.4 85.9 30.4 86.2 30.9 86.5C32.8 87.8 34.6 89.2 36.3 90.7C38.3 92.4 40.1 94.4 42 96.1C42.3 95.9 42.6 95.6 42.9 95.3C45.9 92.2 49 89.4 52.6 87C53.9 86.1 53.9 86.1 53.6 84.6C52.7 81 51.7 77.4 50.8 73.8C50.4 72.1 50.3 70.5 51.2 68.9C51.6 68.2 51.9 67.4 52.2 66.6C52.8 65.3 53 63.9 52.6 62.4C52.5 61.9 52.6 61.6 53.1 61.3C54.4 60.6 55.7 60.5 57.2 60.7C57.8 60.8 58.5 61.1 59 60.9C60.7 60.3 62.6 59.7 63.6 58.2C65.1 56 66.3 53.6 67.6 51.3C67.6 51.2 67.6 51.1 67.7 50.8C62.3 51.5 57.3 52.6 53.3 56.5C54.1 54.8 55.1 53.8 57.2 53C64.4 50.3 70.9 46 77.4 42C79.3 40.8 81 39.2 82.7 37.7C83.2 37.3 83.7 36.6 83.7 36C83.8 34.3 82.9 33.1 82 31.7ZM34.6 53.3C33.5 51.2 31.8 49.8 29.6 49.1C27.9 48.6 26.8 47.5 26.1 46C25.3 44.4 24.4 42.9 23.5 41.4C23.6 41.3 23.6 41.2 23.7 41.2C25.6 42.7 27.6 44.2 29.4 45.8C31.1 47.3 32.7 48.9 34.2 50.6C35.2 51.7 35.5 53.1 35.5 54.7C35.1 54.1 34.8 53.7 34.6 53.3ZM59.9 42.6C59.1 44.1 58.2 45.6 57.4 47.1C57 47.9 56.4 48.5 55.5 48.7C55.2 48.8 54.9 48.9 54.6 49C52.2 49.8 50.4 51.3 49.2 53.6C49 53.9 48.8 54.2 48.6 54.7C48.4 52.8 49.1 51.2 50.3 50.1C53.6 47 56.6 43.6 60.8 41.3C60.4 41.8 60.2 42.2 59.9 42.6Z" fill="#B1B9D8"/>
</svg>
