<svg width="20" height="19" viewBox="0 0 20 19" fill="none" xmlns="http://www.w3.org/2000/svg">
<path d="M11.2207 0.0304771C11.1181 0.0761034 11.042 0.163554 11.0078 0.270015L9.66943 4.64254C9.93558 4.5665 10.2169 4.53228 10.4983 4.53228C11.5211 4.53228 12.4755 5.00375 13.0876 5.787H13.1294C14.2663 5.787 15.3233 6.38395 15.9202 7.3345C16.502 7.5132 17.0153 7.8478 17.4031 8.28885L19.9316 4.50947C19.9924 4.41441 20.0114 4.30034 19.981 4.19388C19.9544 4.08742 19.8783 3.99997 19.7795 3.95435L11.5363 0.0380814C11.4375 -0.0113471 11.3196 -0.0113471 11.2207 0.0304771Z" fill="#B1B9D8"/>
<path d="M17.4601 10.5816C17.4639 10.5321 17.4639 10.4827 17.4639 10.4333C17.4639 9.22799 16.597 8.21281 15.4146 7.99228C15.0001 7.12158 14.1104 6.54744 13.1294 6.54744C12.9925 6.54744 12.8557 6.56265 12.7112 6.58927C12.2701 5.79081 11.4336 5.29272 10.4983 5.29272C9.85574 5.29272 9.25119 5.53226 8.79492 5.94289C8.89378 6.08358 8.96602 6.25087 8.99264 6.42958C9.03066 6.68052 8.98503 6.92766 8.86717 7.14439L9.31582 7.07975C9.36906 7.07215 9.42609 7.06834 9.47932 7.06834C10.042 7.06834 10.5249 7.49039 10.6048 8.04931C10.6428 8.30026 10.5934 8.555 10.4679 8.77553C10.8785 8.95423 11.1675 9.36867 11.1561 9.84775C11.1409 10.4219 10.985 10.8972 10.6922 11.2698C10.6542 11.3268 10.6086 11.3838 10.5553 11.4371L10.331 11.6576H10.2816C9.92798 11.9085 9.48692 12.0378 8.98884 12.0378H8.928C8.60101 12.0264 8.31965 11.9009 8.11053 11.6804C8.01927 11.5816 7.94323 11.4713 7.8938 11.3496C7.72651 11.4447 7.53259 11.4979 7.32727 11.4979C7.27024 11.4979 7.21321 11.4941 7.15618 11.4865C6.8596 11.4447 6.60105 11.2888 6.41855 11.0492C6.23224 10.8059 6.1562 10.5017 6.19802 10.1938L6.26266 9.74509C6.09916 9.83634 5.90905 9.88577 5.71134 9.88577C5.65431 9.88577 5.58207 9.88197 5.51363 9.87056C4.93569 9.78311 4.50224 9.21278 4.58209 8.59683L4.63152 8.23942C3.93952 8.68048 3.47945 9.45612 3.47945 10.3306C3.47945 10.4561 3.49086 10.5816 3.50987 10.7109C2.48328 11.034 1.74945 11.9884 1.74945 13.0796C1.74945 13.5511 1.88633 14.0036 2.14488 14.4028C1.88633 14.802 1.74945 15.2545 1.74945 15.7259C1.74945 17.0225 2.75323 18.0871 4.03457 18.2088C3.9129 17.9807 3.84066 17.7221 3.84066 17.4445V14.4826C3.84066 13.6081 4.55167 12.8933 5.42998 12.8933H8.87477C9.60479 12.8933 10.312 13.2013 10.8101 13.7374C10.8975 13.8287 11.023 13.8819 11.1523 13.8819H12.5211C13.1218 13.8819 13.6123 14.3724 13.6123 14.9731V16.9541C13.6123 17.5548 13.1218 18.0453 12.5211 18.0453H11.1523C11.023 18.0453 10.8975 18.0985 10.8101 18.1936C10.8025 18.2012 10.7949 18.2126 10.7835 18.2202H17.4715C18.8669 18.2202 20 17.1023 20 15.7259C20 15.2545 19.8669 14.802 19.6084 14.4028C19.8669 14.0036 20 13.5511 20 13.0796C20 11.6994 18.8441 10.5664 17.4601 10.5816Z" fill="#B1B9D8"/>
<path d="M1.78367 5.71856C1.8369 5.72997 1.89013 5.73377 1.94336 5.73377C2.15248 5.73377 2.3616 5.65012 2.51749 5.49043L3.29695 4.71478L3.96993 5.38777L3.72659 7.07975C3.69618 7.28507 3.84066 7.47898 4.04978 7.5094C4.06879 7.5132 4.084 7.5132 4.10301 7.5132C4.28932 7.5132 4.45281 7.37632 4.47943 7.18621L4.63912 6.05696L5.58207 6.99991L5.33873 8.69188C5.31211 8.901 5.45659 9.09111 5.66191 9.12153C5.68092 9.12533 5.69993 9.12533 5.71514 9.12533C5.90145 9.12533 6.06494 8.98846 6.09156 8.79835L6.25125 7.66909L7.1942 8.61204L6.95466 10.304C6.92424 10.5131 7.06873 10.707 7.27404 10.7337C7.29305 10.7375 7.31207 10.7375 7.33108 10.7375C7.51738 10.7375 7.67708 10.6006 7.70749 10.4143L7.86719 9.28503L9.0953 10.5131C9.04967 10.5169 9.00024 10.5169 8.95081 10.5169C8.73789 10.5017 8.56679 10.6766 8.56299 10.8858C8.55538 11.0949 8.72268 11.2698 8.9318 11.2774H8.99264C9.39947 11.2774 9.72266 11.1633 9.9584 10.9466C9.97741 10.9352 9.99642 10.9162 10.0116 10.901C10.0154 10.901 10.0154 10.901 10.0192 10.8972C10.042 10.8743 10.0611 10.8515 10.0763 10.8249C10.2778 10.5816 10.388 10.247 10.3994 9.83254C10.4033 9.61962 10.2398 9.44472 10.0268 9.44092C9.81771 9.42191 9.64281 9.60061 9.63901 9.80973C9.63901 9.86676 9.63521 9.91999 9.6276 9.96562L8.4071 8.74511L9.53255 8.58542C9.74167 8.555 9.88615 8.36109 9.85574 8.15577C9.82532 7.94665 9.63521 7.80217 9.42609 7.83259L7.73411 8.07213L6.79116 7.12918L7.92042 6.96949C8.12954 6.94287 8.27402 6.74896 8.2436 6.53984C8.21319 6.33452 8.02308 6.19004 7.81396 6.21665L6.12198 6.45999L5.17903 5.51705L6.30829 5.35736C6.51741 5.32694 6.66189 5.13683 6.63147 4.92771C6.60105 4.71859 6.40714 4.57791 6.20182 4.60452L4.50985 4.84786L3.83686 4.17487L4.61251 3.39542C4.81022 3.19771 4.89387 2.92395 4.84064 2.6616C4.78741 2.41826 4.62011 2.21674 4.38818 2.12929L1.28558 0.927796C0.996616 0.817532 0.662022 0.893576 0.433891 1.12171L0.243781 1.31182C0.0156488 1.54375 -0.0603952 1.87454 0.0498686 2.16351L1.25136 5.2661C1.33881 5.49804 1.54033 5.66533 1.78367 5.71856Z" fill="#B1B9D8"/>
<path d="M10.255 17.6727C10.4869 17.4255 10.8139 17.2848 11.1523 17.2848H12.5211C12.7036 17.2848 12.8519 17.1366 12.8519 16.9541V14.9731C12.8519 14.7906 12.7036 14.6423 12.5211 14.6423H11.1523C10.8139 14.6423 10.4869 14.5016 10.255 14.2545C9.89756 13.8705 9.39567 13.6538 8.87477 13.6538H5.42998C4.97371 13.6538 4.6011 14.0264 4.6011 14.4826V17.4445C4.6011 17.9008 4.97371 18.2734 5.42998 18.2734H8.87477C9.39567 18.2734 9.89756 18.0567 10.255 17.6727Z" fill="#B1B9D8"/>
</svg>
