<svg width="78" height="78" viewBox="0 0 78 78" fill="none" xmlns="http://www.w3.org/2000/svg">
	<path d="M18.0076 28.4244L15.2879 9.53572L15.2917 9.53471L19.9192 28.1027C19.9499 28.1268 37.7856 35.1486 37.7856 35.1486L37.78 35.1582L19.3886 30.0165L9.95989 37.2825L4.54602 41.5882L4.71944 41.4204L4.14251 41.8783C4.14352 41.8821 4.14831 41.8848 4.14831 41.8848C4.33099 42.0988 4.59237 42.2592 4.85819 42.3457L21.7442 48.1051C22.6351 48.3962 23.5925 48.1963 24.2862 47.5858L37.61 35.9437C37.8239 35.761 38.0021 35.5354 38.1167 35.2539C38.2615 34.9037 38.2927 34.5071 38.2095 34.121L34.726 16.5323C34.5842 15.7615 34.0452 15.1537 33.3285 14.909L16.1595 9.0593C15.8451 8.95752 15.521 8.9554 15.195 9.067C14.9855 9.11505 14.775 9.21998 14.5941 9.38979L1.0601 21.2135C0.409339 21.7883 0.118236 22.6791 0.285784 23.5158L3.75913 41.1269C3.8229 41.4252 3.96158 41.6712 4.14325 41.8813L18.0076 28.4244ZM21.872 40.4469C20.5541 40.7353 19.4236 40.3346 19.3535 39.5446C19.2806 38.7594 20.2893 37.8905 21.6082 37.6059C22.931 37.3202 24.0529 37.7192 24.1268 38.5082C24.1987 39.2896 23.1938 40.1574 21.872 40.4469ZM28.9796 16.3968C29.6664 16.047 30.9282 16.6512 31.7956 17.7451C32.663 18.8391 32.8154 20.0115 32.1286 20.3614C31.4419 20.7112 30.18 20.1071 29.3126 19.0131C28.4442 17.9152 28.2928 16.7467 28.9796 16.3968ZM30.52 26.4621C31.2057 26.1085 32.4676 26.7127 33.336 27.8104C34.2034 28.9044 34.3558 30.0768 33.669 30.4267C32.9822 30.7765 31.7214 30.1761 30.853 29.0784C29.9846 27.9805 29.8332 26.812 30.52 26.4621ZM20.0678 13.685C20.7545 13.3352 22.0164 13.9393 22.8838 15.0333C23.7512 16.1273 23.9036 17.2997 23.2168 17.6495C22.53 17.9994 21.2692 17.399 20.4008 16.3012C19.5296 15.2083 19.381 14.0349 20.0678 13.685ZM21.4787 23.1461C22.1654 22.7963 23.4273 23.4004 24.2947 24.4944C25.1621 25.5884 25.3144 26.7608 24.6277 27.1107C23.9409 27.4605 22.6791 26.8563 21.8117 25.7624C20.9432 24.6645 20.7919 23.496 21.4787 23.1461ZM10.8977 17.2987C11.3587 16.0307 12.3537 15.1413 13.1225 15.3236C13.8892 15.4983 14.1392 16.6728 13.682 17.9398C13.221 19.2078 12.2249 20.0934 11.4572 19.9149C10.6905 19.7402 10.4367 18.5667 10.8977 17.2987ZM5.2514 32.177C5.71237 30.909 6.70469 30.0245 7.4752 30.1982C8.24186 30.3729 8.49187 31.5474 8.03468 32.8144C7.57473 34.0862 6.57762 34.968 5.81088 34.7933C5.04045 34.6196 4.79044 33.4451 5.2514 32.177Z" fill="#B1B9D8" />
	<path d="M44.6646 34.7116L61.8792 39.7965C62.1715 39.876 62.4566 39.8683 62.7275 39.8079L57.1911 21.2287L39.2314 14.9356L39.2342 14.9308L57.8284 19.3226C57.8604 19.306 72.3552 6.87299 72.3552 6.87299L72.3648 6.87851L59.2126 20.6988L62.6609 39.3032L62.5906 39.0713L62.7289 39.7986L62.7364 39.7966C63.0101 39.7313 63.2767 39.579 63.4742 39.3805L76.4062 27.0913C77.0765 26.4386 77.3448 25.4931 77.1213 24.5986L72.981 7.39602C72.9157 7.12233 72.7966 6.85902 72.6051 6.62725C72.3615 6.33667 72.0263 6.12722 71.6417 6.01998L54.4398 0.95579C53.6912 0.727711 52.9023 0.922911 52.354 1.4419L39.2045 13.9471C38.9668 14.1767 38.8171 14.4634 38.7659 14.8007C38.7126 15.0091 38.7071 15.2451 38.7746 15.4818L42.98 32.9578C43.1904 33.8033 43.8432 34.4736 44.663 34.7109L44.6646 34.7116ZM53.9192 31.4432C54.4303 30.8452 55.5841 31.1669 56.4972 32.1598C57.4065 33.1536 57.7324 34.4453 57.2186 35.0481C56.7075 35.6461 55.5536 35.3244 54.6406 34.3315C53.7303 33.3339 53.4044 32.0423 53.9192 31.4432ZM43.354 19.5422C43.8651 18.9442 45.0189 19.2659 45.932 20.2587C46.8413 21.2526 47.1672 22.5442 46.6533 23.1471C46.1423 23.745 44.9884 23.4233 44.0753 22.4305C43.165 21.4329 42.8392 20.1412 43.354 19.5422ZM61.7978 21.3052C62.153 20.0049 63.0347 19.1903 63.7628 19.4927C64.4936 19.7902 64.7969 21.088 64.4389 22.3931C64.0836 23.6935 63.2019 24.5081 62.4738 24.2057C61.7468 23.9071 61.4435 22.6094 61.7978 21.3052ZM67.332 31.9227C66.9768 33.223 66.0951 34.0376 65.367 33.7352C64.6362 33.4377 64.3329 32.1399 64.6909 30.8347C65.0462 29.5344 65.9279 28.7198 66.656 29.0222C67.3878 29.3235 67.692 30.6251 67.332 31.9227ZM69.349 13.9285C69.7043 12.6281 70.586 11.8136 71.3141 12.1159C72.0449 12.4135 72.3481 13.7112 71.9901 15.0164C71.6349 16.3167 70.7532 17.1313 70.0251 16.8289C69.297 16.5266 68.9938 15.2288 69.349 13.9285ZM74.8833 24.5459C74.528 25.8462 73.6463 26.6608 72.9183 26.3584C72.1874 26.0609 71.8842 24.7631 72.2422 23.458C72.5974 22.1576 73.4791 21.3431 74.2072 21.6454C74.939 21.9468 75.2423 23.2445 74.8833 24.5459ZM63.7865 7.41626C65.1598 7.15344 66.265 7.56502 66.256 8.33171C66.2481 9.10219 65.1261 9.94066 63.7576 10.2063C62.3844 10.4691 61.2792 10.0575 61.2881 9.29086C61.296 8.52038 62.418 7.6819 63.7865 7.41626ZM54.1562 4.12068C55.5295 3.85785 56.6346 4.26943 56.6257 5.03612C56.6178 5.8066 55.4958 6.64508 54.1273 6.91072C52.7541 7.17354 51.6489 6.76196 51.6578 5.99527C51.6647 5.22102 52.7829 4.38356 54.1562 4.12068ZM55.4115 8.95665C56.7848 8.69382 57.89 9.1054 57.881 9.87209C57.8731 10.6426 56.7512 11.481 55.3827 11.7467C54.0094 12.0095 52.9042 11.5979 52.9132 10.8312C52.9163 10.058 54.0345 9.22054 55.4115 8.95665ZM56.6572 13.8922C58.0305 13.6294 59.1356 14.041 59.1267 14.8077C59.1188 15.5782 57.9968 16.4166 56.6283 16.6823C55.2551 16.9451 54.1499 16.5335 54.1588 15.7668C54.1667 14.9963 55.2877 14.1541 56.6572 13.8922ZM47.6209 10.761C48.9941 10.4982 50.0993 10.9098 50.0903 11.6764C50.0825 12.4469 48.9605 13.2854 47.592 13.551C46.2187 13.8139 45.1135 13.4023 45.1225 12.6356C45.1304 11.8651 46.2476 11.0239 47.6209 10.761Z" fill="#B1B9D8" />
	<path d="M27.0647 52.7054C27.0076 52.9148 27.0058 53.1498 27.0733 53.3865L31.2788 70.8625C31.4844 71.7052 32.1409 72.3745 32.957 72.6128L50.1716 77.6978C50.4639 77.7772 50.7489 77.7696 51.0199 77.7091L45.6053 59.1015L27.521 52.8417L27.5237 52.837L45.9993 57.3576C46.0312 57.3409 46.0652 57.3318 46.0991 57.3227C46.1369 57.3126 46.1746 57.3025 46.2144 57.2999L60.6464 44.7826L60.656 44.7882L47.3753 58.6428L50.9481 77.2139L50.8779 76.982L51.0151 77.7055L51.0226 77.7035C51.2963 77.6382 51.5629 77.4859 51.7604 77.2874L64.6924 64.9982C65.3617 64.3417 65.631 63.4 65.4075 62.5055L61.271 45.3019C61.2057 45.0283 61.0866 44.7649 60.8951 44.5332C60.6514 44.2426 60.3163 44.0331 59.9317 43.9259L42.7298 38.8617C41.9812 38.6336 41.1913 38.8251 40.644 39.3478L27.4945 51.8531C27.2643 52.0806 27.1109 52.3683 27.0635 52.7046L27.0647 52.7054ZM42.2122 69.348C42.7233 68.75 43.8772 69.0717 44.7902 70.0645C45.6995 71.0584 46.0254 72.35 45.5116 72.9529C45.0005 73.5508 43.8467 73.2291 42.9336 72.2363C42.0195 71.2397 41.7001 69.9422 42.2122 69.348ZM39.2094 64.3292C40.1186 65.323 40.4445 66.6146 39.9307 67.2175C39.4196 67.8154 38.2658 67.4937 37.3527 66.5009C36.4434 65.5071 36.1175 64.2154 36.6313 63.6126C37.1414 63.0108 38.2953 63.3325 39.2094 64.3292ZM31.6431 57.4474C32.1542 56.8495 33.3081 57.1712 34.2211 58.164C35.1304 59.1578 35.4563 60.4495 34.9425 61.0523C34.4314 61.6503 33.2776 61.3286 32.3645 60.3358C31.4542 59.3382 31.1321 58.0455 31.6431 57.4474ZM50.0908 59.2095C50.446 57.9091 51.3277 57.0946 52.0558 57.3969C52.7866 57.6945 53.0899 58.9923 52.7319 60.2974C52.3766 61.5977 51.4949 62.4123 50.7668 62.1099C50.0388 61.8076 49.7355 60.5098 50.0908 59.2095ZM55.625 69.8269C55.2698 71.1272 54.3881 71.9418 53.66 71.6394C52.9292 71.3419 52.6259 70.0441 52.9839 68.739C53.3392 67.4386 54.2209 66.6241 54.949 66.9264C55.6818 67.2315 55.9803 68.5265 55.625 69.8269ZM58.3678 61.4689C58.0125 62.7693 57.1308 63.5838 56.4027 63.2815C55.6719 62.9839 55.3687 61.6862 55.7267 60.381C56.0819 59.0807 56.9636 58.2661 57.6917 58.5685C58.4235 58.8698 58.723 60.1686 58.3678 61.4689ZM57.6409 51.8286C57.9961 50.5282 58.8779 49.7137 59.6059 50.016C60.3368 50.3136 60.64 51.6113 60.282 52.9165C59.9268 54.2168 59.045 55.0314 58.317 54.729C57.5889 54.4267 57.2867 53.1327 57.6409 51.8286ZM63.1759 62.4489C62.8207 63.7492 61.939 64.5638 61.2109 64.2614C60.4801 63.9639 60.1768 62.6661 60.5348 61.361C60.8901 60.0606 61.7718 59.2461 62.4999 59.5484C63.2317 59.8497 63.5312 61.1485 63.1759 62.4489ZM44.9246 54.5847C43.5514 54.8475 42.4462 54.4359 42.4552 53.6693C42.463 52.8988 43.585 52.0603 44.9535 51.7947C46.3268 51.5318 47.432 51.9434 47.423 52.7101C47.4151 53.4806 46.2969 54.318 44.9246 54.5847ZM52.9283 44.3844C54.3016 44.1216 55.4068 44.5332 55.3978 45.2999C55.3899 46.0703 54.2679 46.9088 52.8995 47.1745C51.5262 47.4373 50.421 47.0257 50.43 46.259C50.4379 45.4885 51.5561 44.6511 52.9283 44.3844ZM49.0484 48.0608C50.4217 47.798 51.5269 48.2095 51.5179 48.9762C51.51 49.7467 50.3881 50.5852 49.0196 50.8508C47.6463 51.1136 46.5411 50.7021 46.5501 49.9354C46.5542 49.1659 47.6724 48.3284 49.0484 48.0608ZM42.2782 41.4632C43.6515 41.2004 44.7566 41.612 44.7477 42.3787C44.7398 43.1492 43.6178 43.9876 42.2493 44.2533C40.8761 44.5161 39.7709 44.1045 39.7798 43.3378C39.7877 42.5674 40.9059 41.7299 42.2782 41.4632ZM38.3983 45.1396C39.7716 44.8768 40.8768 45.2884 40.8678 46.055C40.8599 46.8255 39.7379 47.664 38.3694 47.9296C36.9962 48.1925 35.891 47.7809 35.8999 47.0142C35.9041 46.2447 37.0223 45.4073 38.3983 45.1396ZM34.2995 48.8746C35.6728 48.6118 36.778 49.0234 36.769 49.7901C36.7611 50.5605 35.6391 51.399 34.2707 51.6646C32.8974 51.9275 31.7922 51.5159 31.8012 50.7492C31.8081 49.975 32.9263 49.1375 34.2995 48.8746Z" fill="#B1B9D8" />
</svg>
