<svg width="96" height="83" viewBox="0 0 96 83" fill="none" xmlns="http://www.w3.org/2000/svg">
<path d="M94.7753 26.663C93.7753 23.863 92.7753 21.163 91.5753 18.463C89.4753 13.963 86.7753 9.76301 82.8753 6.46301C78.8753 3.16301 74.3753 1.86301 69.2753 3.16301C67.1753 3.76301 65.2753 4.76301 63.6753 6.26301C55.4753 -2.23699 39.3753 -1.93699 31.7753 6.26301C31.6753 6.16301 31.5753 6.06301 31.4753 5.96301C28.2753 3.26301 24.5753 2.163 20.4753 2.763C16.3753 3.263 12.9753 5.363 10.2753 8.363C5.37527 13.663 2.37527 20.063 0.375274 26.863C-0.424726 29.763 0.0752741 32.463 1.67527 35.063C2.87527 36.963 4.27527 38.663 5.97527 40.163C12.9753 46.463 20.1753 52.563 27.3753 58.563C27.9753 59.063 28.7753 59.263 29.3753 58.763C30.1753 58.163 31.0753 57.463 31.6753 56.663C33.9753 53.663 34.3753 50.163 34.2753 46.463C34.2753 46.263 34.2753 46.063 34.2753 45.663C36.2753 49.363 37.5753 53.163 38.4753 57.463C39.8753 64.563 40.5753 71.663 41.1753 78.763C41.2753 80.763 42.1753 81.863 44.2753 82.463C46.1753 82.963 48.0753 82.963 50.0753 82.663C50.8753 82.563 51.7753 82.263 52.5753 81.863C53.5753 81.363 54.2753 80.563 54.3753 79.263C54.6753 72.863 55.3753 66.563 56.4753 60.263C57.2753 55.363 58.4753 50.663 60.7753 46.163C60.8753 45.963 60.9753 45.763 61.0753 45.463C60.9753 47.663 61.0753 49.763 61.5753 51.763C62.1753 54.163 63.2753 56.263 65.1753 57.863C66.4753 58.963 67.1753 58.963 68.3753 57.863C68.6753 57.563 69.0753 57.263 69.3753 56.963C75.5753 51.763 81.7753 46.463 88.0753 41.263C90.2753 39.463 92.2753 37.463 93.7753 35.063C95.1753 32.663 95.8753 29.763 94.7753 26.663ZM28.9753 54.363C28.9753 54.563 28.8753 54.763 28.7753 55.163C24.7753 51.463 20.8753 47.963 17.0753 44.463C14.9753 42.463 13.1753 40.263 11.7753 37.763C7.97527 30.463 7.37527 23.063 11.2753 15.563C12.7753 12.663 14.8753 10.363 17.9753 9.06301C21.5753 7.56301 24.8753 9.26301 26.7753 12.263C26.8753 12.463 26.8753 12.763 26.7753 12.863C25.3753 16.163 24.8753 19.663 24.7753 23.263C24.6753 29.063 25.1753 34.863 26.4753 40.563C26.6753 41.363 26.9753 42.063 27.3753 42.863C29.2753 46.463 29.6753 50.363 28.9753 54.363ZM38.8753 32.263C38.0753 34.963 35.6753 36.163 33.0753 35.263C30.7753 34.463 29.2753 31.863 29.6753 29.363C30.0753 26.763 32.1753 24.963 34.7753 24.863C36.3753 24.863 37.6753 25.563 38.3753 26.963C39.1753 28.663 39.3753 30.363 38.8753 32.263ZM59.7753 35.363C57.9753 35.063 56.4753 33.563 56.2753 31.663C56.1753 30.463 56.2753 29.263 56.4753 28.163C56.8753 26.463 57.9753 25.163 59.8753 24.863C61.9753 24.563 63.8753 25.463 64.7753 27.263C65.1753 28.063 65.3753 29.063 65.6753 29.963C65.4753 33.363 62.7753 35.863 59.7753 35.363ZM80.8753 41.163C78.2753 44.463 75.0753 47.263 71.9753 49.963C70.2753 51.563 68.4753 53.063 66.7753 54.563C66.6753 54.663 66.4753 54.763 66.1753 55.063C66.0753 53.963 65.8753 52.963 65.8753 52.063C65.7753 48.963 66.1753 45.963 67.5753 43.163C68.7753 40.763 69.0753 38.263 69.4753 35.763C70.0753 30.963 70.4753 26.163 70.1753 21.363C69.9753 18.563 69.4753 15.763 68.4753 13.163C68.2753 12.563 68.2753 12.163 68.6753 11.663C70.9753 8.26301 74.8753 7.36301 78.3753 9.56301C82.0753 11.863 84.2753 15.263 85.4753 19.263C87.7753 27.363 85.8753 34.663 80.8753 41.163Z" fill="#B1B9D8"/>
<path d="M35.1753 28.063C33.7753 28.063 32.6753 29.163 32.6753 30.563C32.6753 31.963 33.7753 33.163 35.1753 33.163C36.5753 33.163 37.7753 32.063 37.8753 30.663C37.7753 29.263 36.5753 28.063 35.1753 28.063Z" fill="#B1B9D8"/>
<path d="M60.0753 28.063C58.5753 28.063 57.4753 29.163 57.4753 30.663C57.4753 32.063 58.6753 33.163 60.0753 33.163C61.4753 33.163 62.6753 31.963 62.6753 30.563C62.6753 29.163 61.4753 28.063 60.0753 28.063Z" fill="#B1B9D8"/>
</svg>
