<svg width="20" height="20" viewBox="0 0 20 20" fill="none" xmlns="http://www.w3.org/2000/svg">
<path d="M0.41514 19.9757H19.58C19.6949 19.9757 19.8075 19.9278 19.8866 19.8439C19.9656 19.7601 20.0064 19.6451 19.9992 19.5301C19.8986 17.9729 18.8205 16.5907 17.4071 15.642C17.3401 15.436 17.3065 15.2515 17.3041 15.0647C17.2826 14.5688 17.4742 13.7663 17.6275 13.1242L17.6946 12.844C18.0276 11.603 18.0252 10.4915 17.6874 9.5524C17.491 8.95589 17.2418 8.4624 16.9999 7.98328C16.7531 7.49457 16.5208 7.03222 16.3675 6.50998C16.1854 5.77932 16.2644 4.81869 16.6022 3.72629C16.7316 3.3933 16.6166 3.03396 16.31 2.82075C15.953 2.57401 15.4715 2.60994 15.1625 2.90939C13.7419 4.33717 13.1885 6.21053 13.682 7.91381C13.8281 8.46719 14.0892 9.07088 14.3216 9.6051C14.4438 9.88299 14.5564 10.1465 14.645 10.3813C14.8439 10.8987 14.8247 11.4353 14.5755 12.1301C14.5061 12.3505 14.4318 12.5637 14.3599 12.7745C14.1899 13.268 14.0174 13.7758 13.8904 14.346C12.8196 14.2502 12.3548 14.5233 11.8637 14.8131C11.7511 14.8802 11.6337 14.9473 11.502 15.0168C11.5235 14.6335 11.6625 14.2262 11.8086 13.8022C11.8493 13.6848 11.8901 13.565 11.9236 13.4596L12.029 13.1674C12.1895 12.7266 12.4051 12.1253 12.5129 11.7899C13.2316 9.42304 12.1656 7.84194 11.1331 6.31115C10.8121 5.83442 10.4791 5.34093 10.1964 4.82108C9.74601 3.68796 10.3018 2.42548 10.9055 1.33788C11.1043 1.02884 11.0971 0.643152 10.8839 0.353284C10.7498 0.168823 10.5509 0.0466472 10.3233 0.0107132C10.0982 -0.0252208 9.87058 0.0298782 9.68372 0.166427C9.3148 0.437131 9.00577 0.71502 8.72309 1.03364C7.5181 2.3057 6.71797 4.49049 7.64746 6.49561C7.93973 7.18794 8.39968 7.92099 8.80693 8.5702C8.99858 8.87444 9.17825 9.15952 9.32438 9.41824C9.66216 9.99079 9.65737 10.4627 9.30761 11.2221C9.2046 11.4569 9.0968 11.6893 8.99139 11.9216C8.58654 12.796 8.1697 13.7016 7.99003 14.7437C7.94691 15.012 7.92775 15.2923 7.93493 15.5797C7.64507 15.5749 7.33364 15.5654 6.99346 15.5486C6.84494 15.5414 6.70359 15.539 6.56225 15.5366C6.51195 15.3857 6.4832 15.2396 6.47841 15.0743C6.45445 14.6407 6.65568 13.8429 6.80181 13.2608L6.8641 13.014C7.10606 12.1732 7.29531 10.9179 6.84254 9.73207C6.63891 9.15473 6.39217 8.69238 6.155 8.2444C5.92023 7.80121 5.69744 7.38438 5.54173 6.90286C5.36685 6.27042 5.4459 5.36249 5.76931 4.34436C5.90825 4.00179 5.79806 3.62568 5.48902 3.40049C5.14406 3.14895 4.6841 3.17291 4.36788 3.45798C2.92573 4.78994 2.35558 6.66809 2.87303 8.34262C3.02395 8.88402 3.29465 9.48053 3.53661 10.0076C3.64681 10.2495 3.75221 10.4795 3.83366 10.6807C4.01813 11.1335 4.00136 11.5863 3.76898 12.2043C3.7043 12.396 3.63483 12.5876 3.56536 12.7793C3.3234 13.4476 3.07665 14.1376 2.96646 14.8898C2.91615 15.3162 2.91615 15.757 2.96646 16.1858C0.491799 17.2998 0.015074 19.4462 0.00788721 19.4774C-0.0160688 19.5996 0.0150739 19.7289 0.0941288 19.8271C0.173184 19.9254 0.292964 19.9805 0.419931 19.9805L0.41514 19.9757Z" fill="#B1B9D8"/>
</svg>
