<svg width="20" height="19" viewBox="0 0 20 19" fill="none" xmlns="http://www.w3.org/2000/svg">
<path d="M15.793 9.69919C16.4462 8.54167 16.9505 6.72854 16.0548 4.32703C15.7162 3.42167 15.2383 2.65319 14.6331 2.02399C14.6139 2.00238 14.5947 1.98077 14.5706 1.96396C14.0375 1.42602 13.4131 0.986544 12.6855 0.662341C10.3848 -0.3631 7.43818 -0.0701171 5.5386 0.67675C3.22355 1.58692 1.47045 3.28238 0.601107 5.45094C-0.349888 7.82602 -0.169775 10.5565 1.12223 13.3447C1.72741 14.6487 2.55353 15.7438 3.56456 16.6179C3.60058 16.666 3.64861 16.7068 3.70385 16.7356C5.2336 18.0036 7.17162 18.7673 9.41222 18.9474C9.75083 18.9738 10.0894 18.9882 10.4329 18.9882C14.2969 18.9882 18.3266 17.3072 19.9284 14.9345C20.0341 14.776 20.0221 14.567 19.8972 14.4229L15.7906 9.7064L15.793 9.69919ZM14.8252 3.68103C14.9933 3.97401 15.1422 4.28381 15.2671 4.62002C15.9323 6.40193 15.817 8.08538 14.9381 9.49026L14.9309 9.50227C14.9309 9.50227 14.9165 9.52388 14.9093 9.53589C14.6643 9.91773 14.3713 10.2635 14.0495 10.5637C12.8752 10.7054 12.2244 10.3716 11.8954 10.0786C12.5942 9.72321 13.1442 9.06039 13.3963 8.21506C13.5788 7.60748 13.5788 7.00231 13.4227 6.45236C14.501 5.91443 14.7844 4.67765 14.8228 3.67623L14.8252 3.68103ZM11.0548 6.44996C10.9732 6.39473 10.8723 6.33709 10.7595 6.28666C10.8339 5.81837 10.7018 5.47495 10.5553 5.25401C10.4545 5.10272 10.3248 4.97784 10.1831 4.86977C10.7643 4.96823 11.3382 5.21079 11.8521 5.59503C12.7287 6.24823 12.8103 7.25446 12.5942 7.97972C12.3252 8.87548 11.6192 9.48306 10.7931 9.53109C10.0126 9.57672 9.42663 9.31015 9.14325 8.77942C8.89349 8.31113 8.92952 7.70355 9.23451 7.30249C9.50588 6.94467 9.83248 6.89904 10.099 6.94707C10.099 6.94707 10.1039 6.94707 10.1039 6.94947C10.1399 6.96388 10.1783 6.97109 10.2143 6.97349C10.3896 7.02392 10.5241 7.10797 10.5769 7.144C10.7667 7.27368 11.0284 7.22565 11.1605 7.03593C11.2926 6.84381 11.2446 6.58204 11.0524 6.45236L11.0548 6.44996ZM9.91413 6.24583L9.74843 6.09694C9.34258 6.13536 8.91751 6.32748 8.56449 6.79578C8.2691 7.18722 8.12982 7.67953 8.14423 8.17424C7.6207 8.2751 6.9915 8.57289 6.58565 9.2309C6.45597 8.5849 6.4992 7.86204 6.72013 7.07675C6.97469 6.17139 7.52224 5.48936 8.28111 5.12193C8.67976 5.14835 9.57312 5.29484 9.8589 5.72231C9.89492 5.77754 9.99578 5.93124 9.91654 6.25064L9.91413 6.24583ZM8.32194 8.99315C8.34835 9.05319 8.37237 9.11563 8.40359 9.17567C8.84306 9.99938 9.73402 10.4365 10.8435 10.3692C10.9012 10.3668 10.9588 10.3596 11.0164 10.3524C11.2758 10.7006 11.8473 11.2506 12.9328 11.4019C12.2652 11.7909 11.5784 12.0262 11.0068 12.0791C9.82768 12.192 8.21387 11.7933 7.26047 10.6502C7.18362 10.5589 7.11638 10.4653 7.05154 10.3668C7.23166 9.33417 7.92329 9.06039 8.32434 8.99075L8.32194 8.99315ZM9.28734 0.835249C10.3344 0.835249 11.4031 1.00816 12.3469 1.42842C12.9496 1.69739 13.4732 2.06002 13.9222 2.50189C13.9991 3.03983 14.2104 5.06189 13.0769 5.68628C12.8896 5.3981 12.6494 5.13634 12.3565 4.9178C11.5664 4.32944 10.6538 4.01004 9.75323 3.98122C9.62595 2.45626 8.41079 1.53889 7.22445 1.05379C7.87286 0.9169 8.57409 0.832848 9.28734 0.832848V0.835249ZM1.384 5.76313C2.15248 3.84433 3.69904 2.33619 5.74512 1.50287C6.29027 1.60373 8.7374 2.16328 8.91031 4.04125C8.71578 4.07488 8.52366 4.12291 8.33635 4.18775C8.24509 4.21897 8.15863 4.25979 8.06978 4.29822C8.05057 4.30542 8.03376 4.31262 8.01695 4.31983C6.9891 4.77611 6.24704 5.65506 5.91323 6.8318C3.84073 6.09454 1.96996 6.74054 0.966135 7.24246C1.05499 6.73574 1.19428 6.24103 1.384 5.76313ZM3.6246 15.5396C2.96659 14.8672 2.37101 14.0315 1.88831 12.9893C1.13424 11.3634 0.788424 9.76644 0.853265 8.2679C1.42722 7.91248 3.48531 6.81019 5.73312 7.65792C5.47375 9.36538 6.04291 10.5061 6.61447 11.1905C6.67211 11.2602 6.73214 11.325 6.79218 11.3874C4.68846 12.2568 3.90317 14.3821 3.6246 15.5396ZM9.48186 18.1044C7.91128 17.9796 5.99728 17.5089 4.34985 16.1953C4.48434 15.422 5.12314 12.7107 7.53905 12.0166C8.64134 12.7587 10.015 13.0181 11.0837 12.9172C11.2806 12.898 11.4895 12.8596 11.7081 12.8067C11.696 13.9811 11.8714 16.5363 13.5188 17.7802C12.2484 18.0804 10.8747 18.2149 9.48186 18.1044ZM14.6619 17.456C12.5558 16.666 12.5222 13.4503 12.5582 12.5258C13.2162 12.252 13.8982 11.8389 14.513 11.2866C14.5178 11.2818 14.525 11.277 14.5298 11.2722C14.8084 11.02 15.0726 10.739 15.3127 10.4268L19.0446 14.7159C18.1993 15.7846 16.6095 16.81 14.6619 17.456Z" fill="#B1B9D8"/>
</svg>
