<svg width="20" height="25" viewBox="0 0 20 25" fill="none" xmlns="http://www.w3.org/2000/svg">
<path d="M16.7128 0.0210803C16.7128 0.0210803 17.2479 3.36886 15.4963 5.23678C13.7449 7.10458 10.3691 6.78536 10.3691 6.78536C10.3691 6.78536 9.83399 3.43758 11.5855 1.56966C13.338 -0.298134 16.7128 0.0210803 16.7128 0.0210803Z" fill="#B1B9D8"/>
<path d="M4.41944 2.22921C8.224 4.23983 8.59412 5.35299 8.90198 6.27902C8.96961 6.48251 9.0343 6.67709 9.13184 6.87008C9.83411 8.25863 9.9972 7.54342 9.9972 7.54342C10.0689 6.50912 8.77088 1.96481 6.48621 0.811119C4.20264 -0.343666 3.86438 1.93575 4.41944 2.22921Z" fill="#B1B9D8"/>
<path fill-rule="evenodd" clip-rule="evenodd" d="M15.8564 7.28671C12.8246 6.88168 11.9345 7.38107 11.2329 7.77474C10.8955 7.96407 10.6017 8.12887 10.1343 8.15694C9.60327 8.18893 9.26013 8.01559 8.84156 7.80404C8.07312 7.41561 7.0503 6.89877 4.14392 7.28768C-0.345822 7.88741 -0.17883 12.3431 0.142581 14.4865C0.629886 17.7429 2.60022 25.1826 7.52344 24.1313C9.42017 23.7265 10.9758 23.6141 12.4766 24.1313C17.2883 25.7902 19.3701 17.7429 19.8575 14.4865C20.1787 12.3421 20.3458 7.88631 15.8564 7.28671ZM3.5 13C3.5 11.6192 4.61927 10.5 6 10.5C6.27613 10.5 6.5 10.2761 6.5 9.99996C6.5 9.72384 6.27613 9.49996 6 9.49996C4.06702 9.49996 2.5 11.067 2.5 13C2.5 13.2761 2.72388 13.5 3 13.5C3.27613 13.5 3.5 13.2761 3.5 13Z" fill="#B1B9D8"/>
</svg>
