<svg width="69" height="96" viewBox="0 0 69 96" fill="none" xmlns="http://www.w3.org/2000/svg">
<path d="M28.4 26.8C28.6 26.4 28.8 26.1 29.1 25.7C29.1 26.3 29 26.9 28.9 27.5C28.4 30.6 26.9 32.8 23.8 33.8C22.6 34.2 21.4 34.6 20.1 35.1C20.4 35.2 20.6 35.2 20.8 35.3C24.8 36.3 27.6 38.7 29.2 42.4C30.1 44.3 30.5 46.4 30.6 48.5C30.8 51.6 30.6 54.7 29.5 57.6C29.1 58.6 28.8 59.7 28.4 60.8C30.6 59.9 32 61.3 33.4 62.7C33.5 61.8 33.5 61.1 33.5 60.3C33.6 51.7 34 43.1 33 34.6C33 34.4 33.1 34.1 33.2 34C33.7 33.7 34.2 33.4 34.7 33.4C35.7 33.3 36.2 34.1 36.1 35.1C35.9 36.6 35.6 38.1 35.6 39.6C35.5 46.1 35.5 52.6 35.5 59.1C35.5 60.3 35.6 61.5 35.7 62.7C36.5 62.1 37.1 61.4 37.9 60.9C38.7 60.3 39.6 60.3 40.6 60.7C40.3 59.9 40.1 59.2 39.9 58.5C38.2 53.3 38 48.1 39.8 42.9C41.1 39.1 43.5 36.4 47.5 35.3C47.9 35.2 48.3 35.1 48.9 35C47.3 34.4 45.8 33.9 44.3 33.2C41.5 32 39.7 28.7 40.1 25.3C41.8 29.4 44.9 31.6 49 32.3V32.2C46.7 27.4 45 22.3 44.4 17C44 13.1 44 9.19996 45.1 5.29996C45.2 4.79996 45.3 4.29996 45.2 3.89996C44.7 1.19995 41.4 -0.400045 38.9 0.799955C37.8 1.39995 37.4 2.09996 37.9 3.29996C39.4 6.59996 39.7 9.99996 39.6 13.5C39.6 15.1 38.3 16.8 36.8 17.1C35.4 17.3 33.9 17.3 32.5 17.2C31 17 29.6 15.5 29.6 14.2C29.6 12 29.7 9.69996 30 7.49996C30.2 6.09996 30.8 4.69996 31.3 3.29996C31.6 2.29996 31.5 1.69995 30.6 1.09995C29.6 0.399955 28.6 0.299955 27.4 0.499955C24.8 1.09996 23.5 3.29996 24.1 5.79996C24.4 7.29996 24.7 8.89995 24.8 10.4C25.1 16.3 24.2 22 22 27.4C21.3 29.1 20.6 30.7 19.9 32.4C20.5 32.2 21 31.9 21.6 31.8C24.9 31.3 26.9 29.4 28.4 26.8Z" fill="#B1B9D8"/>
<path d="M43.7 66.4C43.2 64.8 42.3 63.4 40.9 62.4C40 61.7 39.2 61.7 38.3 62.5C37.7 63 37.2 63.5 36.7 63.9C35.4 64.9 34 64.9 32.7 63.9C32.1 63.4 31.6 62.9 31 62.4C30.2 61.8 29.5 61.8 28.7 62.3C28.1 62.7 27.6 63.3 27.1 63.8C25.8 65.6 25.1 67.6 24.8 69.7C24.7 70.5 24.8 71.2 25.3 71.8C26.6 73.4 27.9 74.9 29.2 76.5C30 77.5 31 78.1 32.3 78.3C33 78.4 33.8 78.4 34.6 78.4C34.7 78.4 34.8 78.4 34.9 78.4C36.8 78.5 38.5 78.1 39.8 76.6C41.2 75 42.6 73.4 43.9 71.7C44.4 71.1 44.6 70.3 44.5 69.5C44.3 68.6 44 67.5 43.7 66.4ZM30.8 70.3C30 68.6 29.3 66.8 28.5 65C30.7 66.5 31.5 68.1 30.8 70.3ZM38.4 70.3C37.8 68.1 38.5 66.3 40.7 65C39.9 66.8 39.2 68.5 38.4 70.3Z" fill="#B1B9D8"/>
<path d="M55.7 18.9C53.3 20.7 51.3 22.7 49.9 25.4C49.5 26.2 49.2 27 49.5 27.9C50.2 30.1 51 32.3 51.8 34.5C52 35 52.4 35.4 53 35.4C53.7 35.4 54.4 35.4 55.1 35.3C59.9 34.5 63.4 31.9 65.7 27.6C67.3 24.5 68.1 21.1 68.6 17.7C68.8 16.4 68.9 15.1 69 13.7C64 14.4 59.6 16 55.7 18.9ZM65.6 21.1C64.9 23.8 64 26.4 62.2 28.7C60.5 30.9 58.3 32.5 55.5 33.2C55 33.3 54.4 33.4 53.9 33.4C53.9 33.3 53.9 33.3 53.9 33.2C54.8 32.5 55.8 31.9 56.7 31.2C59.1 29.4 60.6 27 61.7 24.3C62.2 23.1 62.6 21.8 63.3 20.6C63.9 19.6 64.7 18.7 65.5 17.8C65.7 17.5 66.1 17.4 66.6 17.2C66.3 18.5 66 19.8 65.6 21.1Z" fill="#B1B9D8"/>
<path d="M17.7 34C18.3 32.2 18.9 30.4 19.6 28.6C20 27.5 20 26.4 19.4 25.4C18.5 24 17.6 22.6 16.5 21.4C13.2 17.8 9.00004 15.7 4.40004 14.4C3.20004 14.1 1.90004 13.8 0.600037 13.5C0.600037 13.9 0.600037 14.1 0.600037 14.3C0.800037 16 0.900037 17.7 1.20004 19.3C1.70004 22.5 2.70004 25.6 4.40004 28.5C7.00004 32.7 10.8 34.9 15.6 35.3C16.8 35.6 17.3 35.2 17.7 34ZM11.2 32.2C8.20004 30.6 6.10004 28.1 4.90004 25C4.00004 22.5 3.40004 19.9 2.70004 17.4C2.70004 17.3 2.70004 17.3 2.70004 17.1C3.70004 17.6 4.60004 18.3 5.10004 19.3C5.80004 20.5 6.40004 21.8 7.00004 23.2C8.00004 25.9 9.30004 28.4 11.5 30.4C12.5 31.3 13.7 32.1 14.9 33C15.1 33.1 15.2 33.2 15.4 33.3C13.9 33.3 12.5 32.9 11.2 32.2Z" fill="#B1B9D8"/>
<path d="M51.1 38.5C49.2 38.5 47.4 39 45.9 40.2C44.4 41.4 43 42.7 41.7 44C42.4 44.5 43.2 45 44 45.5C44.4 45.8 44.9 46 45.4 46.2C47.3 47 49.4 46.3 50.4 44.4C51.1 43.1 51.2 41.8 50.7 40.4C52.7 40.3 54.6 39.8 56.3 38.9C54.5 38.7 52.8 38.5 51.1 38.5Z" fill="#B1B9D8"/>
<path d="M25.8 45.2C26.4 44.8 27 44.4 27.6 44C26.6 43.1 25.6 42.2 24.6 41.2C22.5 39.1 19.9 38.1 16.9 38.5C15.6 38.6 14.4 38.8 13.1 38.9C13.1 39 13.1 39.1 13.1 39.2C14.9 39.6 16.8 40.1 18.6 40.6C18.5 41 18.4 41.5 18.4 42C18.2 44.5 20.1 46.6 22.6 46.6C23.8 46.4 24.8 45.8 25.8 45.2Z" fill="#B1B9D8"/>
<path d="M30.2 95.3C33.1 95.3 36 95.3 38.9 95.3C36.8 91.1 36.1 86.5 34.7 81.9C33.2 86.5 32.4 91.1 30.2 95.3Z" fill="#B1B9D8"/>
<path d="M43.7 76.5C43.6 76.6 43.5 76.6 43.5 76.6C41.9 79.1 40.2 81.7 38.6 84.2C38.5 84.4 38.5 84.7 38.5 85C39.3 87.5 40.3 89.9 41.8 92.1C42.6 93.3 43.5 94.4 44.3 95.6C44.4 95.6 44.4 95.5 44.5 95.5C43.9 89.2 43 82.9 43.7 76.5Z" fill="#B1B9D8"/>
<path d="M30.7 84.2C29.1 81.8 27.5 79.4 26 76.9C25.9 76.8 25.8 76.6 25.6 76.3C26.3 82.8 25.6 89.1 24.8 95.4C25 95.3 25 95.2 25.1 95.2C27.7 92.2 29.7 88.7 30.9 84.9C30.9 84.8 30.8 84.5 30.7 84.2Z" fill="#B1B9D8"/>
<path d="M47.4 50.4C46.8 51 46.2 51.6 45.6 52.2C44.5 53.2 43.3 54.1 42.1 55C41.9 55.1 41.7 55.3 41.7 55.5C41.7 56.6 41.7 57.6 41.7 58.8C42.8 57.8 43.9 57 45 56C43.8 58.7 43.2 61.4 44.3 64.2C47 60.6 49.8 50.8 48.9 48.4C48.5 49 48 49.7 47.4 50.4Z" fill="#B1B9D8"/>
<path d="M24.3 56C25.4 57 26.4 57.9 27.5 58.8C27.5 57.7 27.5 56.8 27.5 55.9C27.5 55.4 27.3 55.1 27 54.8C24.6 52.9 22 51.2 20.4 48.4C20.2 54.2 22.3 59.3 24.9 64.4C25.9 61.4 25.4 58.7 24.3 56Z" fill="#B1B9D8"/>
<path d="M23.9 49.1C25.5 49.9 27.3 50.8 29.1 51.8C28.6 49.7 28.2 47.7 27.8 45.8C26.4 46.9 25.2 48 23.9 49.1Z" fill="#B1B9D8"/>
<path d="M41.6 45.8C41.2 47.7 40.8 49.6 40.3 51.7C42.1 50.8 43.8 49.9 45.4 49.1C44.2 48 42.9 46.9 41.6 45.8Z" fill="#B1B9D8"/>
</svg>
