<svg width="20" height="21" viewBox="0 0 20 21" fill="none" xmlns="http://www.w3.org/2000/svg">
<path d="M8.07006 13.2137C8.17926 12.2153 7.74129 11.5608 7.19909 10.9908C6.92164 11.1271 6.59967 11.1978 6.26326 11.1979C6.05469 11.1979 5.84058 11.1708 5.62798 11.1156C4.95743 10.9412 4.41934 10.5109 4.15214 9.93522C3.81648 9.21216 3.89519 8.31993 4.34802 7.71506C4.60464 7.37227 4.95558 7.16505 5.34609 7.11498C5.26503 6.30096 5.09678 5.55959 4.38616 5.06316C3.90905 4.72978 3.40355 4.55867 2.91602 4.55867C2.70384 4.55867 2.49511 4.59101 2.2936 4.65661C1.63144 4.87198 1.11376 5.43427 0.835978 6.23989C0.50301 7.20562 0.491252 8.8592 0.806496 10.3545C1.18852 12.166 1.97533 13.5338 3.0222 14.2057C4.33861 15.0507 5.88342 15.2651 6.95776 14.7518C7.41219 14.5347 7.97413 14.0916 8.07006 13.2137Z" fill="#B1B9D8"/>
<path d="M6.04074 7.3366C6.57791 8.10258 7.45031 9.03882 8.6357 9.3182C9.07618 9.42211 9.52456 9.46822 9.96018 9.45823C9.56177 8.96314 9.25661 8.34021 9.35228 7.4652C9.43695 6.69074 9.87996 6.07487 10.5998 5.73107C10.8191 5.62632 11.0544 5.55215 11.3001 5.50477C11.2085 5.46236 11.1164 5.42094 11.0249 5.38004C10.5593 5.1718 10.1196 4.97517 9.79428 4.65833C9.43636 4.30982 9.23132 3.80843 9.033 3.3236C8.71146 2.53763 8.40781 1.79525 7.51533 1.54889C6.76901 1.34309 6.03444 1.44532 5.5003 1.82969C5.00379 2.18719 4.70971 2.7677 4.67233 3.46446C4.65654 3.75803 4.69551 4.12158 4.78413 4.52141C5.80866 5.24589 5.95926 6.33535 6.04074 7.3366Z" fill="#B1B9D8"/>
<path d="M5.40195 7.78508C5.15727 7.82565 4.99053 7.97819 4.88612 8.11771C4.58205 8.52384 4.53089 9.15492 4.7618 9.65219C4.94425 10.0452 5.32174 10.3415 5.79733 10.4652C6.09931 10.5437 6.40766 10.5428 6.67259 10.4718C6.29393 10.1077 5.94198 9.75668 5.72921 9.32796C5.5051 8.87655 5.44672 8.3472 5.40195 7.78508Z" fill="#B1B9D8"/>
<path d="M12.5983 11.5359C12.8792 11.1606 12.9624 10.6286 12.7963 10.2707C12.6574 9.97154 12.355 9.83773 12.1257 9.77809C11.8283 9.70081 11.4899 9.70661 11.2062 9.78162C11.4919 10.0585 11.7529 10.3313 11.9176 10.6631C12.0941 11.0187 12.147 11.4271 12.1834 11.8607C12.3751 11.7972 12.5183 11.6428 12.5983 11.5359Z" fill="#B1B9D8"/>
<path d="M12.9892 14.1071C13.2118 14.2626 13.442 14.3727 13.6721 14.4375C13.6762 14.4387 13.6804 14.4397 13.6845 14.441C14.0087 14.53 14.3327 14.5279 14.6353 14.4295C15.1545 14.2606 15.5612 13.8174 15.7806 13.1814C16.2907 11.7018 15.9015 7.98008 14.0285 6.77781C12.976 6.10222 11.744 5.92943 10.8895 6.33758C10.5343 6.50726 10.0953 6.85324 10.0203 7.53833C9.93599 8.30952 10.2542 8.80922 10.6792 9.26163C11.1388 9.04274 11.7513 8.98646 12.2949 9.12783C12.817 9.26357 13.2115 9.56898 13.406 9.98771C13.6786 10.5749 13.5703 11.359 13.1364 11.9387C12.8907 12.2668 12.5775 12.474 12.241 12.5395C12.3078 13.1644 12.4493 13.73 12.9892 14.1071Z" fill="#B1B9D8"/>
<path d="M18.0894 11.0688C17.6292 10.7162 17.0925 10.5815 16.6097 10.6864C16.7193 11.7588 16.6362 12.7611 16.4158 13.4005C16.1262 14.2405 15.5676 14.833 14.8431 15.0686C14.6217 15.1406 14.3908 15.176 14.1564 15.176C13.9914 15.176 13.8249 15.1564 13.6587 15.1217C13.6479 15.1301 13.6372 15.1385 13.6264 15.1469C12.9893 15.6414 12.3877 16.1083 12.3667 16.919C12.35 17.5682 12.5744 18.1109 12.9987 18.4474C13.429 18.7887 14.0298 18.8815 14.6906 18.7086C16.2266 18.3069 18.8088 15.9602 19.0926 13.6654C19.2448 12.4344 18.6742 11.5169 18.0894 11.0688Z" fill="#B1B9D8"/>
<path d="M3.68435 16.488C2.21934 15.7882 0.670756 16.0663 0.15862 17.1209C-0.0367598 17.5241 -0.0519638 17.9891 0.114772 18.4654C0.366683 19.1852 1.01952 19.8553 1.86092 20.2578C2.40607 20.5183 2.96264 20.6434 3.47318 20.6434C4.33441 20.6434 5.06444 20.2873 5.38574 19.625C5.58111 19.2217 5.59649 18.7566 5.42975 18.2802C5.17784 17.5605 4.52543 16.8905 3.68435 16.488ZM4.78103 19.3319C4.4442 20.0257 3.23992 20.1719 2.15072 19.6516C1.46714 19.3246 0.94316 18.7982 0.748957 18.2434C0.674786 18.0317 0.617164 17.7157 0.763153 17.4143C0.96374 17.0013 1.47168 16.7824 2.07991 16.7824C2.49351 16.7824 2.95357 16.8837 3.39448 17.0944C4.07763 17.4213 4.60128 17.9476 4.7954 18.5023C4.86957 18.7141 4.92727 19.0301 4.78103 19.3319Z" fill="#B1B9D8"/>
<path d="M3.57777 18.3856L2.25656 17.7538C2.08916 17.6737 1.88857 17.7446 1.80852 17.912C1.72847 18.0794 1.79928 18.2801 1.96669 18.36L3.28789 18.9918C3.33468 19.0142 3.38407 19.0248 3.43262 19.0248C3.55795 19.0248 3.67831 18.9543 3.73594 18.8337C3.81599 18.6662 3.74518 18.4655 3.57777 18.3856Z" fill="#B1B9D8"/>
<path d="M19.3758 5.11452C18.5645 4.17912 17.2605 3.96878 16.4691 4.64623C16.1304 4.93644 15.9244 5.35912 15.889 5.8364C15.8445 6.43824 16.0697 7.0726 16.5073 7.577C16.9979 8.14147 17.6679 8.44143 18.2959 8.44143C18.7076 8.44143 19.1012 8.31249 19.4143 8.04445C19.7531 7.75449 19.9593 7.33181 19.9944 6.85429C20.039 6.25219 19.8135 5.61809 19.3758 5.11452ZM19.3245 6.80481C19.3089 7.01531 19.2361 7.31258 18.9775 7.53391C18.4661 7.97154 17.5857 7.79313 17.0147 7.13643C16.6938 6.76651 16.5278 6.31074 16.5593 5.88604C16.5749 5.67554 16.6477 5.37819 16.9063 5.1566C17.0958 4.9944 17.3358 4.91687 17.592 4.91687C18.0274 4.91687 18.5093 5.14106 18.8682 5.55492L18.8685 5.55517C19.1896 5.92451 19.3558 6.38003 19.3245 6.80481Z" fill="#B1B9D8"/>
<path d="M17.9469 5.83937C17.8254 5.69935 17.6132 5.68423 17.4729 5.80594C17.3328 5.92749 17.3178 6.13975 17.4395 6.27994L17.9359 6.85197C18.0023 6.92849 18.0957 6.96772 18.1897 6.96772C18.2678 6.96772 18.3462 6.94067 18.4098 6.88549C18.5499 6.76394 18.565 6.55168 18.4432 6.41148L17.9469 5.83937Z" fill="#B1B9D8"/>
<path d="M12.4654 4.12549C13.0387 4.12549 13.6512 3.88753 14.1393 3.42251L14.1395 3.42226C14.6228 2.96078 14.9071 2.34986 14.9192 1.74642C14.9289 1.26855 14.7636 0.828737 14.4538 0.508032C13.7309 -0.239215 12.413 -0.15194 11.5159 0.702572C11.0323 1.16397 10.7479 1.77489 10.7359 2.37867C10.7263 2.85687 10.8917 3.29668 11.2013 3.6168C11.531 3.95809 11.9843 4.12549 12.4654 4.12549ZM11.9795 1.18901C12.3398 0.845706 12.7856 0.667295 13.1887 0.667295C13.4915 0.667295 13.7703 0.767922 13.9706 0.975061C14.2069 1.21975 14.2516 1.52223 14.2473 1.73281C14.2386 2.1586 14.0303 2.59715 13.6755 2.936C13.0447 3.537 12.1513 3.63318 11.6843 3.14969C11.4481 2.90534 11.4034 2.60286 11.4077 2.39211C11.4162 1.96607 11.6248 1.52752 11.9795 1.18901Z" fill="#B1B9D8"/>
<path d="M12.5534 2.66017C12.6366 2.66017 12.7201 2.62934 12.7852 2.56735L13.3337 2.04413C13.468 1.91603 13.473 1.70335 13.345 1.56912C13.2171 1.43481 13.0043 1.42985 12.87 1.55786L12.3215 2.08109C12.1872 2.20918 12.1822 2.42187 12.3102 2.5561C12.3762 2.62531 12.4648 2.66017 12.5534 2.66017Z" fill="#B1B9D8"/>
<path d="M7.31537 16.453C6.83146 16.914 6.54696 17.5247 6.53461 18.1286C6.52486 18.6067 6.69009 19.0464 6.99987 19.3666C7.32999 19.7079 7.78366 19.8753 8.26488 19.8753C8.83842 19.8753 9.45094 19.6373 9.93863 19.1721C10.4221 18.7109 10.7064 18.1 10.7185 17.4963C10.728 17.0183 10.5627 16.5786 10.2531 16.2585C9.52964 15.5105 8.21154 15.598 7.31537 16.453ZM9.47479 18.6858C8.84413 19.2873 7.95065 19.3831 7.48286 18.8994C7.24658 18.6552 7.20214 18.3529 7.20642 18.1423C7.21516 17.7162 7.42373 17.2778 7.77895 16.9394C8.13889 16.596 8.58449 16.4175 8.98769 16.4175C9.2905 16.4175 9.56954 16.5183 9.77005 16.7257C10.0062 16.9698 10.0508 17.2722 10.0465 17.4828C10.038 17.9088 9.8296 18.3474 9.47479 18.6858Z" fill="#B1B9D8"/>
<path d="M8.66939 17.3081L8.12088 17.8306C7.98649 17.9585 7.98136 18.1713 8.10929 18.3056C8.17531 18.3749 8.26393 18.4098 8.35263 18.4098C8.43579 18.4098 8.5192 18.3791 8.5843 18.3171L9.13281 17.7946C9.2672 17.6667 9.27233 17.4539 9.1444 17.3196C9.01655 17.1855 8.80395 17.1801 8.66939 17.3081Z" fill="#B1B9D8"/>
</svg>
