<svg width="20" height="31" viewBox="0 0 20 31" fill="none" xmlns="http://www.w3.org/2000/svg">
<path d="M19.2258 0.418701H16.349C16.0613 0.418701 15.8056 0.578527 15.6457 0.802284L13.4721 4.22257C13.3762 4.38239 13.3123 4.60615 13.3442 4.79794L13.7278 7.51499C14.495 7.83464 15.1023 8.50591 15.2302 9.40094C15.3261 10.0402 15.1663 10.6795 14.7827 11.223C14.3991 11.7664 13.8557 12.086 13.2164 12.2139L11.0747 15.5383L11.682 16.9767C11.9697 17.616 11.9697 18.3192 11.682 18.9905C11.4263 19.6298 10.9149 20.1413 10.2756 20.397C9.95591 20.5248 9.6043 20.5888 9.25268 20.5888H9.18875L9.41251 23.6574C9.44447 24.073 9.15678 24.4566 8.74124 24.5205L7.71835 24.7443C7.59049 26.0548 6.4717 27.1097 5.0972 27.1097C4.9054 27.1097 4.71361 27.0777 4.55379 27.0458C3.81859 26.8859 3.24321 26.4065 2.85963 25.7991L1.2294 26.1507C0.909748 26.2147 0.654026 26.4704 0.590095 26.822L0.0147212 29.8267C-0.0811746 30.3382 0.302409 30.8177 0.845818 30.8177L11.1619 26.8177C14.7827 25.2477 16 22.5 16.993 17.9866L19.993 1.2498C20.0569 0.802284 19.6733 0.418701 19.2258 0.418701Z" fill="#B1B9D8"/>
<path d="M3.75467 19.7257L3.72271 24.4566C3.72271 25.1278 4.20219 25.7032 4.84149 25.863C4.93739 25.895 5.03328 25.895 5.16114 25.895C5.96027 25.895 6.59958 25.2557 6.59958 24.4885L6.63154 19.3102C6.63154 19.0225 6.56761 18.7668 6.40779 18.543L5.57669 17.2644L7.17495 16.657L7.94212 18.511C8.13391 18.9585 8.51749 19.2462 8.96501 19.3421C9.2527 19.4061 9.54038 19.3741 9.82807 19.2782C10.5633 18.9585 10.9149 18.1274 10.5952 17.4242L9.28466 14.3236C8.99697 13.6203 8.19784 13.2687 7.46264 13.5244L6.1201 14.0359L7.30282 10.8394L8.86911 11.5106C8.93304 11.5426 9.02894 11.5746 9.09287 11.5746C9.2527 11.6065 9.41252 11.6065 9.57235 11.5746L13.0246 10.9992C13.6959 10.9033 14.1753 10.232 14.0475 9.56076C13.9516 8.88949 13.2803 8.41001 12.609 8.53787L9.54038 9.04931C9.54038 9.04931 6.72744 7.83463 6.1201 7.54695C4.71363 6.93961 3.62681 7.00354 2.89161 8.63377C2.18837 10.1042 1.86872 11.7024 1.38924 13.8121C1.16549 14.7711 1.13352 15.5383 1.54907 16.2095C1.93265 16.8488 3.75467 19.7257 3.75467 19.7257Z" fill="#B1B9D8"/>
<path d="M7.27084 7.2273C8.86911 7.41909 10.3075 6.26834 10.4993 4.70205C10.6911 3.10378 9.54038 1.66535 7.97408 1.47356C6.37582 1.28176 4.93738 2.43251 4.74559 3.99881C4.5538 5.56511 5.67258 7.03551 7.27084 7.2273Z" fill="#B1B9D8"/>
</svg>
