<svg width="90" height="95" viewBox="0 0 90 95" fill="none" xmlns="http://www.w3.org/2000/svg">
<path d="M87.3573 35.8239C86.0573 31.6239 84.1573 27.7239 81.8573 24.1239C82.7573 22.4239 83.7573 20.8239 84.5573 19.1239C86.2573 15.4239 86.6573 11.7239 85.0573 7.92392C82.4573 1.82392 76.0573 -1.17609 69.2573 0.523914C65.3573 1.52391 62.1573 3.72391 59.3573 6.52391C59.0573 6.82391 58.7573 7.02392 58.3573 6.82392C49.3573 4.02392 40.4573 4.22392 31.4573 6.82392C31.1573 6.92392 30.7573 6.72391 30.4573 6.52391C29.2573 5.52391 28.1573 4.42391 26.8573 3.52391C23.0573 0.823914 18.8573 -0.576082 14.1573 0.223918C7.75726 1.32392 3.15726 7.52392 3.95726 14.0239C4.35726 17.4239 5.75727 20.5239 7.65727 23.3239C8.05727 23.8239 7.95727 24.1239 7.65727 24.6239C2.65727 32.4239 0.457267 41.1239 0.0572668 50.2239C-0.242733 56.8239 0.657267 63.3239 2.25727 69.7239C2.95727 72.5239 3.75727 75.2239 4.55727 77.9239C6.35727 74.7239 8.05727 71.7239 9.75727 68.6239C14.0573 75.9239 19.1573 82.3239 25.2573 87.9239C25.2573 86.7239 25.2573 85.5239 25.2573 84.2239C25.4573 84.3239 25.5573 84.4239 25.7573 84.4239C31.9573 87.8239 38.1573 91.2239 44.2573 94.6239C44.7573 94.9239 45.1573 95.0239 45.6573 94.7239C51.8573 91.3239 57.9573 87.9239 64.1573 84.5239C64.2573 84.4239 64.4573 84.4239 64.5573 84.3239C64.5573 84.9239 64.5573 85.5239 64.5573 86.0239C64.5573 86.6239 64.5573 87.2239 64.5573 87.8239C70.8573 82.3239 75.7573 75.8239 80.0573 68.5239C81.8573 71.7239 83.5573 74.6239 85.2573 77.6239C85.3573 77.5239 85.3573 77.4239 85.3573 77.4239C87.6573 70.3239 89.3573 63.0239 89.6573 55.5239C90.1573 48.9239 89.3573 42.2239 87.3573 35.8239ZM70.9573 5.72392C75.7573 4.62392 80.0573 7.62392 80.3573 12.4239C80.4573 13.6239 80.0573 14.9239 79.6573 16.0239C79.2573 17.0239 78.5573 18.0239 77.9573 19.0239C74.2573 14.8239 70.0573 11.7239 65.1573 9.32392C66.7573 7.52392 68.5573 6.22392 70.9573 5.72392ZM9.75727 10.8239C10.8573 6.92392 14.7573 4.72392 18.8573 5.62392C21.1573 6.12392 23.4573 7.62392 24.6573 9.42392C19.7573 11.7239 15.5573 14.8239 11.9573 18.9239C10.1573 16.5239 8.95727 14.0239 9.75727 10.8239ZM84.2573 57.6239C84.0573 60.3239 83.4573 62.9239 83.0573 65.6239C83.0573 65.8239 82.9573 66.0239 82.8573 66.3239C81.5573 64.3239 80.3573 62.3239 79.0573 60.2239C78.2573 61.4239 77.6573 62.6239 76.8573 63.8239C74.1573 67.8239 71.3573 71.8239 68.6573 75.8239C68.4573 76.1239 68.0573 76.4239 67.7573 76.6239C60.3573 80.6239 52.9573 84.6239 45.5573 88.6239C45.3573 88.7239 44.8573 88.7239 44.6573 88.6239C37.1573 84.6239 29.7573 80.6239 22.2573 76.6239C21.6573 76.3239 21.1573 75.7239 20.7573 75.1239C17.9573 71.0239 15.1573 66.9239 12.3573 62.9239C11.7573 62.1239 11.2573 61.2239 10.6573 60.3239C9.35727 62.3239 8.15726 64.3239 6.95726 66.2239C6.85726 66.2239 6.75727 66.2239 6.75727 66.2239C6.35727 63.7239 5.95727 61.3239 5.65727 58.8239C5.15727 54.1239 5.25726 49.4239 5.95726 44.7239C7.35726 35.8239 10.7573 27.9239 17.1573 21.4239C22.5573 15.9239 29.1573 12.5239 36.6573 11.1239C44.7573 9.52392 52.7573 10.1239 60.3573 13.3239C69.7573 17.2239 76.3573 23.9239 80.4573 33.2239C83.9573 40.9239 85.0573 49.1239 84.2573 57.6239Z" fill="#B1B9D8"/>
<path d="M61.5573 29.7239C59.7573 28.4239 57.7573 28.5239 56.0573 30.0239C54.8573 31.0239 53.9573 32.3239 53.0573 33.6239C52.6573 34.1239 52.3573 34.3239 51.6573 34.3239C50.4573 34.3239 49.1573 34.3239 47.7573 34.3239C48.0573 34.7239 48.2573 35.0239 48.4573 35.3239C51.1573 38.8239 53.6573 42.5239 55.5573 46.5239C57.2573 50.2239 58.5573 54.0239 58.2573 58.1239C57.9573 61.7239 56.6573 64.8238 53.8573 67.1238C49.3573 70.8238 44.3573 71.4237 39.0573 69.4237C34.5573 67.7237 31.7572 64.4239 30.8572 59.6239C30.1572 56.2239 30.7572 52.9239 31.9572 49.7239C33.6572 44.8239 36.4573 40.5239 39.5573 36.4239C40.0573 35.7239 40.6573 35.0239 41.1573 34.2239C39.7573 34.2239 38.4573 34.2239 37.2573 34.2239C36.5573 34.2239 36.2573 34.0239 35.8573 33.4239C35.0573 32.2239 34.1572 31.1239 33.1572 30.1239C31.3572 28.4239 29.1572 28.2239 27.2572 29.7239C26.0572 30.6239 24.9572 31.6239 23.9572 32.7239C22.1572 34.8239 22.2572 37.6239 24.1572 39.6239C25.1572 40.7239 26.4572 41.5239 27.9572 41.9239C28.4572 42.1239 28.6572 42.3239 28.6572 42.8239C28.6572 43.8239 28.7572 44.8239 28.6572 45.8239C28.2572 48.5239 27.6572 51.2239 27.2572 53.9239C26.4572 58.7239 27.2572 63.3238 30.3572 67.2238C34.9572 73.1238 41.1573 75.0237 48.2573 73.6237C54.4573 72.4237 58.8573 68.7239 61.0573 62.6239C62.3573 58.9239 62.1573 55.1239 61.2573 51.3239C60.5573 48.5239 60.0573 45.8239 60.2573 42.9239C60.3573 42.4239 60.5573 42.1239 60.9573 41.9239C61.9573 41.4239 63.0573 40.9239 64.0573 40.3239C66.6573 38.4239 67.1573 35.3239 65.1573 32.9239C64.0573 31.7239 62.8573 30.7239 61.5573 29.7239ZM29.9572 39.1239C28.6572 39.1239 27.4572 37.9239 27.4572 36.6239C27.4572 35.2239 28.6572 34.1239 29.9572 34.0239C31.3572 34.0239 32.4572 35.1239 32.4572 36.5239C32.5572 37.8239 31.3572 39.1239 29.9572 39.1239ZM58.9573 39.1239C57.6573 39.1239 56.4573 37.9239 56.4573 36.6239C56.4573 35.2239 57.5573 34.1239 58.9573 34.1239C60.3573 34.1239 61.4573 35.2239 61.4573 36.6239C61.4573 37.9239 60.2573 39.0239 58.9573 39.1239Z" fill="#B1B9D8"/>
<path d="M35.9136 56.2494C36.4136 57.0494 37.0136 57.7494 37.6136 58.5494C38.4136 59.5494 39.4136 59.8494 40.7136 59.5494C43.1136 58.9494 45.6136 58.8494 48.0136 59.4494C49.8136 59.9494 51.2136 59.3494 52.2136 57.8494C52.6136 57.3494 53.0136 56.8494 53.3136 56.3494C53.7136 55.4494 54.1136 54.5494 54.2136 53.6494C54.4136 51.4494 52.9136 49.5494 50.4136 48.8494L44.7136 48.0494C44.3136 48.0494 42.9136 48.1494 42.5136 48.1494C40.9136 48.4494 39.3136 48.6494 37.9136 49.2494C35.0136 50.5494 34.2136 53.6494 35.9136 56.2494ZM45.8136 55.5494C46.0136 54.4494 47.3136 53.5494 48.7136 53.5494C48.8136 53.5494 49.2136 53.6494 49.4136 53.7494C49.6136 53.8494 49.8136 54.1494 50.0136 54.3494C49.8136 54.5494 49.6136 54.6494 49.4136 54.8494C48.6136 55.3494 47.9136 55.9494 47.0136 56.4494C46.7136 56.6494 46.3136 56.6494 46.0136 56.6494C45.9136 56.3494 45.7136 55.9494 45.8136 55.5494ZM40.4136 53.6494C41.9136 53.3494 43.5136 54.5494 43.4136 56.0494C43.4136 56.2494 43.3136 56.6494 43.1136 56.7494C42.9136 56.8494 42.6136 56.7494 42.4136 56.6494C41.4136 55.9494 40.4136 55.2494 39.1136 54.3494C39.7136 53.9494 40.0136 53.6494 40.4136 53.6494Z" fill="#B1B9D8"/>
<path d="M41.0136 63.0494C40.8136 62.9494 40.5136 62.9494 40.2136 62.9494C40.2136 63.2494 40.1136 63.6494 40.3136 63.8494C41.2136 65.5494 42.7136 66.4493 44.8136 66.5493C46.7136 66.4493 48.2136 65.6494 49.1136 63.8494C49.2136 63.6494 49.1136 63.2494 49.2136 63.0494C48.9136 63.0494 48.6136 63.0494 48.4136 63.1494C45.8136 64.2494 43.4136 64.2494 41.0136 63.0494Z" fill="#B1B9D8"/>
</svg>
