<svg width="20" height="21" viewBox="0 0 20 21" fill="none" xmlns="http://www.w3.org/2000/svg">
<path d="M14.7141 0.207501L14.703 0.19268C14.703 0.19268 14.6918 0.185269 14.6881 0.181564C14.6548 0.148215 14.6177 0.118572 14.577 0.0963401C14.5659 0.0889293 14.5585 0.0852235 14.5473 0.0778127C14.451 0.0259374 14.3472 0 14.2361 0C14.225 0 14.2176 0 14.2064 0C14.1583 0 14.1101 0.011116 14.0619 0.0222321C14.0545 0.0222321 14.0508 0.0222321 14.0434 0.0222321H14.036C14.036 0.0222321 14.0249 0.0259377 14.0212 0.029643C13.973 0.04817 13.9285 0.0704024 13.8878 0.0963401C13.8804 0.100045 13.873 0.107456 13.8655 0.114867C13.8285 0.140804 13.7951 0.170447 13.7655 0.203796C13.7581 0.214912 13.747 0.222323 13.7396 0.233439C13.7062 0.274198 13.6766 0.318663 13.6506 0.366833C13.6284 0.418708 13.6136 0.466878 13.6062 0.518754C13.6062 0.526164 13.6025 0.533575 13.5988 0.53728C13.5951 0.566923 13.0504 3.63869 10.0082 6.82532C9.22641 7.64421 8.64466 8.47421 8.22225 9.29681C5.00968 7.79242 0.781836 8.37787 0.555808 8.40752C0.548397 8.40752 0.540986 8.41122 0.533576 8.41493C0.489111 8.42234 0.448352 8.43346 0.407592 8.45198C0.392771 8.45569 0.381655 8.4631 0.366833 8.4668C0.270493 8.51127 0.188975 8.58167 0.125983 8.6706C0.118572 8.67801 0.114867 8.68913 0.107456 8.69654C0.0815188 8.7373 0.0592864 8.78176 0.0407595 8.82993C0.0407595 8.83364 0.0370539 8.83734 0.0333485 8.84475C0.0333485 8.84475 0.029643 8.85957 0.0259376 8.86699C0.011116 8.91516 0.00370538 8.96703 0 9.0152C0 9.02261 0 9.03002 0 9.03743C0 9.0856 2.54677e-07 9.13377 0.0111164 9.17824C0.0111164 9.18935 0.0148213 9.20047 0.0185266 9.21159C0.0333482 9.26346 0.0481703 9.31534 0.074108 9.36351C0.100046 9.41168 0.133394 9.45244 0.170448 9.48949C0.174153 9.4932 0.177858 9.50061 0.181564 9.50802C0.196385 9.52284 1.74524 11.131 2.31216 14.2398C3.34967 19.9276 8.74841 20.2425 9.92673 20.2425C10.0268 20.2425 10.0935 20.2425 10.1305 20.2425C10.1453 20.2425 10.1602 20.2462 10.175 20.2462C10.2269 20.2462 10.275 20.2388 10.3269 20.2277C10.3306 20.2277 10.338 20.2277 10.3417 20.2277C15.6515 18.8308 18.8048 16.4519 19.7238 13.1541C21.3727 7.22179 15.118 0.62621 14.7178 0.211207L14.7141 0.207501ZM3.59422 14.0138C3.33114 12.565 2.87538 11.4126 2.43073 10.5455C4.62432 11.7238 8.03327 14.2435 9.2931 18.9382C7.73314 18.8196 4.33901 18.086 3.59422 14.0175V14.0138ZM10.1602 17.3671C8.65207 13.206 5.63218 10.8308 3.43489 9.59324C5.46915 9.66735 8.13332 10.1268 9.53025 11.8832C10.5492 13.1652 10.7567 15.0031 10.1639 17.3671H10.1602ZM10.5418 11.0754C10.1935 10.6382 9.78963 10.2676 9.34498 9.95266C9.71922 9.21159 10.2417 8.4668 10.9457 7.72573C12.602 5.99161 13.5765 4.29825 14.1397 3.01248C14.6511 5.94714 14.9438 11.4385 11.6349 16.6372C12.0203 14.3435 11.6571 12.4797 10.5381 11.0754H10.5418ZM18.475 12.8095C17.8081 15.2106 15.6441 17.0707 12.0388 18.3528C16.1481 12.7354 16.0147 6.60299 15.4774 3.1644C17.1856 5.48397 19.431 9.37833 18.475 12.8095Z" fill="#B1B9D8"/>
</svg>
