<svg width="20" height="21" viewBox="0 0 20 21" fill="none" xmlns="http://www.w3.org/2000/svg">
<path d="M19.5506 11.6784H15.1772C15.1259 10.8188 14.9329 10.0105 14.6252 9.28055C16.4379 8.58081 17.6414 6.84955 17.6414 4.88604V4.21947C17.6414 3.96914 17.4393 3.76705 17.189 3.76705C16.9386 3.76705 16.7365 3.96914 16.7365 4.21947V4.88604C16.7365 6.50269 15.7261 7.92631 14.215 8.46921C14.019 8.14045 13.7988 7.83281 13.5545 7.55532C13.4912 6.22822 12.7251 5.08511 11.6182 4.48791V2.78983C11.6182 2.2047 11.9318 1.65274 12.4355 1.35113L13.2921 0.841402C13.5063 0.714725 13.5756 0.434224 13.449 0.220078C13.3223 0.00593221 13.0418 -0.0634388 12.8276 0.063239L11.971 0.572966C11.1959 1.03745 10.7133 1.88499 10.7133 2.78681V4.14709C10.4449 4.08375 10.1644 4.04755 9.87483 4.04755C9.67577 4.04755 9.47972 4.06867 9.28668 4.09883V2.78681C9.28668 1.88197 8.8041 1.03443 8.02895 0.572966L7.17237 0.063239C6.95823 -0.0634388 6.68074 0.00593221 6.55105 0.220078C6.42437 0.434224 6.49374 0.711709 6.70789 0.841402L7.56447 1.35113C8.06816 1.65274 8.38184 2.20168 8.38184 2.78983V4.36727C7.09094 4.94033 6.18609 6.23425 6.18609 7.73629C6.18609 7.75137 6.18911 7.76645 6.19213 7.78153C6.02021 7.99869 5.86035 8.23395 5.71256 8.47826C4.18036 7.9444 3.16091 6.51777 3.16091 4.88302V4.21646C3.16091 3.96612 2.95883 3.76404 2.70849 3.76404C2.45815 3.76404 2.25607 3.96612 2.25607 4.21646V4.88302C2.25607 6.86463 3.47157 8.60192 5.30538 9.2896C5.00075 10.0165 4.81074 10.8218 4.75946 11.6754H0.45242C0.202081 11.6754 0 11.8774 0 12.1278C0 12.3781 0.202081 12.5802 0.45242 12.5802H4.76248C4.81979 13.5604 5.06409 14.4804 5.45317 15.2857C3.53793 15.9372 2.25909 17.7107 2.25909 19.7465V20.4131C2.25909 20.6634 2.46117 20.8655 2.71151 20.8655C2.96185 20.8655 3.16393 20.6634 3.16393 20.4131V19.7465C3.16393 18.0696 4.23767 16.6098 5.83622 16.1091C5.86035 16.1031 5.88147 16.091 5.90258 16.0819C6.86171 17.5146 8.32755 18.4345 9.96833 18.4345C11.6061 18.4345 13.0689 17.5176 14.028 16.091C14.0522 16.1031 14.0763 16.1151 14.1035 16.1242C15.6779 16.6339 16.7335 18.0907 16.7335 19.7465V20.4131C16.7335 20.6634 16.9356 20.8655 17.1859 20.8655C17.4363 20.8655 17.6384 20.6634 17.6384 20.4131V19.7465C17.6384 17.7318 16.3716 15.9583 14.4775 15.2977C14.8696 14.4894 15.1169 13.5665 15.1742 12.5802H19.5476C19.7979 12.5802 20 12.3781 20 12.1278C20 11.8774 19.8009 11.6784 19.5506 11.6784ZM9.87785 4.9524C10.9848 4.9524 11.9439 5.6069 12.3903 6.54492C11.6664 6.08646 10.843 5.82406 9.97135 5.82406C8.98809 5.82406 8.0742 6.15885 7.28699 6.7289C7.68813 5.69135 8.69552 4.9524 9.87785 4.9524Z" fill="#B1B9D8"/>
</svg>
