<svg width="20" height="23" viewBox="0 0 20 23" fill="none" xmlns="http://www.w3.org/2000/svg">
<path d="M0.000406484 10.1581C-0.0102319 10.4161 0.189238 10.6315 0.44722 10.6421C0.452539 10.6421 0.460518 10.6421 0.465837 10.6421C0.71318 10.6421 0.920629 10.4453 0.931267 10.1953C0.949884 9.74585 1.43127 9.48521 1.77702 9.35755C2.75043 11.2485 4.38875 11.9613 6.20526 12.2166C5.89408 12.6714 5.6228 13.2672 5.81961 13.7991C5.88876 13.9879 6.06696 14.1023 6.25579 14.1023C6.30898 14.1023 6.36483 14.0916 6.41803 14.073C6.66005 13.9853 6.78239 13.7166 6.69462 13.4746C6.6175 13.2645 6.93931 12.7299 7.31431 12.3203C8.12283 12.3656 8.94465 12.3523 9.74253 12.339C10.2691 12.331 10.7771 12.3203 11.2585 12.3283C11.1149 12.7725 11.0457 13.3629 11.3862 13.8895C11.4739 14.0278 11.6255 14.1023 11.7771 14.1023C11.8649 14.1023 11.9527 14.0783 12.0298 14.0278C12.2452 13.8895 12.3064 13.5996 12.1681 13.3842C11.9713 13.0783 12.1096 12.6501 12.2319 12.3895C12.8303 12.4586 13.3064 12.5783 13.6734 12.7512C14.2506 13.0172 14.7532 13.5198 15.0192 14.097C15.2452 14.714 14.9899 15.3044 14.6522 15.7619C14.3197 15.5464 13.841 15.3869 13.2479 15.5039C12.9952 15.5518 12.8303 15.7964 12.8809 16.0491C12.9287 16.3018 13.1734 16.4667 13.4261 16.4161C13.6548 16.3709 13.8383 16.4028 13.9793 16.4587C13.1575 17.1262 12.2319 17.4427 11.3463 17.5571C11.1867 17.23 10.8675 16.7938 10.2319 16.5704C9.98987 16.4853 9.72391 16.6129 9.6388 16.855C9.5537 17.097 9.68136 17.363 9.92338 17.4481C10.0431 17.4906 10.1361 17.5465 10.2159 17.6076C9.87019 17.5943 9.5404 17.5624 9.24252 17.5145C9.17337 17.5039 9.0989 17.4986 9.01646 17.4986C8.46326 17.4986 7.96059 17.8204 7.73719 18.3178C7.57495 18.6768 7.57495 19.0917 7.73719 19.4507C7.89942 19.8124 8.20794 20.089 8.5856 20.2114C9.60955 20.5412 10.6282 20.7034 11.6122 20.7034C11.7612 20.7034 11.9101 20.6954 12.059 20.6875C12.192 20.8683 12.3543 21.1875 12.1495 21.4641C11.9979 21.6715 12.0404 21.9614 12.2479 22.1157C12.3303 22.1768 12.4287 22.2061 12.5245 22.2061C12.6681 22.2061 12.809 22.1396 12.8995 22.0173C13.2665 21.5226 13.2266 21.0013 13.0537 20.5784C14.224 20.3789 15.3277 19.9374 16.3171 19.2539C17.5325 18.4055 18.3862 17.3044 18.8118 16.0837C18.9368 16.2007 19.0432 16.3443 19.0751 16.5066C19.115 16.73 19.3118 16.8869 19.5325 16.8869C19.5591 16.8869 19.5884 16.8869 19.6176 16.8789C19.8703 16.8337 20.0378 16.589 19.9926 16.3363C19.8783 15.7087 19.3995 15.3097 19.0591 15.0996C19.1096 14.7592 19.1336 14.4135 19.1176 14.065C19.0325 11.9719 17.7905 10.0756 15.6974 8.85223C15.466 8.72457 15.2319 8.61286 15.0006 8.51446C15.0564 8.37616 15.1309 8.24318 15.2266 8.17669C15.2665 8.14743 15.3171 8.12349 15.4181 8.14477C15.6708 8.19264 15.9128 8.02509 15.9607 7.77243C16.0085 7.51977 15.841 7.27774 15.5883 7.22987C15.2585 7.1687 14.9447 7.23519 14.6841 7.42136C14.4021 7.62083 14.2293 7.92934 14.1256 8.1953C12.6548 7.74583 11.1521 7.69796 9.68136 7.67402C9.78242 7.46391 9.942 7.25381 10.184 7.19795C10.434 7.13944 10.5883 6.88678 10.5298 6.63678C10.4713 6.38678 10.2186 6.23252 9.96859 6.29103C9.18135 6.4772 8.8356 7.18997 8.68933 7.65541C8.62549 7.65541 8.559 7.65275 8.49517 7.65009C7.8223 7.63679 7.21591 7.62349 6.6893 7.48785C6.90739 7.307 7.20527 7.1554 7.56431 7.22987C7.81698 7.2804 8.06166 7.11817 8.11219 6.8655C8.16272 6.61284 8.00049 6.36816 7.74783 6.31763C6.92867 6.15273 6.3143 6.54901 5.93664 6.9187C5.90472 6.80699 5.87547 6.68465 5.85153 6.57029L5.84089 6.52507C5.73451 5.98518 5.83557 5.49315 6.13877 5.06229C6.18664 4.99314 6.24515 4.92665 6.30366 4.86282C6.63079 5.11815 6.90473 5.40006 6.92867 5.52506C6.94995 5.76709 7.15208 5.9506 7.39144 5.9506C7.40474 5.9506 7.41804 5.9506 7.43133 5.9506C7.68666 5.92932 7.87815 5.70326 7.85687 5.44794C7.81964 5.01176 7.42601 4.58357 7.05899 4.27239C7.51112 4.01707 8.05368 3.82824 8.64677 3.74047C9.28508 3.64473 9.83561 3.21387 10.083 2.6128C10.3064 2.07024 10.2665 1.46651 9.96859 0.958528C9.67604 0.458523 9.18401 0.128732 8.6122 0.0569229C6.48452 -0.211697 4.35418 0.482459 2.89139 1.88407C2.4632 1.72183 1.68127 1.51704 0.899352 1.80694C0.657328 1.89737 0.534987 2.16333 0.625413 2.40535C0.715839 2.64738 0.984459 2.76972 1.22382 2.67929C1.56425 2.55163 1.9233 2.58089 2.21054 2.64738C1.01637 4.23782 0.71052 6.23518 1.35148 8.32031C1.3701 8.37882 1.39138 8.43467 1.41 8.49052C0.761052 8.74052 0.0376409 9.26181 0.000406484 10.1554V10.1581Z" fill="#B1B9D8"/>
</svg>
