<svg width="73" height="96" viewBox="0 0 73 96" fill="none" xmlns="http://www.w3.org/2000/svg">
<path d="M51.0157 66.2345C49.5157 65.8345 48.1157 65.3345 46.6157 64.8345C45.4157 64.3345 44.8157 63.4345 44.7157 62.1345C44.7157 61.0345 44.6157 59.9345 44.6157 58.8345C44.5157 56.6345 44.3157 54.5345 43.5157 52.5345C43.1157 51.6345 42.5157 51.0345 41.5157 50.8345C40.9157 50.7345 40.3157 50.6345 39.7157 50.6345C37.3157 50.4345 34.9157 49.9345 32.7157 48.9345C31.0157 48.1345 29.5157 47.0345 28.2157 45.6345C28.4157 45.6345 28.5157 45.7345 28.6157 45.8345C29.9157 46.4345 31.2157 47.0345 32.4157 47.6345C33.1157 47.9345 33.8157 48.0345 34.5157 47.6345C35.9157 46.8345 37.2157 46.0345 38.6157 45.2345C39.0157 45.0345 39.3157 44.9345 39.6157 45.3345C39.9157 45.8345 39.5157 46.0345 39.2157 46.1345C38.5157 46.5345 37.8157 46.8345 37.0157 47.1345C36.3157 47.4345 35.6157 47.8345 34.8157 48.1345C36.5157 48.6345 38.0157 48.7345 39.0157 47.1345C39.2157 46.8345 39.5157 46.6345 39.7157 46.4345C39.8157 46.3345 40.1157 46.3345 40.2157 46.4345C40.3157 46.6345 40.4157 46.8345 40.3157 47.0345C40.1157 47.3345 39.9157 47.5345 39.6157 47.7345C39.3157 47.9345 39.0157 48.1345 38.8157 48.4345C38.8157 48.5345 38.8157 48.5345 38.9157 48.6345C39.2157 48.6345 39.4157 48.7345 39.7157 48.6345C41.0157 48.2345 42.3157 47.7345 43.5157 47.3345C45.0157 46.8345 45.7157 44.6345 44.3157 43.4345C43.7157 42.9345 43.3157 42.4345 42.8157 41.8345C43.6157 42.0345 44.4157 42.4345 45.2157 42.5345C46.1157 42.7345 46.7157 41.8345 47.4157 41.5345C47.2157 42.0345 47.0157 42.4345 46.7157 42.9345C46.1157 43.8345 45.7157 44.8345 45.5157 45.8345C45.4157 46.3345 45.6157 46.8345 46.1157 46.9345C46.8157 47.0345 47.1157 47.5345 47.5157 48.0345C47.9157 48.6345 48.4157 49.3345 48.8157 49.9345C48.8157 49.9345 48.9157 49.9345 48.9157 49.8345C48.4157 48.7345 47.9157 47.7345 47.4157 46.6345C47.5157 46.5345 47.5157 46.5345 47.6157 46.4345C48.8157 47.5345 50.0157 48.5345 51.2157 49.6345L51.3157 49.5345C50.4157 48.3345 49.5157 47.2345 48.5157 46.0345L48.6157 45.9345C50.2157 46.8345 51.7157 47.8345 53.3157 48.7345L53.4157 48.6345C52.0157 47.5345 50.6157 46.4345 49.2157 45.3345L49.3157 45.2345C51.0157 45.8345 52.8157 46.5345 54.5157 47.1345V47.0345C52.8157 46.2345 51.1157 45.3345 49.4157 44.5345C49.4157 44.4345 49.4157 44.4345 49.5157 44.3345C51.4157 44.7345 53.4157 45.0345 55.3157 45.4345V45.3345C53.4157 44.7345 51.6157 44.2345 49.7157 43.6345C49.7157 43.5345 49.7157 43.5345 49.7157 43.4345C51.7157 43.4345 53.6157 43.4345 55.6157 43.4345C55.6157 43.3345 55.6157 43.3345 55.6157 43.2345C53.6157 43.0345 51.6157 42.8345 49.6157 42.7345C49.6157 42.6345 49.6157 42.6345 49.6157 42.5345C51.6157 42.0345 53.5157 41.6345 55.5157 41.1345V41.0345C53.5157 41.3345 51.5157 41.5345 49.5157 41.8345C49.5157 41.7345 49.5157 41.6345 49.4157 41.6345C50.8157 40.9345 52.2157 40.2345 53.6157 39.5345V39.4345C52.1157 39.9345 50.6157 40.4345 49.0157 41.0345C48.2157 39.4345 47.4157 37.9345 46.8157 36.3345C46.3157 35.0345 46.1157 33.6345 45.7157 32.3345C45.5157 31.6345 45.3157 30.7345 44.8157 30.2345C42.6157 27.8345 39.9157 26.5345 36.7157 26.1345C35.7157 26.0345 34.6157 25.9345 33.4157 25.8345C35.4157 25.1345 37.3157 25.1345 39.2157 25.5345C39.3157 25.3345 39.3157 25.2345 39.4157 25.0345C40.6157 19.9345 41.7157 14.7345 41.9157 9.53452C42.0157 7.03452 42.0157 4.53452 41.2157 2.13452C40.9157 1.13452 40.4157 0.234521 39.2157 0.0345211C38.1157 -0.165479 37.3157 0.534521 36.7157 1.33452C35.5157 2.83452 35.0157 4.53452 34.8157 6.33452C34.6157 8.43452 34.5157 10.5345 34.2157 12.6345C33.8157 15.4345 33.3157 18.3345 32.9157 21.1345C32.8157 21.9345 32.7157 22.8345 32.5157 23.8345C32.4157 23.6345 32.4157 23.5345 32.4157 23.4345C31.5157 20.5345 30.3157 17.9345 28.8157 15.3345C26.7157 11.4345 24.1157 7.93452 20.7157 5.03452C19.0157 3.63452 17.1157 2.43452 14.9157 1.93452C12.6157 1.43452 11.2157 2.83452 11.6157 5.13452C11.6157 5.33452 11.7157 5.53452 11.7157 5.63452C12.6157 9.13452 13.4157 12.6345 14.3157 16.1345C14.8157 17.9345 15.2157 19.8345 16.2157 21.4345C17.7157 23.9345 19.7157 25.8345 22.2157 27.1345C23.4157 27.8345 24.6157 28.6345 25.6157 29.5345C26.7157 30.5345 26.7157 31.4345 26.0157 32.6345C25.9157 32.8345 25.8157 33.0345 25.6157 33.2345C23.8157 37.0345 22.9157 40.8345 24.5157 44.9345C24.5157 45.0345 24.5157 45.0345 24.6157 45.1345C24.7157 45.5345 24.6157 45.8345 24.2157 46.0345C23.3157 46.3345 22.5157 46.6345 21.6157 47.0345C14.2157 50.1345 8.41569 54.9345 4.41569 61.9345C0.615687 68.6345 -0.884314 75.7345 0.515686 83.3345C1.21569 86.7345 2.41569 89.9345 4.91569 92.4345C5.21569 92.7345 5.51569 93.1345 5.71569 93.4345C6.01569 93.9345 6.41569 94.1345 7.01569 94.3345C10.7157 95.3345 14.6157 95.4345 18.4157 95.3345C19.8157 95.3345 21.1157 95.3345 22.5157 95.5345C23.5157 95.7345 24.5157 95.5345 25.5157 95.3345C26.3157 95.1345 26.5157 94.5345 26.1157 93.8345C25.8157 93.3345 25.4157 92.9345 25.0157 92.5345C24.3157 91.9345 23.6157 91.3345 22.8157 90.7345C24.5157 90.9345 26.4157 92.9345 26.5157 94.4345C26.5157 94.7345 26.6157 95.0345 26.8157 95.1345C27.2157 95.4345 28.5157 95.3345 28.8157 95.0345C29.2157 94.6345 29.3157 93.9345 28.9157 93.2345C27.7157 91.4345 26.2157 89.9345 24.1157 89.2345C22.3157 88.7345 20.5157 89.0345 18.7157 89.5345C18.0157 89.7345 17.3157 89.9345 16.6157 90.2345C16.8157 90.0345 17.0157 89.8345 17.2157 89.7345C18.9157 88.5345 20.6157 87.2345 21.7157 85.4345C23.6157 82.5345 24.1157 79.4345 22.4157 76.2345C21.7157 74.9345 20.8157 73.7345 20.1157 72.5345C19.9157 72.3345 19.8157 72.0345 19.6157 71.8345C22.3157 73.8345 24.2157 76.3345 24.4157 79.7345C24.5157 83.1345 23.2157 85.9345 20.7157 88.3345C22.4157 88.1345 24.0157 88.0345 25.5157 88.7345C26.2157 89.0345 26.5157 88.8345 26.8157 88.3345C27.1157 87.8345 27.4157 87.3345 27.8157 86.7345C27.9157 87.0345 27.9157 87.1345 28.0157 87.4345C29.2157 86.5345 29.7157 85.3345 30.1157 83.9345C30.4157 84.6345 30.6157 85.2345 30.9157 85.9345C31.1157 85.6345 31.3157 85.4345 31.6157 85.1345C32.0157 86.2345 32.4157 87.3345 32.7157 88.3345C32.9157 88.2345 33.0157 88.1345 33.3157 87.9345C33.6157 88.6345 33.8157 89.3345 34.0157 90.0345C34.3157 91.0345 34.7157 92.1345 35.4157 92.9345C35.7157 93.2345 36.0157 93.5345 36.3157 93.7345C36.7157 94.1345 37.1157 94.6345 37.7157 94.8345C38.5157 95.1345 39.4157 95.4345 40.3157 95.5345C41.4157 95.7345 42.1157 94.8345 41.7157 93.8345C41.6157 93.4345 41.3157 93.0345 41.1157 92.7345C40.6157 92.1345 40.0157 91.5345 39.5157 90.8345C40.8157 91.5345 41.8157 92.3345 42.2157 93.8345C42.3157 94.1345 42.4157 94.4345 42.6157 94.5345C43.1157 94.8345 43.7157 95.0345 44.3157 95.2345C44.7157 95.4345 45.0157 95.2345 45.1157 94.7345C45.3157 93.9345 45.1157 93.2345 44.6157 92.6345C44.1157 92.0345 43.5157 91.4345 43.0157 90.8345C43.2157 90.9345 43.4157 91.0345 43.6157 91.1345C44.6157 91.7345 45.1157 92.6345 45.5157 93.6345C45.6157 93.8345 45.8157 94.0345 45.9157 94.0345C46.1157 93.9345 46.4157 93.8345 46.5157 93.6345C46.8157 93.0345 46.7157 92.5345 46.3157 92.0345C45.4157 90.6345 44.3157 89.4345 42.5157 89.0345C42.0157 88.9345 41.5157 88.7345 41.1157 88.6345C40.2157 88.3345 39.6157 87.8345 39.4157 86.8345C39.0157 85.2345 38.9157 83.7345 39.0157 82.1345C39.1157 79.7345 39.1157 77.3345 39.1157 74.9345C39.1157 74.4345 39.0157 73.8345 39.0157 73.3345C39.0157 72.7345 39.4157 72.3345 39.9157 72.3345C40.2157 72.3345 40.4157 72.3345 40.7157 72.4345C41.1157 72.5345 41.4157 72.4345 41.6157 72.1345C41.9157 71.8345 42.3157 71.5345 42.7157 71.4345C43.4157 71.3345 44.1157 71.4345 44.8157 71.3345C45.2157 71.3345 45.7157 71.4345 46.0157 71.2345C46.7157 70.8345 47.3157 70.9345 47.9157 71.5345C48.2157 71.8345 48.5157 72.1345 48.8157 72.4345C49.3157 72.8345 49.7157 73.3345 50.2157 73.7345C51.1157 74.4345 52.1157 74.1345 53.1157 74.1345C53.8157 74.1345 54.2157 73.8345 54.5157 73.2345C54.6157 73.0345 54.7157 72.8345 54.9157 72.8345C55.9157 72.5345 56.0157 72.3345 55.9157 71.3345C55.8157 69.2345 53.6157 66.9345 51.0157 66.2345ZM39.1157 43.6345C39.2157 44.0345 39.0157 44.2345 38.6157 44.3345C36.7157 44.8345 34.7157 45.2345 32.8157 45.7345V45.6345C33.4157 45.4345 33.9157 45.1345 34.5157 44.9345C35.7157 44.4345 36.8157 44.0345 38.0157 43.5345C38.2157 43.4345 38.3157 43.4345 38.5157 43.4345C38.7157 43.3345 39.0157 43.2345 39.1157 43.6345ZM38.6157 42.5345C38.6157 43.0345 38.2157 43.0345 37.8157 42.9345C36.1157 42.7345 34.4157 42.5345 32.7157 42.2345V42.1345C32.9157 42.1345 33.0157 42.1345 33.2157 42.1345C34.8157 42.1345 36.3157 42.0345 37.9157 42.0345C38.2157 42.0345 38.6157 42.0345 38.6157 42.5345ZM32.7157 31.8345C34.1157 31.8345 35.2157 32.3345 35.9157 33.5345C36.9157 34.9345 37.2157 36.6345 37.6157 38.3345C37.1157 38.2345 36.6157 38.1345 36.2157 38.0345C35.5157 37.9345 34.8157 37.7345 34.1157 37.6345C32.7157 37.3345 31.4157 36.0345 31.2157 34.5345C31.1157 34.1345 31.2157 33.6345 31.1157 33.2345C31.0157 32.8345 30.7157 32.4345 30.5157 31.9345C31.2157 31.9345 32.0157 31.8345 32.7157 31.8345ZM21.9157 20.4345C22.3157 21.1345 22.7157 21.7345 23.2157 22.3345C23.7157 22.9345 24.3157 23.3345 24.9157 23.9345L25.0157 23.8345C24.7157 23.0345 24.5157 22.3345 24.3157 21.5345C24.0157 20.2345 23.7157 18.9345 23.4157 17.6345C22.8157 14.8345 21.4157 12.4345 20.0157 9.93452C19.8157 9.63452 19.7157 9.33452 19.5157 9.03452C21.8157 11.2345 23.3157 13.9345 24.1157 16.9345C24.5157 18.3345 24.8157 19.7345 25.2157 21.1345C25.7157 23.1345 26.5157 24.9345 27.7157 26.6345C24.6157 26.1345 22.5157 23.6345 21.9157 20.4345Z" fill="#B1B9D8"/>
<path d="M72.1314 57.3345C69.5314 56.9345 66.9314 56.6345 64.3314 56.8345C61.4314 57.0345 59.0314 58.2345 57.4314 60.8345C56.7314 61.9345 55.8314 62.9345 55.0314 64.0345C54.9314 63.7345 54.9314 63.4345 55.1314 63.2345C55.4314 62.6345 55.7314 62.1345 56.1314 61.6345C56.8314 60.6345 57.4314 59.5345 57.6314 58.2345C57.7314 57.4345 57.8314 56.5345 57.9314 55.7345C58.2314 52.9345 57.2314 50.5345 55.6314 48.2345C55.4314 48.0345 55.3314 47.8345 55.1314 47.5345C53.5314 49.6345 52.9314 52.0345 52.5314 54.5345C51.5314 53.1345 50.5314 52.4345 49.3314 52.2345C49.0314 54.8345 49.7314 57.2345 51.2314 59.3345C51.9314 60.2345 52.6314 61.1345 53.2314 62.1345C54.1314 63.4345 54.2314 64.8345 53.2314 66.2345C53.2314 66.2345 53.2314 66.3345 53.2314 66.4345C53.6314 66.7345 54.0314 67.0345 54.5314 67.3345C54.7314 66.7345 54.9314 66.1345 55.1314 65.5345C55.7314 64.2345 56.7314 63.7345 58.1314 63.8345C59.4314 63.9345 60.6314 64.1345 61.9314 64.0345C65.3314 63.7345 68.3314 62.5345 70.7314 59.9345C71.4314 59.2345 71.9314 58.4345 72.6314 57.5345C72.3314 57.4345 72.2314 57.3345 72.1314 57.3345ZM51.4314 55.7345C51.9314 56.6345 52.3314 57.5345 52.8314 58.5345C52.0314 58.0345 51.4314 56.8345 51.4314 55.7345ZM54.5314 61.5345C54.6314 58.5345 54.7314 55.4345 54.8314 52.4345C54.9314 52.4345 54.9314 52.4345 55.0314 52.4345C55.1314 52.7345 55.2314 53.0345 55.2314 53.3345C55.4314 56.1345 55.2314 58.8345 54.6314 61.5345C54.6314 61.5345 54.6314 61.5345 54.5314 61.5345ZM57.9314 62.2345C59.0314 61.4345 60.2314 60.9345 61.5314 60.7345C63.6314 60.3345 65.7314 60.0345 68.0314 59.6345C64.8314 61.3345 61.3314 61.4345 57.9314 62.2345Z" fill="#B1B9D8"/>
<path d="M62.8314 54.1345C61.9314 55.0345 61.1314 56.0345 60.5314 57.1345C62.0314 56.6345 63.4314 56.0345 64.9314 55.6345C66.9314 55.0345 68.2314 53.8345 68.9314 52.0345C69.3314 51.1345 69.4314 50.1345 69.7314 49.2345C69.8314 48.9345 69.7314 48.5345 69.7314 48.0345C68.5314 48.4345 67.5314 48.8345 66.4314 49.1345C66.3314 48.2345 66.2314 47.3345 66.1314 46.3345C66.1314 46.0345 66.0314 45.7345 65.6314 45.9345C62.9314 46.7345 60.7314 48.1345 59.4314 50.7345C58.3314 53.0345 58.4314 55.5345 58.6314 58.0345C59.9314 56.5345 61.2314 55.1345 62.8314 54.1345ZM66.5314 51.8345C66.5314 51.9345 66.6314 52.0345 66.6314 52.1345C65.9314 52.3345 65.2314 52.5345 64.6314 52.7345C64.6314 52.6345 64.6314 52.6345 64.5314 52.5345C65.2314 52.2345 65.9314 52.0345 66.5314 51.8345ZM63.3314 50.2345C62.0314 51.6345 61.9314 53.7345 60.5314 55.0345C61.1314 53.2345 61.7314 51.4345 63.3314 50.2345Z" fill="#B1B9D8"/>
<path d="M31.6314 90.9345C30.9314 90.1345 30.1314 89.5345 29.1314 89.1345C28.0314 88.7345 27.9314 88.7345 27.1314 89.6345C26.9314 89.9345 26.9314 90.0345 27.1314 90.3345C27.8314 91.2345 28.6314 92.2345 29.2314 93.2345C29.5314 93.7345 29.7314 93.9345 30.3314 93.8345C30.5314 93.8345 30.7314 93.8345 30.9314 93.8345C32.1314 93.6345 32.5314 92.9345 32.0314 91.7345C32.0314 91.5345 31.8314 91.2345 31.6314 90.9345Z" fill="#B1B9D8"/>
<path d="M48.7314 75.8345C48.1314 76.8345 47.5314 77.9345 46.9314 78.9345C46.6314 79.3345 46.7314 79.8345 47.2314 80.1345C47.7314 80.4345 48.0314 80.1345 48.3314 79.7345C49.2314 78.2345 50.1314 76.7345 51.0314 75.1345C50.5314 74.9345 50.1314 74.7345 49.6314 74.4345C49.2314 75.0345 49.0314 75.4345 48.7314 75.8345Z" fill="#B1B9D8"/>
<path d="M43.1314 48.4345C42.9314 48.5345 42.8314 48.8345 42.7314 49.1345C42.9314 49.2345 43.2314 49.5345 43.4314 49.4345C43.9314 49.2345 44.4314 48.9345 45.0314 48.7345C44.7314 48.3345 44.5314 48.0345 44.3314 47.7345C43.9314 47.9345 43.5314 48.1345 43.1314 48.4345Z" fill="#B1B9D8"/>
<path d="M46.2314 31.9345C46.4314 33.0345 46.5314 34.1345 46.7314 35.4345C47.7314 34.3345 47.3314 32.3345 46.2314 31.9345Z" fill="#B1B9D8"/>
<path d="M32.4314 32.8345C33.2314 32.7345 33.7314 33.1345 33.8314 33.8345C33.9314 34.7345 33.1314 35.2345 32.0314 34.8345C32.2314 35.7345 32.6314 36.5345 33.5314 36.8345C34.5314 37.1345 35.5314 37.3345 36.5314 37.5345C36.3314 36.8345 36.1314 36.2345 36.0314 35.5345C35.7314 34.0345 34.8314 33.0345 33.4314 32.6345C32.9314 32.5345 32.4314 32.6345 31.9314 32.6345C31.9314 32.7345 31.9314 32.8345 31.9314 32.9345C32.1314 32.8345 32.3314 32.8345 32.4314 32.8345Z" fill="#B1B9D8"/>
</svg>
