<svg width="28" height="18" viewBox="0 0 28 18" fill="none" xmlns="http://www.w3.org/2000/svg">
<path fill-rule="evenodd" clip-rule="evenodd" d="M5 18H27C27.552 18 28 17.552 28 17C28 16.448 27.552 16 27 16H5C4.448 16 4 16.448 4 17C4 17.552 4.448 18 5 18ZM5 10H27C27.552 10 28 9.552 28 9C28 8.448 27.552 8 27 8H5C4.448 8 4 8.448 4 9C4 9.552 4.448 10 5 10ZM5 2H27C27.552 2 28 1.552 28 1C28 0.448 27.552 0 27 0H5C4.448 0 4 0.448 4 1C4 1.552 4.448 2 5 2Z" fill="#B1B9D8"/>
<path fill-rule="evenodd" clip-rule="evenodd" d="M1 18C1.552 18 2 17.552 2 17C2 16.448 1.552 16 1 16C0.448 16 0 16.448 0 17C0 17.552 0.448 18 1 18ZM1 10C1.552 10 2 9.552 2 9C2 8.448 1.552 8 1 8C0.448 8 0 8.448 0 9C0 9.552 0.448 10 1 10ZM1 2C1.552 2 2 1.552 2 1C2 0.448 1.552 0 1 0C0.448 0 0 0.448 0 1C0 1.552 0.448 2 1 2Z" fill="#B1B9D8"/>
</svg>
