<svg width="20" height="19" viewBox="0 0 20 19" fill="none" xmlns="http://www.w3.org/2000/svg">
<path d="M7.84803 0.0654297C7.79493 0.0456543 7.74037 0.0301514 7.68385 0.0192871C7.61793 0.00646973 7.54945 0 7.47792 0C7.16834 0 6.80799 0.120117 6.40077 0.355469C5.34608 0.970703 4.62831 1.9502 4.37831 3.11328C4.11854 4.32617 4.39295 5.58105 5.1537 6.65027C5.73084 7.45984 6.35096 7.78796 7.10877 7.68054C7.9037 7.56531 8.45838 7.06824 8.80409 6.1532C9.06678 5.46082 9.08436 4.70105 9.09901 4.03308V3.99792C9.09901 2.86804 8.98182 2.01257 8.72889 1.23315C8.52381 0.600342 8.22889 0.207764 7.84901 0.0632324L7.84803 0.0654297Z" fill="#B1B9D8"/>
<path d="M12.856 7.68274C13.4214 7.75793 14.0005 7.54309 14.4761 7.07727C15.4282 6.1427 15.8589 4.75195 15.6284 3.36243C15.398 1.97473 14.5435 0.804932 13.3433 0.232422C13.023 0.0800781 12.7359 0.00195312 12.4859 0.00195312C12.3482 0.00195312 12.2212 0.0244141 12.106 0.0722656C11.7808 0.202148 11.5181 0.529297 11.3257 1.04492C11.0209 1.85449 10.8853 2.76465 10.898 3.91016C10.898 5.30273 11.023 5.98535 11.398 6.625C11.7505 7.23047 12.27 7.60547 12.855 7.68457L12.856 7.68274Z" fill="#B1B9D8"/>
<path d="M1.39784 5.1731C1.43006 5.16821 1.46327 5.16528 1.49549 5.16528L1.49269 5.16541C1.75733 5.16541 2.05812 5.33337 2.34523 5.64587C3.77491 7.19763 4.44776 8.99561 4.34034 10.9907C4.31593 11.4399 4.15577 11.8003 3.8755 12.0278C3.57374 12.2729 3.15089 12.3628 2.65089 12.2856C1.01307 12.0356 -0.00255323 10.8676 0.000376457 9.23279C-0.00938917 7.92017 0.170298 6.94751 0.602916 5.97778C0.812876 5.50806 1.0951 5.2229 1.39784 5.1731Z" fill="#B1B9D8"/>
<path d="M9.52882 8.53052C8.69874 8.63306 8.06886 9.08032 7.4839 9.98071C6.85597 10.9456 6.07179 12.053 4.99855 12.9437C4.30128 13.5238 3.94581 14.3314 3.94386 15.349C3.94386 16.4017 4.42628 17.3685 5.26612 18.0043C6.08839 18.6244 7.12648 18.8197 8.1139 18.5394C9.3639 18.182 10.5709 18.1771 11.8064 18.5248C13.3816 18.9672 14.9392 18.2894 15.6785 16.8373C16.406 15.4076 16.0535 13.802 14.7781 12.7474C14.3455 12.39 13.8933 11.9877 13.531 11.4828C13.3938 11.2926 13.2601 11.1011 13.1276 10.9087L12.8173 10.4567C12.6383 10.1952 12.4595 9.93396 12.2732 9.67517C11.7078 8.8822 10.9879 8.50232 10.0328 8.50232C9.87074 8.50232 9.70082 8.51208 9.52308 8.53455L9.52882 8.53052Z" fill="#B1B9D8"/>
<path d="M19.7623 7.16235C19.7973 7.30225 19.8295 7.44434 19.8589 7.58801L19.856 7.58203C19.9282 7.93262 20.0259 8.41211 19.9937 8.7373V8.77734C19.9966 10.5626 19.1812 11.8077 17.7564 12.1974C17.0767 12.3849 16.4917 12.3204 16.1167 12.0177C15.7398 11.712 15.5601 11.1798 15.5972 10.4747C15.6851 8.87903 16.2525 7.37708 17.2847 6.00696C17.3148 5.96497 17.3482 5.92456 17.3822 5.88611C17.4155 5.84851 17.4496 5.81274 17.4819 5.77942C17.855 5.38977 18.2173 5.17981 18.5171 5.17981C18.5591 5.17981 18.5991 5.18469 18.6392 5.1925C18.9614 5.25989 19.2564 5.61829 19.4692 6.20032C19.5801 6.50537 19.6788 6.82788 19.7623 7.16235Z" fill="#B1B9D8"/>
</svg>
