<svg width="20" height="11" viewBox="0 0 20 11" fill="none" xmlns="http://www.w3.org/2000/svg">
<path d="M17.3654 0.0218157C16.8014 -0.0925516 16.1152 0.27999 16.1152 0.27999C16.1152 0.27999 14.6934 0.836389 12.9217 2.27763C11.1499 3.71888 10.8959 4.6176 9.03513 6.04184C7.81179 6.97826 6.43499 7.69047 5.434 8.17538C5.45209 8.19186 5.49949 8.21465 5.51553 8.22974C5.54519 8.25765 5.60316 8.3074 5.69222 8.3792C5.84302 8.50087 6.01431 8.61915 6.195 8.73256C6.6926 9.04474 7.60828 9.23534 7.60828 9.23534C8.03501 9.23534 8.52396 9.04474 9.02157 8.73256C9.20225 8.61915 9.37354 8.50087 9.52435 8.3792C9.61341 8.3074 9.67137 8.25765 9.70103 8.22974C9.86945 8.07119 10.1531 7.83258 10.5164 7.60463C11.1399 7.21339 12.3917 6.97952 12.3917 6.97952C12.8276 6.97952 13.2689 7.12798 13.7098 7.33284L13.7235 7.31928C14.3377 7.64442 15.1963 7.56936 15.8977 7.07463C16.833 6.41504 17.1404 5.24488 16.5908 4.46549C16.0412 3.68614 14.8354 3.58847 13.9001 4.24806C13.6663 4.413 13.468 4.61812 13.3158 4.83242C13.3791 4.7234 13.4038 4.58103 13.4653 4.51984C15.4712 2.52263 17.3926 1.85635 17.3926 1.85635C17.3926 1.85635 18.5314 1.23959 17.8682 0.334347C17.7383 0.157056 17.5534 0.0599527 17.3654 0.0218157ZM2.82486 7.84924C2.20522 7.84924 1.57307 8.0831 0.949538 8.47434C0.586207 8.70229 0.302615 8.94094 0.134182 9.09945C-0.0407064 9.26404 -0.0440082 9.53609 0.120592 9.71099C0.285194 9.88584 0.557223 9.88915 0.73211 9.72456C0.761784 9.69664 0.819746 9.64689 0.90877 9.57505C1.05959 9.45342 1.23089 9.33514 1.41157 9.22177C1.90916 8.90955 2.39812 8.71895 2.82486 8.71895C3.2516 8.71895 3.74055 8.90955 4.23814 9.22177C4.41882 9.33514 4.59012 9.45342 4.74092 9.57505C4.82998 9.64689 4.88795 9.69664 4.91761 9.72456C5.08603 9.88306 5.36964 10.1081 5.73296 10.3361C6.3565 10.7273 6.98865 10.9748 7.60828 10.9748C7.60828 10.9748 8.86006 10.7273 9.4836 10.3361C9.84692 10.1081 10.1305 9.88306 10.299 9.72456C10.3286 9.69664 10.3866 9.64689 10.4756 9.57505C10.6264 9.45342 10.7977 9.33514 10.9784 9.22177C11.476 8.90955 11.965 8.71895 12.3917 8.71895C12.3917 8.71895 13.3074 8.90955 13.805 9.22177C13.9857 9.33514 14.157 9.45342 14.3078 9.57505C14.3968 9.64689 14.4548 9.69664 14.4845 9.72456C14.6529 9.88306 14.9365 10.1081 15.2998 10.3361C15.9234 10.7273 16.5555 10.9748 17.1751 10.9748C17.1751 10.9748 18.4269 10.7273 19.0504 10.3361C19.4138 10.1081 19.6974 9.88306 19.8658 9.72456C20.0407 9.55996 20.044 9.28792 19.8794 9.11306C19.7148 8.93816 19.4428 8.93486 19.2679 9.09945C19.2382 9.12737 19.1803 9.17711 19.0912 9.24891C18.9404 9.37058 18.7691 9.48886 18.5884 9.60227C18.0908 9.91446 17.6019 10.1051 17.1751 10.1051C17.1751 10.1051 16.2595 9.91446 15.7618 9.60227C15.5812 9.48886 15.4099 9.37058 15.2591 9.24891C15.17 9.17711 15.112 9.12737 15.0824 9.09945C14.914 8.94094 14.6303 8.70229 14.267 8.47434C13.6435 8.0831 13.0113 7.84924 12.3917 7.84924C12.3917 7.84924 11.1399 8.0831 10.5164 8.47434C10.1531 8.70229 9.86945 8.94094 9.70103 9.09945C9.67137 9.12737 9.61341 9.17711 9.52435 9.24891C9.37354 9.37058 9.20225 9.48886 9.02157 9.60227C8.52396 9.91446 8.03501 10.1051 7.60828 10.1051C7.60828 10.1051 6.6926 9.91446 6.195 9.60227C6.01431 9.48886 5.84302 9.37058 5.69222 9.24891C5.60316 9.17711 5.54519 9.12737 5.51553 9.09945C5.34711 8.94094 5.0635 8.70229 4.70018 8.47434C4.07664 8.0831 3.44449 7.84924 2.82486 7.84924Z" fill="#B1B9D8"/>
</svg>
