<svg width="20" height="21" viewBox="0 0 20 21" fill="none" xmlns="http://www.w3.org/2000/svg">
<path fill-rule="evenodd" clip-rule="evenodd" d="M14.3642 4.76774C14.0012 4.66677 13.6262 4.43598 13.3112 4.12105V4.11865C12.9939 3.80131 12.7655 3.42868 12.6645 3.06567C12.5419 2.62573 12.6189 2.22425 12.8785 1.96702C13.1357 1.70978 13.5372 1.63045 13.9772 1.75305C14.3402 1.85403 14.7128 2.08481 15.0301 2.39975C15.3475 2.71468 15.5759 3.08971 15.6768 3.45272C15.7994 3.89267 15.7225 4.29415 15.4629 4.55138C15.285 4.73168 15.0398 4.82304 14.7585 4.82304C14.6335 4.82304 14.5012 4.80621 14.3642 4.76774ZM13.5829 2.53918C13.5252 2.53918 13.4867 2.5512 13.4747 2.56322V2.56563C13.4507 2.58967 13.4314 2.68343 13.4747 2.8445C13.5348 3.06567 13.6935 3.31569 13.905 3.52725C14.1166 3.73881 14.3666 3.89507 14.5878 3.95758C14.7489 4.00085 14.8426 3.98162 14.8667 3.95758C14.8907 3.93594 14.9099 3.83978 14.8667 3.67871C14.8066 3.45753 14.6479 3.20751 14.4363 2.99595C14.2248 2.7844 13.9748 2.62813 13.7536 2.56563C13.6839 2.54639 13.6286 2.53918 13.5829 2.53918Z" fill="#B1B9D8"/>
<path fill-rule="evenodd" clip-rule="evenodd" d="M19.9705 12.4343C19.9801 12.4632 19.9849 12.492 19.9873 12.5209H19.9897C19.9922 12.5257 19.9922 12.5305 19.9922 12.5353C20.0018 12.7421 20.2229 17.6175 17.4655 19.4253C16.8044 19.8581 16.0351 20.0744 15.1648 20.0744C14.0493 20.0744 12.7631 19.7162 11.3183 19.0022C11.3003 19.0045 11.2828 19.0072 11.2652 19.0101C11.245 19.0133 11.2247 19.0165 11.2029 19.0191C11.1861 19.0215 11.1693 19.0215 11.1524 19.0215C11.1212 19.0215 11.0875 19.0166 11.0563 19.0094C11.0493 19.0081 11.0432 19.0059 11.0374 19.0038C11.0332 19.0023 11.0291 19.0008 11.025 18.9998C11.0034 18.9926 10.9817 18.9854 10.9625 18.9758C10.9529 18.971 10.9409 18.9638 10.9313 18.9565C10.9144 18.9469 10.8976 18.9349 10.8808 18.9205C10.8687 18.9109 10.8591 18.9013 10.8495 18.8916C10.8464 18.8869 10.8422 18.8832 10.8377 18.8792C10.8353 18.8771 10.8328 18.8749 10.8303 18.8724C10.8243 18.8664 10.8202 18.8596 10.8162 18.8529C10.8138 18.8488 10.8114 18.8448 10.8086 18.8412C10.8062 18.8375 10.8038 18.8351 10.8014 18.8327C10.799 18.8303 10.7966 18.8279 10.7942 18.8243C10.775 18.7955 9.44555 16.615 10.174 14.3239C9.78933 14.4009 9.42151 14.4393 9.07292 14.4393C8.74837 14.4393 8.44546 14.4033 8.15697 14.3383L5.58222 16.9131C6.14237 17.692 6.07506 18.7883 5.37307 19.4902C4.98361 19.8797 4.47395 20.0744 3.96189 20.0744C3.44982 20.0744 2.94016 19.8797 2.55071 19.4902C2.12759 19.0671 1.92565 18.4805 1.97614 17.9036C1.46888 17.8819 0.99528 17.692 0.605823 17.3001C0.216365 16.9083 0 16.389 0 15.8361C0 15.2831 0.213961 14.7639 0.605823 14.372C1.41359 13.5642 2.7262 13.5642 3.53397 14.372C3.53998 14.3792 3.54659 14.3858 3.5532 14.3924C3.55981 14.399 3.56642 14.4057 3.57243 14.4129L5.73128 12.254C5.08939 10.588 5.70243 8.25367 7.56076 5.39765C9.26524 2.77723 11.3832 0.649635 11.4722 0.560685C12.0804 -0.0475425 13.0733 -0.165341 14.2681 0.228924C15.3643 0.589533 16.5303 1.35162 17.5496 2.37094C19.7614 4.58268 20.5571 7.25118 19.3599 8.4484C19.2902 8.51812 18.0064 9.79227 16.2226 11.1554C16.4991 11.7973 16.7443 12.5257 16.8669 13.2758C18.4064 12.931 19.2617 12.2639 19.3009 12.2334L19.3022 12.2324C19.3046 12.23 19.3094 12.2276 19.3142 12.2252C19.3407 12.2059 19.3671 12.1867 19.3984 12.1723H19.4008C19.4344 12.1579 19.4681 12.1482 19.5017 12.1434C19.5089 12.141 19.5186 12.141 19.5258 12.141C19.5546 12.1386 19.5835 12.1386 19.6147 12.141H19.6315C19.6628 12.1458 19.694 12.1531 19.7253 12.1651C19.7277 12.1675 19.7349 12.1723 19.7349 12.1723H19.7397C19.7425 12.1723 19.7445 12.1739 19.7462 12.1753L19.7493 12.1771C19.7782 12.1915 19.8046 12.2084 19.8287 12.2276C19.8359 12.2324 19.8407 12.2372 19.8455 12.242C19.8984 12.2877 19.9393 12.3454 19.9633 12.4103C19.9645 12.4139 19.9657 12.4181 19.9669 12.4223C19.9681 12.4265 19.9693 12.4307 19.9705 12.4343ZM18.5064 13.634C18.0809 13.8143 17.5617 13.9922 16.9438 14.122H16.9462C16.9582 14.6917 16.8789 15.2591 16.6746 15.8024C17.4991 15.0548 18.1002 14.2638 18.5064 13.634ZM12.9843 0.844364C12.5901 0.844364 12.2751 0.947738 12.066 1.15689C11.7006 1.52471 11.6525 2.23151 11.9386 3.09456C12.2583 4.06821 12.9483 5.11638 13.8762 6.04434C14.8042 6.97231 15.8524 7.65987 16.826 7.98202C17.6915 8.2681 18.3959 8.22242 18.7637 7.8546C19.4921 7.12617 18.9272 4.94088 16.9534 2.96715C16.0255 2.03918 14.9773 1.35162 14.0036 1.02948C13.6286 0.904465 13.2848 0.844364 12.9843 0.844364ZM4.58454 16.9107C4.57973 16.7953 4.623 16.6823 4.70474 16.6006L4.70715 16.5958L7.28911 14.0138C7.00062 13.8575 6.73617 13.6628 6.49577 13.4224C6.36835 13.295 6.25776 13.158 6.15439 13.0185L3.82486 15.3481C3.7287 15.4418 3.59647 15.4851 3.46425 15.4659C3.33203 15.4466 3.21663 15.3649 3.15413 15.2471C3.09883 15.1437 3.02671 15.0475 2.94016 14.961C2.46176 14.4826 1.68044 14.4826 1.20203 14.961C0.723622 15.4394 0.723622 16.2207 1.20203 16.6991C1.51937 17.0165 1.98575 17.1343 2.41608 17.0093C2.45454 16.9972 2.49541 16.9924 2.53388 16.9924C2.65408 16.9924 2.76948 17.0453 2.85121 17.1391C2.9594 17.2641 2.98584 17.442 2.91612 17.591C2.71418 18.0286 2.80794 18.5527 3.14691 18.8916C3.59647 19.3412 4.32971 19.3412 4.77927 18.8916C5.22883 18.4421 5.22883 17.7112 4.77927 17.2617C4.76433 17.2467 4.7494 17.2337 4.73278 17.2192L4.72638 17.2136C4.63983 17.1367 4.58935 17.0261 4.58454 16.9107ZM12.4242 12.5738C10.049 14.4754 10.8159 16.9347 11.2726 17.9324V17.93C13.9243 15.461 14.3114 12.331 14.2825 10.5568C13.8882 11.153 13.2993 11.8742 12.4242 12.5738ZM15.1383 10.8379C15.8107 12.1552 16.5031 14.0878 15.8403 15.6341C15.3619 16.7496 14.22 17.5237 12.4434 17.9468C14.6903 15.4981 15.1308 12.6531 15.1383 10.8379ZM12.893 18.769C14.6071 19.4013 15.987 19.3869 17.0039 18.7209C18.4127 17.7978 18.9031 15.8 19.0714 14.3311C18.0641 15.8409 16.1216 17.9685 12.893 18.769Z" fill="#B1B9D8"/>
</svg>
