<svg width="96" height="87" viewBox="0 0 96 87" fill="none" xmlns="http://www.w3.org/2000/svg">
<path d="M94.7574 13.415C92.9574 6.51499 86.9574 1.11499 80.1574 0.214992C73.2574 -0.685007 64.1574 2.81499 60.4574 12.715C51.9574 10.215 43.3574 10.315 34.8574 12.715C31.3574 3.61499 23.0574 -0.785007 15.2574 0.114993C8.65743 0.914993 2.65743 6.11499 0.757427 12.815C-1.34257 20.115 0.757428 28.615 9.15743 34.015C9.15743 34.115 9.15743 34.115 9.15743 34.215C9.05743 34.415 8.95743 34.715 8.85743 34.915C6.75743 40.015 5.55743 45.315 5.55743 50.915C5.65743 56.215 6.65743 61.415 9.45743 66.215C13.8574 73.815 20.3574 79.015 28.3574 82.515C38.0574 86.715 48.1574 87.415 58.4574 85.315C66.3574 83.615 73.3574 80.215 79.2574 74.715C83.1574 71.015 86.1574 66.815 87.8574 61.715C90.7574 52.815 90.0574 44.115 86.7574 35.515C86.5574 35.015 86.3574 34.615 86.1574 34.115C94.0574 28.915 96.5574 20.615 94.7574 13.415ZM84.0574 54.015C83.5574 59.615 81.2574 64.415 77.5574 68.615C72.1574 74.615 65.3574 78.115 57.4574 79.915C56.2574 80.215 55.0574 80.415 53.8574 80.515C51.7574 80.715 49.7574 80.815 48.5574 80.915C38.5574 80.815 30.1574 78.515 22.7574 73.015C18.1574 69.615 14.3574 65.415 12.3574 59.815C10.9574 56.015 10.7574 52.115 11.0574 48.115C11.3574 42.815 12.8574 37.815 15.5574 33.215C15.7574 32.915 15.8574 32.615 16.0574 32.415C17.1574 31.315 17.1574 30.115 16.3574 28.815C15.8574 28.015 15.6574 27.215 15.2574 26.315C14.7574 25.015 14.9574 23.815 16.0574 23.015C16.9574 22.315 18.1574 22.315 19.2574 23.215C20.1574 23.815 21.0574 24.515 21.8574 25.215C22.2574 25.515 22.4574 25.515 22.8574 25.215C30.1574 18.715 38.7574 16.115 48.3574 16.315C55.6574 16.415 62.4574 18.315 68.5574 22.415C69.7574 23.215 70.8574 24.115 71.8574 25.115C72.3574 25.515 72.6574 25.515 73.1574 25.115C74.1574 24.315 75.1574 23.515 76.1574 22.915C77.7574 21.915 79.6574 22.915 79.9574 24.715C80.0574 25.315 79.8574 25.915 79.6574 26.415C79.1574 27.615 78.6574 28.815 78.0574 30.015C77.8574 30.515 77.8574 30.815 78.1574 31.315C82.9574 38.315 84.7574 45.915 84.0574 54.015Z" fill="#B1B9D8"/>
<path d="M41.2574 43.415C41.1574 42.915 41.1574 42.315 41.0574 41.815C40.2574 38.015 36.4574 35.415 32.6574 35.915C30.6574 36.215 29.0574 37.215 27.8574 38.815C25.5574 41.715 23.3574 44.615 21.2574 47.615C19.7574 49.715 19.0574 52.215 19.3574 54.915C20.0574 59.915 25.7574 64.515 31.6574 61.115C31.9574 60.915 32.3574 60.515 32.4574 60.115C32.9574 58.315 33.8574 56.715 34.8574 55.115C36.5574 52.715 38.1574 50.315 39.7574 47.815C40.6574 46.615 41.1574 45.115 41.2574 43.415ZM31.5574 49.415C30.2574 49.415 29.1574 48.215 29.1574 47.015C29.1574 45.715 30.2574 44.615 31.5574 44.715C32.8574 44.715 33.8574 45.815 33.8574 47.115C33.9574 48.315 32.8574 49.415 31.5574 49.415Z" fill="#B1B9D8"/>
<path d="M66.9574 38.315C64.5574 35.715 61.1574 35.115 58.2574 36.715C54.5574 38.615 52.6574 43.515 55.2574 47.715C56.6574 49.915 58.2574 52.115 59.7574 54.315C61.1574 56.315 62.4574 58.215 62.9574 60.615C62.9574 60.815 63.2574 61.115 63.4574 61.215C64.7574 61.615 65.9574 62.315 67.2574 62.315C71.8574 62.615 75.8574 58.715 75.9574 53.915C76.0574 52.215 75.4574 50.115 74.3574 48.415C72.3574 44.715 69.8574 41.315 66.9574 38.315ZM63.7574 49.415C62.4574 49.415 61.3574 48.315 61.3574 47.015C61.3574 45.715 62.4574 44.615 63.7574 44.715C65.0574 44.715 66.0574 45.815 66.0574 47.115C66.1574 48.415 65.0574 49.515 63.7574 49.415Z" fill="#B1B9D8"/>
<path d="M41.5574 59.815C42.3574 60.515 43.2574 60.915 44.1574 61.415C44.6574 61.715 45.2574 61.815 45.8574 62.015C45.9574 63.315 45.6574 64.315 44.3574 64.915C43.2574 65.415 43.0574 66.515 43.5574 67.415C44.0574 68.215 45.2574 68.415 46.1574 67.815C46.6574 67.515 47.1574 67.115 47.6574 66.715C47.9574 67.015 48.3574 67.515 48.9574 67.915C49.6574 68.315 50.3574 68.315 51.0574 67.815C51.6574 67.315 51.8574 66.715 51.5574 66.015C51.3574 65.615 50.9574 65.115 50.5574 64.915C49.4574 64.215 49.1574 63.315 49.2574 62.215C50.3574 61.715 51.4574 61.415 52.4574 60.815C53.4574 60.315 54.5574 59.615 54.4574 58.215C54.3574 56.815 53.2574 56.315 52.1574 55.815C50.2574 54.915 48.3574 54.715 46.3574 55.015C44.6574 55.215 43.0574 55.715 41.6574 56.815C40.5574 57.715 40.5574 58.915 41.5574 59.815Z" fill="#B1B9D8"/>
<path d="M56.5574 67.315C56.0574 67.615 55.6574 68.015 55.2574 68.415C51.1574 72.215 45.5574 72.615 41.0574 69.315C40.2574 68.715 39.6574 68.115 38.8574 67.515C38.0574 66.815 37.0574 66.915 36.4574 67.615C35.8574 68.215 35.8574 69.115 36.5574 69.915C39.5574 73.015 43.0574 74.915 48.0574 74.915C51.9574 74.915 55.5574 73.015 58.6574 69.815C59.3574 69.115 59.3574 68.315 58.7574 67.715C58.2574 67.015 57.2574 66.815 56.5574 67.315Z" fill="#B1B9D8"/>
</svg>
