<svg width="96" height="82" viewBox="0 0 96 82" fill="none" xmlns="http://www.w3.org/2000/svg">
<path d="M94.5202 47.2324C93.8202 45.3324 92.3202 43.9324 90.6202 42.9324C84.7202 39.4324 78.8202 35.9324 72.9202 32.4324C72.6202 32.2324 72.3202 31.9324 72.2202 31.6324C70.9202 29.0324 69.2202 26.7324 67.1202 24.7324C61.5202 19.5324 54.7202 17.0324 47.3202 16.0324C46.1202 15.8324 44.8202 15.7324 43.5202 15.6324C43.5202 15.5324 43.5202 15.3324 43.4202 15.2324C43.3202 12.9324 43.2202 10.6324 43.0202 8.33243C42.9202 7.13243 42.8202 5.93243 42.5202 4.83243C41.6202 1.53243 38.2202 0.532428 35.6202 2.73243C34.7202 3.43243 34.0202 4.43243 33.3202 5.43243C32.7202 6.33243 32.2202 7.23243 31.6202 8.13243C31.5202 7.93243 31.5202 7.73243 31.4202 7.63243C30.9202 6.43243 30.5202 5.23243 30.0202 4.03243C29.3202 2.63243 28.4202 1.43243 27.0202 0.632429C25.5202 -0.367571 23.7202 -0.167571 22.4202 1.13243C21.9202 1.73243 21.4202 2.33243 21.0202 3.03243C19.8202 5.03243 19.2202 7.23243 18.8202 9.43243C17.9202 14.0324 17.1202 18.6324 16.2202 23.2324C16.1202 23.6324 16.0202 24.0324 15.7202 24.2324C11.1202 28.1324 7.52017 32.8324 4.82017 38.2324C0.620172 46.7324 -0.679829 55.7324 0.320171 65.1324C0.920171 70.0324 2.32017 74.7324 4.52017 79.1324C4.72017 79.5324 5.02017 79.9324 5.42017 80.2324C6.42017 81.0324 8.12017 80.5324 8.42017 79.2324C8.52017 78.6324 8.42017 77.9324 8.22017 77.4324C7.62017 75.7324 6.72017 74.0324 6.12017 72.3324C4.02017 66.1324 3.52017 59.6324 4.42017 53.1324C5.42017 45.9324 8.02017 39.4324 12.3202 33.6324C13.6202 31.9324 15.2202 30.3324 16.7202 28.5324C16.8202 28.9324 16.8202 29.1324 16.9202 29.2324C17.3202 31.2324 17.7202 33.3324 18.1202 35.3324C18.3202 36.4324 18.8202 37.3324 19.5202 38.1324C20.6202 39.3324 22.0202 39.6324 23.3202 38.6324C24.1202 38.0324 24.8202 37.3324 25.3202 36.5324C27.2202 33.6324 28.0202 30.2324 28.0202 26.8324C28.0202 21.1324 27.1202 15.4324 26.1202 9.83243C25.9202 8.53243 25.6202 7.23243 25.4202 5.83243C25.3202 5.33243 25.2202 4.73243 25.9202 4.23243C26.2202 4.83243 26.5202 5.43243 26.7202 6.03243C28.5202 11.5324 29.9202 17.0324 31.2202 22.6324C31.7202 24.7324 32.4202 26.8324 31.1202 29.0324C30.6202 29.9324 31.5202 30.9324 32.5202 30.9324C33.3202 30.9324 33.9202 30.5324 34.4202 29.9324C35.5202 28.4324 36.0202 26.7324 35.7202 24.8324C35.5202 23.2324 35.1202 21.6324 34.8202 20.0324C40.7202 19.2324 46.5202 19.4324 52.2202 21.0324C51.6202 21.7324 51.0202 22.4324 50.6202 23.1324C49.8202 24.4324 50.4202 25.3324 51.9202 25.5324C54.1202 25.8324 56.0202 25.1324 57.6202 23.5324C57.8202 23.3324 58.0202 23.2324 58.3202 23.3324C60.2202 24.2324 61.9202 25.2324 63.5202 26.6324C65.9202 28.8324 68.0202 31.2324 69.1202 34.3324C69.2202 34.5324 69.4202 34.7324 69.6202 34.8324C74.9202 37.9324 80.1202 41.0324 85.4202 44.1324C86.1202 44.5324 86.9202 45.0324 87.7202 45.5324C87.3202 45.6324 87.0202 45.6324 86.7202 45.7324C83.6202 46.4324 81.7202 50.0324 84.1202 52.7324C84.6202 53.3324 85.1202 53.8324 85.7202 54.3324C88.3202 56.9324 87.8202 60.5324 84.5202 62.2324C83.5202 62.7324 82.5202 63.3324 81.5202 64.1324C76.9202 67.8324 71.9202 68.6324 66.3202 66.3324C64.5202 65.6324 62.6202 65.0324 60.6202 64.6324C59.1202 64.3324 57.8202 64.0324 56.5202 63.2324C54.8202 62.1324 53.0202 61.7324 51.0202 61.7324C46.7202 61.7324 42.5202 61.8324 38.2202 61.2324C35.6202 60.8324 33.2202 60.1324 31.1202 58.6324C27.8202 56.3324 26.2202 53.2324 26.8202 49.2324C27.1202 47.6324 27.7202 46.0324 28.2202 44.4324C28.3202 44.0324 28.5202 43.6324 28.6202 43.2324C28.8202 41.8324 27.5202 40.7324 26.2202 41.3324C25.6202 41.6324 25.1202 42.1324 24.8202 42.6324C24.1202 43.9324 23.3202 45.3324 22.8202 46.8324C21.1202 51.6324 21.5202 56.2324 24.6202 60.4324C26.9202 63.5324 30.1202 65.5324 33.9202 66.5324C35.5202 67.0324 37.1202 67.2324 38.7202 67.5324C38.6202 67.6324 38.4202 67.7324 38.2202 67.8324C33.3202 70.3324 29.3202 73.9324 26.0202 78.3324C25.6202 78.8324 25.4202 79.4324 25.6202 80.0324C26.0202 81.5324 27.8202 82.0324 29.0202 80.8324C29.3202 80.5324 29.6202 80.1324 29.9202 79.7324C33.1202 75.7324 37.0202 72.6324 41.8202 70.6324C45.2202 69.2324 48.7202 68.4324 52.3202 68.2324C56.3202 68.0324 60.3202 68.1324 64.1202 69.8324C66.0202 70.7324 68.1202 71.3324 70.2202 71.5324C74.9202 72.0324 79.1202 70.7324 82.9202 67.8324C83.9202 67.0324 85.1202 66.3324 86.2202 65.6324C89.2202 63.8324 90.9202 61.2324 91.1202 57.6324C91.1202 57.3324 91.3202 57.0324 91.4202 56.8324C92.1202 55.9324 92.9202 55.0324 93.5202 54.0324C94.9202 52.0324 95.5202 49.7324 94.5202 47.2324ZM33.7202 16.1324C33.5202 15.4324 33.3202 14.8324 33.2202 14.1324C33.2202 13.9324 33.2202 13.7324 33.3202 13.6324C34.6202 11.3324 36.0202 9.03243 37.4202 6.73243C37.6202 6.43243 37.7202 6.23243 38.0202 5.93243C38.2202 5.73243 38.5202 5.63243 38.7202 5.43243C38.8202 5.73243 39.0202 5.93243 39.1202 6.23243C39.2202 7.13243 39.3202 8.03243 39.3202 8.93243C39.4202 11.1324 39.5202 13.2324 39.6202 15.4324C37.6202 15.7324 35.7202 15.9324 33.7202 16.1324ZM91.1202 52.6324C91.0202 53.0324 90.9202 53.4324 90.3202 53.3324C90.3202 53.0324 90.2202 52.7324 90.2202 52.4324C90.1202 51.4324 89.3202 50.8324 88.3202 50.9324C88.1202 50.9324 87.9202 51.0324 87.7202 51.0324C87.5202 51.0324 87.1202 50.9324 87.0202 50.7324C87.0202 50.5324 87.1202 50.1324 87.3202 49.9324C87.9202 49.3324 89.2202 49.4324 90.0202 49.9324C90.8202 50.6324 91.3202 51.6324 91.1202 52.6324Z" fill="#B1B9D8"/>
<path d="M66.1202 37.7324C64.8202 35.6324 63.4202 33.5324 62.0202 31.5324C61.1202 30.2324 59.8202 29.3324 58.1202 29.1324C56.7202 28.9324 55.4202 29.4324 54.1202 30.0324C51.8202 31.2324 49.8202 32.9324 47.7202 34.6324C48.2202 34.7324 48.6202 34.8324 49.0202 34.8324C50.8202 35.0324 52.5202 35.3324 54.1202 36.3324C56.3202 37.7324 58.7202 38.1324 61.2202 37.8324C61.6202 37.8324 61.9202 37.9324 62.2202 38.1324C63.4202 39.4324 64.7202 40.7324 65.9202 42.0324C66.1202 42.2324 66.3202 42.5324 66.6202 42.6324C67.3202 43.0324 68.0202 42.6324 68.0202 41.9324C68.0202 41.3324 67.8202 40.7324 67.6202 40.2324C67.2202 39.4324 66.6202 38.5324 66.1202 37.7324ZM55.8202 34.8324C55.7202 34.8324 55.7202 34.8324 55.6202 34.9324C54.7202 34.4324 53.7202 33.9324 52.7202 33.3324C53.8202 32.8324 54.7202 32.3324 55.8202 31.8324C55.4202 32.8324 55.3202 33.8324 55.8202 34.8324ZM59.8202 35.2324C60.0202 34.6324 60.3202 34.1324 60.5202 33.4324C60.8202 34.0324 61.2202 34.5324 61.5202 35.2324C61.0202 35.2324 60.4202 35.2324 59.8202 35.2324Z" fill="#B1B9D8"/>
<path d="M12.2202 68.8324C11.4202 68.6324 10.8202 68.8324 10.4202 69.6324C10.2202 70.2324 10.1202 70.8324 10.0202 71.1324C10.2202 73.9324 11.2202 75.9324 13.5202 77.1324C14.9202 77.9324 16.0202 77.3324 16.2202 75.7324C16.5202 73.7324 15.9202 71.9324 14.6202 70.3324C14.0202 69.6324 13.2202 69.0324 12.2202 68.8324Z" fill="#B1B9D8"/>
<path d="M12.6202 50.4324C12.5202 50.0324 12.5202 49.5324 12.3202 49.0324C11.9202 47.5324 10.9202 47.1324 9.52017 47.9324C8.12017 48.8324 7.32017 50.1324 6.92017 51.7324C6.62017 53.1324 6.52017 54.4324 7.12017 55.8324C7.52017 56.6324 8.22017 56.9324 9.02017 56.5324C9.32017 56.4324 9.72017 56.1324 10.0202 55.9324C11.8202 54.5324 12.5202 52.6324 12.6202 50.4324Z" fill="#B1B9D8"/>
<path d="M18.6202 53.9324C17.6202 53.5324 16.9202 54.1324 16.2202 54.7324C14.4202 56.4324 13.8202 58.5324 14.2202 60.9324C14.5202 62.8324 15.9202 63.3324 17.4202 62.1324C19.1202 60.8324 19.7202 59.0324 19.8202 57.0324C19.8202 56.6324 19.8202 56.4324 19.7202 56.1324C19.7202 55.2324 19.6202 54.2324 18.6202 53.9324Z" fill="#B1B9D8"/>
<path d="M26.9202 72.4324C27.0202 72.0324 27.0202 71.6324 27.1202 71.3324C27.1202 70.9324 27.0202 70.5324 27.0202 70.1324C26.6202 68.1324 25.6202 66.4324 23.7202 65.4324C22.4202 64.8324 21.3202 65.3324 21.1202 66.8324C21.0202 67.6324 21.0202 68.5324 21.2202 69.3324C21.7202 71.1324 22.7202 72.6324 24.4202 73.5324C25.7202 74.2324 26.6202 73.7324 26.9202 72.4324Z" fill="#B1B9D8"/>
<path d="M40.0202 48.5324C42.3202 48.8324 45.1202 47.0324 45.8202 44.8324C45.9202 44.5324 46.0202 44.1324 46.0202 43.7324C45.9202 42.7324 45.2202 42.3324 43.9202 42.3324C41.6202 42.3324 39.3202 43.9324 38.6202 46.1324C38.0202 47.5324 38.5202 48.3324 40.0202 48.5324Z" fill="#B1B9D8"/>
<path d="M46.9202 54.0324C46.2202 53.7324 45.4202 53.6324 44.7202 53.4324C43.9202 53.6324 43.1202 53.6324 42.4202 53.8324C41.3202 54.1324 40.3202 54.8324 39.7202 55.8324C39.1202 56.7324 39.4202 57.6324 40.4202 58.0324C41.0202 58.2324 41.6202 58.4324 42.2202 58.4324C44.2202 58.5324 46.0202 58.1324 47.4202 56.6324C48.4202 55.7324 48.2202 54.6324 46.9202 54.0324Z" fill="#B1B9D8"/>
<path d="M68.3202 45.2324C67.4202 45.0324 66.4202 45.0324 65.5202 45.2324C63.7202 45.6324 62.2202 46.7324 61.6202 48.5324C61.3202 49.4324 61.6202 50.0324 62.5202 50.3324C63.0202 50.5324 63.5202 50.5324 63.9202 50.6324C64.4202 50.5324 64.9202 50.5324 65.3202 50.4324C67.0202 50.0324 68.5202 49.1324 69.3202 47.5324C69.9202 46.4324 69.5202 45.4324 68.3202 45.2324Z" fill="#B1B9D8"/>
<path d="M44.8202 26.3324C42.5202 26.3324 40.1202 28.0324 39.4202 30.1324C39.0202 31.4324 39.5202 32.2324 40.9202 32.4324C43.1202 32.6324 45.7202 31.1324 46.6202 29.1324C46.8202 28.7324 46.9202 28.2324 46.9202 27.8324C46.8202 26.8324 46.1202 26.3324 44.8202 26.3324Z" fill="#B1B9D8"/>
<path d="M35.2202 35.6324C33.1202 35.7324 31.1202 37.7324 30.7202 40.0324C30.5202 41.5324 31.1202 42.2324 32.5202 42.2324C34.7202 42.2324 37.0202 40.2324 37.3202 38.0324C37.5202 36.5324 36.6202 35.6324 35.2202 35.6324Z" fill="#B1B9D8"/>
<path d="M55.7202 46.2324C55.1202 46.3324 54.6202 46.3324 54.2202 46.4324C52.7202 46.8324 51.5202 47.5324 50.7202 48.9324C50.1202 49.9324 50.4202 50.6324 51.4202 51.1324C52.5202 51.6324 53.6202 51.6324 54.7202 51.3324C56.1202 51.0324 57.4202 50.3324 58.2202 48.9324C58.7202 48.0324 58.5202 47.1324 57.5202 46.7324C56.8202 46.4324 56.2202 46.3324 55.7202 46.2324Z" fill="#B1B9D8"/>
<path d="M32.7202 49.2324C32.1202 49.4324 31.5202 49.6324 31.4202 50.3324C31.2202 51.0324 31.6202 51.5324 32.1202 51.9324C33.2202 52.7324 34.5202 52.9324 35.8202 52.5324C37.1202 52.1324 37.3202 50.9324 36.3202 49.9324C35.5202 49.2324 34.6202 49.0324 33.5202 49.0324C33.3202 49.1324 33.0202 49.2324 32.7202 49.2324Z" fill="#B1B9D8"/>
<path d="M73.8202 52.1324C72.9202 52.6324 72.7202 53.5324 73.4202 54.3324C74.1202 55.1324 75.1202 55.3324 76.3202 55.4324C76.6202 55.3324 77.0202 55.3324 77.4202 55.2324C78.7202 54.7324 78.9202 53.6324 77.9202 52.6324C76.9202 51.7324 74.9202 51.5324 73.8202 52.1324Z" fill="#B1B9D8"/>
<path d="M70.0202 53.9324C69.1202 53.2324 68.1202 53.0324 67.0202 53.3324C66.4202 53.5324 66.0202 53.7324 65.9202 54.4324C65.8202 55.0324 66.0202 55.6324 66.5202 55.9324C67.2202 56.3324 67.9202 56.5324 68.6202 56.8324C68.6202 56.7324 68.6202 56.7324 68.7202 56.6324C68.9202 56.6324 69.1202 56.6324 69.3202 56.5324C69.9202 56.4324 70.5202 56.2324 70.7202 55.5324C70.8202 54.9324 70.5202 54.3324 70.0202 53.9324Z" fill="#B1B9D8"/>
<path d="M75.3202 58.3324C74.1202 58.7324 73.8202 59.8324 74.6202 60.7324C75.2202 61.4324 76.0202 61.7324 76.7202 61.7324C77.8202 61.7324 78.5202 61.3324 78.7202 60.7324C78.9202 60.0324 78.6202 59.3324 77.8202 58.8324C77.1202 58.2324 76.2202 58.0324 75.3202 58.3324Z" fill="#B1B9D8"/>
<path d="M61.7202 57.8324C60.9202 58.3324 60.7202 59.2324 61.4202 59.9324C62.0202 60.6324 62.9202 60.8324 63.8202 60.9324C64.0202 60.9324 64.3202 60.8324 64.5202 60.8324C65.6202 60.5324 66.0202 59.4324 65.2202 58.5324C64.5202 57.5324 62.8202 57.2324 61.7202 57.8324Z" fill="#B1B9D8"/>
<path d="M69.5202 59.5324C69.0202 59.6324 68.5202 59.9324 68.3202 60.5324C68.1202 61.1324 68.3202 61.6324 68.7202 62.0324C69.3202 62.6324 70.1202 62.8324 70.8202 62.8324C71.8202 62.8324 72.5202 62.4324 72.7202 61.7324C72.9202 61.1324 72.5202 60.3324 71.8202 59.9324C71.1202 59.5324 70.3202 59.3324 69.5202 59.5324Z" fill="#B1B9D8"/>
</svg>
