<svg width="20" height="12" viewBox="0 0 20 12" fill="none" xmlns="http://www.w3.org/2000/svg">
<path d="M3.3405 4.79458C3.3368 4.80364 3.33494 4.81335 3.33501 4.82314C3.33501 4.90491 3.48338 4.9049 3.48338 4.82314C3.48346 4.81335 3.4816 4.80364 3.4779 4.79458C3.47421 4.78551 3.46875 4.77727 3.46186 4.77032C3.45496 4.76337 3.44676 4.75785 3.43772 4.75409C3.42868 4.75033 3.41899 4.74839 3.4092 4.74839C3.39941 4.74839 3.38972 4.75033 3.38068 4.75409C3.37164 4.75785 3.36344 4.76337 3.35654 4.77032C3.34965 4.77727 3.34419 4.78551 3.3405 4.79458Z" fill="#B1B9D8"/>
<path fill-rule="evenodd" clip-rule="evenodd" d="M19.9223 2.20846C19.2193 3.21502 19.5923 6.93903 19.9923 9.04972C20.0082 9.13365 19.9989 9.22042 19.9655 9.29904C19.932 9.37765 19.876 9.44458 19.8045 9.49134C19.733 9.5381 19.6493 9.56259 19.5638 9.56171C19.4784 9.56083 19.3952 9.53463 19.3247 9.4864C18.1837 8.61618 17.392 7.36623 17.0929 5.96281H14.65C14.7965 6.71819 15.116 7.42939 15.5834 8.04064C15.6163 8.08675 15.6399 8.1389 15.6528 8.19413C15.6656 8.24935 15.6674 8.30656 15.6582 8.36249C15.6489 8.41843 15.6287 8.47198 15.5987 8.52011C15.5687 8.56823 15.5296 8.60998 15.4835 8.64297C15.4374 8.67596 15.3852 8.69955 15.33 8.71238C15.2747 8.72522 15.2175 8.72705 15.1616 8.71777C15.1057 8.7085 15.0521 8.6883 15.004 8.65832C14.9559 8.62835 14.9141 8.58919 14.8811 8.54308C14.3026 7.78866 13.9214 6.90179 13.7722 5.96284H11.5918C11.7408 7.14658 12.249 8.25621 13.048 9.14224C13.1215 9.23 13.157 9.34334 13.1469 9.45733C13.1368 9.57132 13.0818 9.67662 12.9941 9.75007C12.9063 9.82352 12.793 9.8591 12.679 9.84898C12.565 9.83887 12.4597 9.78388 12.3862 9.69613C11.4517 8.65916 10.8716 7.35158 10.7299 5.96284H8.5069C8.63639 7.6299 9.31852 9.20606 10.4452 10.4416C10.4818 10.4848 10.5095 10.5349 10.5267 10.5889C10.544 10.6429 10.5504 10.6998 10.5457 10.7562C10.5409 10.8127 10.5251 10.8677 10.4991 10.9181C10.4731 10.9684 10.4375 11.0132 10.3942 11.0498C10.3509 11.0864 10.3008 11.1141 10.2468 11.1313C10.1928 11.1486 10.136 11.155 10.0795 11.1503C10.023 11.1455 9.96803 11.1297 9.91766 11.1037C9.8673 11.0777 9.82254 11.0421 9.78595 10.9988C8.52393 9.61132 7.77299 7.83484 7.65719 5.96284H5.80651V9.13023C5.80651 9.2447 5.76104 9.35449 5.6801 9.43543C5.59915 9.51638 5.48937 9.56185 5.37489 9.56185C5.23537 9.56185 1.9354 9.51844 0.045576 5.73879C0.013211 5.67409 -0.00236196 5.60229 0.000289968 5.53C0.0029419 5.4577 0.0237336 5.38723 0.0607518 5.32508C0.150745 5.17397 2.29853 1.62257 5.36183 1.52986C5.41976 1.52646 5.47775 1.53556 5.53186 1.55654C5.58596 1.57752 5.63493 1.60989 5.67543 1.65146C5.71691 1.69169 5.7499 1.73984 5.77241 1.79306C5.79493 1.84628 5.80653 1.90348 5.80651 1.96127V5.0996H7.67258C7.85629 3.26463 8.59976 1.53053 9.8022 0.132334C9.88111 0.0503391 9.9892 0.00282234 10.103 0.000121712C10.2167 -0.00257892 10.327 0.0397551 10.4097 0.117913C10.4924 0.196071 10.5409 0.303728 10.5446 0.417461C10.5483 0.531194 10.507 0.6418 10.4296 0.725214C9.35278 1.94879 8.68495 3.47811 8.51936 5.09961H10.729C10.874 3.70556 11.4652 2.39557 12.4145 1.36443C12.4961 1.28416 12.6062 1.2396 12.7207 1.24055C12.8351 1.2415 12.9445 1.28788 13.0248 1.36948C13.1051 1.45109 13.1496 1.56124 13.1487 1.6757C13.1477 1.79017 13.1014 1.89956 13.0198 1.97983C12.2161 2.83664 11.713 3.93168 11.5866 5.0996H13.7546C13.8466 4.18273 14.2789 3.33366 14.9663 2.71996C15.0563 2.64971 15.1704 2.61798 15.2837 2.63171C15.3971 2.64545 15.5003 2.70353 15.5709 2.79325C15.6415 2.88296 15.6737 2.997 15.6604 3.11038C15.6471 3.22376 15.5894 3.32724 15.4999 3.39817C15.0105 3.83944 14.6996 4.4447 14.626 5.09957H17.1256C17.4591 3.88034 18.9138 2.07503 19.2357 1.68601C19.3068 1.60019 19.4083 1.54518 19.519 1.53247C19.6297 1.51976 19.741 1.55034 19.8297 1.61781C19.9184 1.68528 19.9775 1.78443 19.9948 1.8945C20.0121 2.00458 19.9861 2.11708 19.9223 2.20846ZM18.6764 3.90966C18.3085 4.39389 18.05 4.95206 17.9185 5.54576C18.0272 6.41144 18.378 7.22886 18.9305 7.90407C18.727 6.58282 18.642 5.24604 18.6764 3.90966ZM2.88831 4.04344C3.0425 3.94044 3.22377 3.88548 3.4092 3.8855C3.65776 3.8858 3.89606 3.98469 4.0718 4.16047C4.24755 4.33626 4.34638 4.57458 4.34663 4.82314C4.34661 5.00857 4.2916 5.18983 4.18857 5.34399C4.08553 5.49816 3.93909 5.61831 3.76777 5.68925C3.59645 5.76019 3.40795 5.77873 3.22609 5.74253C3.04423 5.70634 2.87718 5.61703 2.74608 5.4859C2.61498 5.35477 2.52571 5.1877 2.48955 5.00584C2.4534 4.82397 2.47198 4.63546 2.54296 4.46416C2.61394 4.29285 2.73413 4.14644 2.88831 4.04344Z" fill="#B1B9D8"/>
</svg>
