<svg width="20" height="9" viewBox="0 0 20 9" fill="none" xmlns="http://www.w3.org/2000/svg">
<path fill-rule="evenodd" clip-rule="evenodd" d="M15.7841 5.38936H18.6111C19.4444 5.40063 20 6.01635 20 6.92137C20 7.88061 19.4648 8.45338 18.5682 8.45338H15.7841C15.0984 8.45338 14.4438 8.19225 13.8832 7.73072L13.8783 7.72813C13.8783 7.72813 13.8748 7.72657 13.8732 7.72533C13.8701 7.72282 13.8673 7.71997 13.8646 7.71712C13.8624 7.71483 13.8602 7.71253 13.8578 7.71041C13.2613 7.21044 12.7738 6.48142 12.4759 5.58867C12.0233 4.23232 11.0664 3.35603 10.0381 3.35603C9.5545 3.35603 9.08773 3.54566 8.68057 3.89171C8.39965 4.20476 8.13453 4.57161 7.86569 4.95396C7.84119 5.00187 7.81736 5.05072 7.79421 5.10048L7.29333 6.17618C6.62991 7.60214 5.48057 8.45338 4.21868 8.45338H1.22752C0.539154 8.45338 0 7.78042 0 6.92137C0 6.06232 0.539154 5.38936 1.22752 5.38936H4.21868C4.59203 5.38936 4.94846 5.102 5.17228 4.62075L5.67327 3.54461C6.45871 1.85681 7.7144 0.73526 9.13754 0.399712L9.14009 0.398789L9.14274 0.397841C9.14471 0.397345 9.14863 0.396946 9.14863 0.396946L9.15401 0.396174C9.44289 0.329349 9.73803 0.292114 10.0381 0.292114C12.063 0.292114 13.9084 1.90177 14.7399 4.39303C14.9418 4.99833 15.3517 5.38936 15.7841 5.38936ZM18.1522 6.47978C17.9384 6.60015 17.8625 6.87081 17.9829 7.08465C18.0644 7.22952 18.2151 7.31107 18.3704 7.31107C18.4442 7.31107 18.519 7.29285 18.5877 7.25403L18.5912 7.25208C18.805 7.13171 18.8792 6.86192 18.7588 6.64808C18.6387 6.43445 18.3665 6.35963 18.1522 6.47978Z" fill="#B1B9D8"/>
</svg>
