<svg width="28" height="23" viewBox="0 0 28 23" fill="none" xmlns="http://www.w3.org/2000/svg">
<path fill-rule="evenodd" clip-rule="evenodd" d="M11.638 9.09095C10.943 7.93495 10.232 6.81295 9.43904 5.82395C7.41504 3.29795 4.87805 1.59695 0.882046 2.07095C0.334046 2.13595 -0.0579539 2.63395 0.00704606 3.18195C0.0720461 3.72995 0.570039 4.12195 1.11804 4.05695C4.28404 3.68195 6.27504 5.07395 7.87904 7.07395C8.82604 8.25495 9.64404 9.63795 10.467 11.0319C9.64404 12.4269 8.82604 13.8089 7.87904 14.9899C6.27504 16.9909 4.28404 18.382 1.11804 18.007C0.570039 17.942 0.0720461 18.334 0.00704606 18.882C-0.0579539 19.43 0.334046 19.9279 0.882046 19.9929C4.87805 20.4669 7.41504 18.7659 9.43904 16.2409C10.232 15.2519 10.943 14.13 11.638 12.974C13.208 15.473 14.991 17.732 17.589 18.849C19.201 19.542 21.132 19.815 23.533 19.415L22.4 20.264C21.958 20.595 21.869 21.223 22.2 21.664C22.531 22.106 23.158 22.195 23.6 21.864L27.6 18.864C27.852 18.675 28 18.379 28 18.064C28 17.749 27.852 17.453 27.6 17.264L23.6 14.264C23.158 13.933 22.531 14.0229 22.2 14.4639C21.869 14.9059 21.958 15.5329 22.4 15.8639L24.224 17.232C21.799 17.819 19.914 17.672 18.379 17.012C15.851 15.925 14.287 13.52 12.8 11.044L12.793 11.0319L12.8 11.0199C14.287 8.54395 15.851 6.13895 18.379 5.05195C19.914 4.39295 21.799 4.24495 24.224 4.83195L22.4 6.19995C21.958 6.53095 21.869 7.15795 22.2 7.59995C22.531 8.04195 23.158 8.13095 23.6 7.79995L27.6 4.79995C27.852 4.61095 28 4.31495 28 3.99995C28 3.68495 27.852 3.38895 27.6 3.19995L23.6 0.199949C23.158 -0.131051 22.531 -0.0420466 22.2 0.399953C21.869 0.841953 21.958 1.46895 22.4 1.79995L23.533 2.64995C21.132 2.24895 19.201 2.52195 17.589 3.21495C14.991 4.33195 13.208 6.59095 11.638 9.09095Z" fill="#B1B9D8"/>
</svg>
