<svg width="15" height="20" viewBox="0 0 15 20" fill="none" xmlns="http://www.w3.org/2000/svg">
<path fill-rule="evenodd" clip-rule="evenodd" d="M4.09119 4.00219C2.00182 6.65931 0 9.20378 0 12.8144C0 14.7986 0.80436 16.5953 2.10447 17.8955C3.40458 19.1957 5.20158 20 7.18565 20C9.16985 20 10.9666 19.1956 12.2668 17.8955C13.0185 17.1439 13.498 16.4296 13.7734 15.693C14.0487 14.9563 14.3736 13.8371 14.3736 12.8136C14.3736 9.20324 12.3719 6.65857 10.2824 4.00145C9.33938 2.80169 8.37718 1.57882 7.59186 0.232305C7.46112 0.00908249 7.17493 -0.0666311 6.95093 0.0640983C6.87679 0.107147 6.81939 0.16853 6.77953 0.237089C5.9943 1.58193 5.03369 2.80319 4.0914 4.00052L4.09119 4.00219ZM5.14267 14.8582C5.66562 15.3812 6.38788 15.7048 7.18673 15.7048C7.44581 15.7048 7.65548 15.9145 7.65548 16.1736C7.65548 16.4326 7.44583 16.6423 7.18673 16.6423C6.12966 16.6423 5.17303 16.2134 4.48022 15.5215C3.78748 14.8287 3.35938 13.8721 3.35938 12.815C3.35938 12.5559 3.56903 12.3462 3.82813 12.3462C4.08721 12.3462 4.29688 12.5559 4.29688 12.815C4.29688 13.613 4.62053 14.336 5.14348 14.859L5.14267 14.8582Z" fill="#B1B9D8"/>
</svg>
