<svg width="20" height="13" viewBox="0 0 20 13" fill="none" xmlns="http://www.w3.org/2000/svg">
<path d="M13.4073 10.1814C13.2715 9.73599 13.2575 9.40218 13.2553 9.40218C13.2493 9.29518 13.1583 9.21358 13.0513 9.21858C12.9441 9.22418 12.8619 9.31498 12.8673 9.42178H12.8667C12.8717 9.44098 12.9319 10.9164 14.0003 11.8624C14.0377 11.8948 14.0831 11.911 14.1289 11.911C14.1827 11.911 14.2365 11.8894 14.2747 11.8454C14.3453 11.7644 14.3375 11.6418 14.2569 11.5712C13.7969 11.1694 13.5425 10.6264 13.4073 10.1814ZM12.8753 11.1112C12.7591 10.8396 12.7235 10.6256 12.7217 10.6274C12.7031 10.5214 12.6023 10.4506 12.4963 10.4694C12.3909 10.488 12.3205 10.5888 12.3393 10.6946C12.3475 10.7106 12.5009 11.6896 13.2521 12.22C13.2863 12.243 13.3245 12.2542 13.3627 12.2542C13.4241 12.2542 13.4847 12.2248 13.5227 12.1706C13.5833 12.0812 13.5607 11.9608 13.4729 11.9006C13.1841 11.7022 12.9911 11.3842 12.8753 11.1112ZM19.7534 1.99685L19.7214 1.97725C19.7204 1.97725 19.5524 1.89145 19.2972 1.74025C18.9098 1.51544 18.3462 1.19364 17.8056 1.18724C17.7328 1.18724 17.6592 1.19364 17.5858 1.20924C17.481 1.15164 17.2798 1.04363 17.0483 0.934431C16.7053 0.776628 16.3257 0.611426 16.0147 0.604825C15.9687 0.604825 15.9209 0.608826 15.8689 0.623226C15.7927 0.644026 15.7339 0.705227 15.7067 0.786229C15.6811 0.86783 15.6925 0.957432 15.7391 1.02743C15.9853 1.39124 16.4161 1.72705 16.9011 1.74085C16.8373 1.81245 16.7597 1.88725 16.6727 1.95345C16.4175 2.15645 16.0791 2.31946 15.7209 2.31906C15.5613 2.32246 15.3383 2.21165 15.0583 2.00005C14.2137 1.37284 12.9187 -0.00518542 10.5234 1.46761e-05C8.8732 0.00301473 7.72558 1.15204 6.75796 2.23285C6.27215 2.77646 5.82535 3.31067 5.38734 3.69688C4.94693 4.08489 4.53032 4.31529 4.09132 4.31529C3.1153 4.31569 2.18108 3.93608 1.49327 3.55148C1.15006 3.35907 0.868058 3.16787 0.673455 3.02347C0.478251 2.87827 0.375249 2.78746 0.374649 2.78746C0.274647 2.69966 0.130845 2.71906 0.0502435 2.82967C-0.0285579 2.94067 -0.0131577 3.10207 0.0858441 3.19207C0.0858441 3.19207 0.0866441 3.19287 0.0888442 3.19467C0.0902442 3.19507 0.101244 3.20507 0.120845 3.22187C0.40105 3.46368 2.29568 5.10511 4.09072 5.11931C5.59794 5.11751 6.82436 4.45209 7.26037 4.18329C7.42077 4.37689 7.71858 4.7169 8.09199 5.0609C8.6582 5.57571 9.38521 6.11832 10.1372 6.12692C10.8926 6.12732 11.4382 6.38253 12.5973 7.10154C13.0693 7.38495 13.5233 8.21136 13.8197 8.96857C13.9711 9.34658 14.0883 9.70499 14.1671 9.96879C14.2463 10.2322 14.2859 10.3958 14.2863 10.3958C14.3059 10.4732 14.3571 10.5378 14.4255 10.5686L15.0279 10.8332C15.0415 10.8418 15.0553 10.849 15.0699 10.8562C15.0707 10.8562 15.2059 10.9144 15.4171 11.0028L18.0272 12.1496C18.0546 12.1614 18.083 12.1674 18.1118 12.1674C18.175 12.1674 18.237 12.1382 18.2822 12.0836C18.3472 12.0034 18.3618 11.8888 18.3188 11.7932C18.315 11.785 18.2792 11.7036 18.2166 11.6096C18.1488 11.5258 18.0784 11.3828 17.8546 11.362C17.8378 11.3674 17.6056 11.31 17.3478 11.217C16.8035 11.027 16.0203 10.7034 15.5769 10.5176L15.3129 10.4008C15.1951 10.1582 14.8515 9.45398 14.4867 8.72637C14.2613 8.27576 14.0271 7.81555 13.8327 7.44875C13.7355 7.26534 13.6479 7.10394 13.5751 6.97754C13.5319 6.90514 13.4971 6.84534 13.4629 6.79534C13.4687 6.71793 13.4753 6.60773 13.4753 6.47453C13.4743 6.17772 13.4479 5.76752 13.3139 5.36571C13.5529 5.33391 13.8987 5.28591 14.2543 5.22551C14.5793 5.17131 14.9125 5.10791 15.1877 5.0377C15.2849 5.0133 15.3755 4.9877 15.4563 4.9599C15.4633 5.11191 15.4681 5.29731 15.4681 5.49171C15.4681 5.72672 15.4599 5.97512 15.4369 6.18152C15.4361 6.19552 15.4343 6.20933 15.4329 6.22153C15.3901 6.38693 15.3541 6.51753 15.3351 6.59053C15.3121 6.61353 15.2823 6.64373 15.2495 6.67253C15.2151 6.70373 15.1783 6.73334 15.1523 6.74954C15.1441 6.75473 15.1371 6.75934 15.1325 6.76114C15.0137 6.77294 14.9203 6.88434 14.9203 7.01894C14.9203 7.16234 15.0245 7.27894 15.1529 7.27894C15.2607 7.27414 15.3219 7.23494 15.3815 7.19954C15.5515 7.08814 15.6941 6.92174 15.7023 6.91514C15.7067 6.90934 15.7095 6.90154 15.7141 6.89554C15.7195 6.88794 15.7265 6.88314 15.7307 6.87614C15.7387 6.86134 15.7447 6.84574 15.7523 6.83054C15.7529 6.82974 15.7529 6.82934 15.7529 6.82834C15.8251 6.68373 15.8605 6.52093 15.8847 6.33913C15.9259 6.18372 15.9723 6.00152 16.0191 5.81132C16.1293 5.35391 16.2417 4.8867 16.2745 4.5755C16.4107 4.47089 16.6793 4.26309 16.9571 4.03089C17.1545 3.86508 17.3568 3.68768 17.5216 3.52288C17.6358 3.40208 17.7318 3.30687 17.8032 3.19347C17.982 3.18047 18.3244 3.15287 18.6698 3.10927C18.9198 3.07847 19.1688 3.03987 19.3676 2.99127C19.4678 2.96547 19.5546 2.93907 19.6336 2.89967C19.6738 2.87967 19.713 2.85747 19.7554 2.81546C19.7666 2.80546 19.7776 2.79266 19.7898 2.77626C19.8006 2.76986 19.8122 2.76186 19.8246 2.75266C19.8832 2.70786 19.9938 2.61266 20 2.41606C19.9952 2.21905 19.884 2.09725 19.7534 1.99685ZM13.5891 1.79165C13.5225 1.87605 13.4005 1.89105 13.3161 1.82425C12.6799 1.32484 11.7387 0.906031 10.6068 0.906031C9.83242 0.903831 8.9746 1.34484 8.29139 1.95205C8.25419 1.98545 8.20859 2.00165 8.16259 2.00165C8.10879 2.00165 8.05539 1.97945 8.01719 1.93545C7.94598 1.85505 7.95318 1.73265 8.03339 1.66224C8.7672 1.01483 9.68722 0.522024 10.6068 0.518224C11.8361 0.518224 12.8579 0.971232 13.5557 1.51884L13.5569 1.51904C13.6405 1.58544 13.6545 1.70765 13.5891 1.79165ZM18.2472 2.09725C18.12 2.09725 18.0164 1.99385 18.0164 1.86585C18.0164 1.73845 18.1202 1.63464 18.2472 1.63464C18.3748 1.63464 18.4784 1.73845 18.4784 1.86585C18.4784 1.99385 18.3752 2.09725 18.2472 2.09725Z" fill="#B1B9D8"/>
</svg>
