<svg width="64" height="64" viewBox="0 0 64 64" fill="none" xmlns="http://www.w3.org/2000/svg">
<path d="M55.9998 34C55.7346 34 55.4803 33.8946 55.2928 33.707L50.2928 28.707C50.153 28.5672 50.0578 28.389 50.0192 28.1951C49.9806 28.0011 50.0004 27.8001 50.0761 27.6174C50.1518 27.4347 50.2799 27.2785 50.4443 27.1686C50.6087 27.0587 50.802 27.0001 50.9998 27H52.9998V25C52.9958 21.2882 51.5195 17.7296 48.8949 15.1049C46.2702 12.4803 42.7116 11.004 38.9998 11C38.7346 11 38.4802 10.8947 38.2927 10.7071C38.1051 10.5196 37.9998 10.2652 37.9998 10C37.9998 9.73481 38.1051 9.48046 38.2927 9.29292C38.4802 9.10539 38.7346 9.00003 38.9998 9.00003C43.2417 9.00506 47.3084 10.6924 50.3079 13.6919C53.3074 16.6914 54.9948 20.7581 54.9998 25V28C54.9998 28.2652 54.8944 28.5196 54.7069 28.7071C54.5194 28.8947 54.265 29 53.9998 29H53.4138L55.9998 31.586L58.5858 29H57.9998C57.7346 29 57.4802 28.8947 57.2927 28.7071C57.1051 28.5196 56.9998 28.2652 56.9998 28V25C56.9942 20.2278 55.096 15.6527 51.7216 12.2782C48.3471 8.9038 43.772 7.00559 38.9998 7.00003H35.9998C35.7346 7.00003 35.4802 6.89467 35.2927 6.70714C35.1051 6.5196 34.9998 6.26525 34.9998 6.00003V5.41403L32.4138 8.00003L34.9998 10.586V10C34.9998 9.73481 35.1051 9.48046 35.2927 9.29292C35.4802 9.10539 35.7346 9.00003 35.9998 9.00003C36.265 9.00003 36.5194 9.10539 36.7069 9.29292C36.8944 9.48046 36.9998 9.73481 36.9998 10V13C36.9997 13.1978 36.9411 13.3911 36.8312 13.5555C36.7213 13.7199 36.5651 13.848 36.3824 13.9237C36.1997 13.9994 35.9987 14.0192 35.8048 13.9806C35.6108 13.942 35.4326 13.8468 35.2928 13.707L30.2928 8.70703C30.1053 8.5195 30 8.26519 30 8.00003C30 7.73487 30.1053 7.48056 30.2928 7.29303L35.2928 2.29303C35.4326 2.15322 35.6108 2.05802 35.8048 2.01945C35.9987 1.98088 36.1997 2.00068 36.3824 2.07635C36.5651 2.15202 36.7213 2.28016 36.8312 2.44457C36.9411 2.60898 36.9997 2.80228 36.9998 3.00003V5.00003H38.9998C44.3022 5.00612 49.3858 7.11521 53.1352 10.8646C56.8846 14.614 58.9937 19.6976 58.9998 25V27H60.9998C61.1975 27.0001 61.3908 27.0587 61.5552 27.1686C61.7197 27.2785 61.8478 27.4347 61.9235 27.6174C61.9991 27.8001 62.0189 28.0011 61.9804 28.1951C61.9418 28.389 61.8466 28.5672 61.7068 28.707L56.7068 33.707C56.5193 33.8946 56.265 34 55.9998 34Z" fill="#B1B9D8" />
<path d="M60 36H22C20.9391 36 19.9217 36.4214 19.1716 37.1716C18.4214 37.9217 18 38.9391 18 40V60C18 61.0609 18.4214 62.0783 19.1716 62.8284C19.9217 63.5786 20.9391 64 22 64H60C61.0609 64 62.0783 63.5786 62.8284 62.8284C63.5786 62.0783 64 61.0609 64 60V40C64 38.9391 63.5786 37.9217 62.8284 37.1716C62.0783 36.4214 61.0609 36 60 36ZM62 60C62 60.5304 61.7893 61.0391 61.4142 61.4142C61.0391 61.7893 60.5304 62 60 62H22C21.4696 62 20.9609 61.7893 20.5858 61.4142C20.2107 61.0391 20 60.5304 20 60V40C20 39.4696 20.2107 38.9609 20.5858 38.5858C20.9609 38.2107 21.4696 38 22 38H24V60C24 60.2652 24.1054 60.5196 24.2929 60.7071C24.4804 60.8946 24.7348 61 25 61C25.2652 61 25.5196 60.8946 25.7071 60.7071C25.8946 60.5196 26 60.2652 26 60V38H60C60.5304 38 61.0391 38.2107 61.4142 38.5858C61.7893 38.9609 62 39.4696 62 40V60Z" fill="#B1B9D8" />
<path d="M16 40C16.2652 40 16.5196 39.8946 16.7071 39.7071C16.8946 39.5196 17 39.2652 17 39C17 38.7348 16.8946 38.4804 16.7071 38.2929C16.5196 38.1054 16.2652 38 16 38H2V4C2 3.46957 2.21071 2.96086 2.58579 2.58579C2.96086 2.21071 3.46957 2 4 2H24C24.5304 2 25.0391 2.21071 25.4142 2.58579C25.7893 2.96086 26 3.46957 26 4V34C26 34.2652 26.1054 34.5196 26.2929 34.7071C26.4804 34.8946 26.7348 35 27 35C27.2652 35 27.5196 34.8946 27.7071 34.7071C27.8946 34.5196 28 34.2652 28 34V4C28 2.93913 27.5786 1.92172 26.8284 1.17157C26.0783 0.421427 25.0609 0 24 0H4C2.93913 0 1.92172 0.421427 1.17157 1.17157C0.421427 1.92172 0 2.93913 0 4V42C0 43.0609 0.421427 44.0783 1.17157 44.8284C1.92172 45.5786 2.93913 46 4 46H16C16.2652 46 16.5196 45.8946 16.7071 45.7071C16.8946 45.5196 17 45.2652 17 45C17 44.7348 16.8946 44.4804 16.7071 44.2929C16.5196 44.1054 16.2652 44 16 44H4C3.46957 44 2.96086 43.7893 2.58579 43.4142C2.21071 43.0391 2 42.5304 2 42V40H16Z" fill="#B1B9D8" />
<path d="M59 52C58.7348 52 58.4804 51.8946 58.2929 51.7071C58.1054 51.5196 58 51.2652 58 51V49C58 48.7348 58.1054 48.4804 58.2929 48.2929C58.4804 48.1054 58.7348 48 59 48C59.2652 48 59.5196 48.1054 59.7071 48.2929C59.8946 48.4804 60 48.7348 60 49V51C60 51.2652 59.8946 51.5196 59.7071 51.7071C59.5196 51.8946 59.2652 52 59 52Z" fill="#B1B9D8" />
<path d="M15 6H13C12.7348 6 12.4804 5.89464 12.2929 5.70711C12.1054 5.51957 12 5.26522 12 5C12 4.73478 12.1054 4.48043 12.2929 4.29289C12.4804 4.10536 12.7348 4 13 4H15C15.2652 4 15.5196 4.10536 15.7071 4.29289C15.8946 4.48043 16 4.73478 16 5C16 5.26522 15.8946 5.51957 15.7071 5.70711C15.5196 5.89464 15.2652 6 15 6Z" fill="#B1B9D8" />
</svg>
