<svg width="20" height="20" viewBox="0 0 20 20" fill="none" xmlns="http://www.w3.org/2000/svg">
<path d="M19.8574 18.2857L15.4138 13.8368C15.2698 13.6892 15.1096 13.5586 14.9361 13.4475L13.8252 12.68C16.1102 9.84922 16.1314 5.81111 13.8763 2.95639C11.6211 0.101662 7.69143 -0.807802 4.41372 0.766427C1.13601 2.34066 -0.614957 5.97844 0.197438 9.5261C1.00983 13.0738 4.16878 15.5845 7.80409 15.5719C9.56825 15.5724 11.2802 14.9723 12.6587 13.8701L13.4919 14.9824C13.5907 15.1256 13.7023 15.2596 13.8252 15.3828L18.2688 19.8317C18.3731 19.937 18.5151 19.9962 18.6632 19.9962C18.8113 19.9962 18.9532 19.937 19.0575 19.8317L19.8352 19.0532C20.046 18.8443 20.0558 18.5064 19.8574 18.2857ZM7.80409 13.3474C4.73641 13.3474 2.24957 10.8575 2.24957 7.78617C2.24957 4.7148 4.73641 2.22496 7.80409 2.22496C10.8718 2.22496 13.3586 4.7148 13.3586 7.78617C13.3586 9.26109 12.7734 10.6756 11.7317 11.7185C10.69 12.7615 9.27723 13.3474 7.80409 13.3474Z" fill="#B1B9D8"/>
</svg>
