<svg width="60" height="46" viewBox="0 0 60 46" fill="none" xmlns="http://www.w3.org/2000/svg">
<path d="M2 35.5797H12L24.762 45.5797C25.3518 45.9938 26.1253 46.0524 26.7737 45.7399C27.426 45.4235 27.8557 44.779 27.8987 44.0602V1.8802C27.8557 1.15754 27.426 0.513 26.7737 0.2005C26.1253 -0.11591 25.3518 -0.0534102 24.762 0.35675L12 10.3567H2C0.8945 10.3567 0 11.2552 0 12.3567V33.6577C0.042969 34.7319 0.92578 35.5797 2 35.5797Z" fill="#B1B9D8"/>
<path d="M48.4221 41.4787C47.9612 42.2678 48.094 43.2678 48.7463 43.9123C49.3948 44.553 50.3986 44.6701 51.1799 44.1975C56.8244 38.5725 59.9924 30.9275 59.9924 22.9595C59.9924 14.9915 56.8244 7.3465 51.1799 1.7215C50.4065 0.983216 49.1916 0.983216 48.4221 1.7215C47.6956 2.49103 47.6956 3.6903 48.4221 4.4598C53.344 9.3621 56.1096 16.0218 56.1096 22.9718C56.1096 29.9171 53.344 36.5768 48.4221 41.4798L48.4221 41.4787Z" fill="#B1B9D8"/>
<path d="M40.8201 36.6387C41.5896 37.3614 42.7889 37.3614 43.5584 36.6387C47.199 33.0215 49.242 28.0996 49.242 22.9707C49.242 17.8379 47.199 12.9157 43.5584 9.29871C42.7888 8.57605 41.5896 8.57605 40.8201 9.29871C40.1091 10.0643 40.1091 11.2518 40.8201 12.0175C43.7303 14.9159 45.3631 18.8534 45.3631 22.9585C45.3631 27.0636 43.7303 31.0015 40.8201 33.8995C40.0974 34.669 40.0974 35.8692 40.8201 36.6387Z" fill="#B1B9D8"/>
<path d="M33.199 29.0607C33.9724 29.7951 35.1873 29.7951 35.9607 29.0607C39.2888 25.7169 39.3045 20.3224 35.9997 16.9587C35.2263 16.2205 34.0114 16.2205 33.238 16.9587C32.5154 17.7283 32.5154 18.9275 33.238 19.697C34.1482 20.5838 34.6638 21.7986 34.6638 23.0681C34.6638 24.3376 34.1482 25.5525 33.238 26.4392C32.5779 27.1814 32.5583 28.299 33.199 29.0607Z" fill="#B1B9D8"/>
</svg>
