<svg width="96" height="96" viewBox="0 0 96 96" fill="none" xmlns="http://www.w3.org/2000/svg">
<path d="M92 40.0999C89.3 35.1999 85.7 31 81.7 27.2C81.4 26.9 81.2 26.6 81.3 26.1C81.7 24.9 82 23.6 82.4 22.4C83 20.6 83.8 18.8 84.4 17C85.8 12.8 84.9 8.99995 82.4 5.49995C81.8 4.59995 80.8 4.09995 79.7 4.19995C75.7 4.39995 72 5.79995 68.6 7.79995C68 8.09995 67.6 8.19995 67 7.89995C60.9 5.39995 54.8 2.79995 48.7 0.399951C48.3 0.299951 47.8 0.299951 47.5 0.399951C41.2 2.89995 35 5.49995 28.7 8.09995C28.4 8.19995 28 8.19995 27.8 7.99995C24.6 5.99995 21.2 4.79995 17.5 4.39995C15.9 4.19995 14.4 4.29995 13.4 5.79995C11.5 8.59995 10.5 11.7 11.1 15.1C11.5 17.3 12.4 19.3 13.1 21.4C13.6 23 14.2 24.6999 14.7 26.2999C14.8 26.4999 14.6 27 14.4 27.2C11.8 29.7 9.19997 32.3999 7.09997 35.2999C3.69997 39.8999 1.39997 44.9 0.899974 50.7C0.799974 51.5 0.899974 52.2999 0.899974 53.0999C1.59997 51.1999 2.19997 49.3999 2.89997 47.5999C3.69997 45.7999 4.79997 44.1999 6.19997 42.7999C4.59997 45.2999 3.99997 48 3.79997 50.9C3.49997 55.5 4.29997 59.8999 6.19997 64.0999C6.29997 64.2999 6.39997 64.5 6.49997 64.7C6.59997 64.5 6.59997 64.3999 6.59997 64.1999C5.99997 60.1999 6.09997 56.0999 6.69997 52.0999C8.09997 43.5999 11.6 35.9999 17.1 29.4C17.3 29.2 17.4 28.9 17.5 28.7C17.8 26.5 18.6 24.4999 19.9 22.7999C20.9 21.4999 22.1 20.3 23.3 19.2C24 18.5 24.3 17.9 24 17.2C23.7 16.7 23.3 16.2 22.8 15.9C20.6 14.8 18.4 15 16.3 16.1C15.5 16.5 15.1 17.3 15.1 18.2C15.1 19 15.2 19.8 15.3 20.6C15.4 21.1 15.6 21.5 15.7 22C15.6 22 15.6 22.1 15.5 22.1C15.1 21.1 14.6 20.2 14.4 19.2C14 17.6 14.5 16.3 15.9 15.6C19 14.2 22.1 13.2 25.5 14.5C24.3 12.6 22.9 11.1 20.6 10.6C18.5 10.2 16.7 11.1 15.1 12.4C14.4 13 13.8 13.8 13.1 14.6C13.2 14.4 13.3 14.2 13.4 14C15.1 10.5 19 8.79995 22.9 9.79995C25.5 10.5 27.5 12 28.6 14.4C29.2 15.7 28.9 16.6 27.8 17.5C26.6 18.4 26.5 18.7 27 20.1C27.3 20.7 27.2 21.1 26.6 21.5C24 23.2 21.8 25.2 20.3 28.1C18.4 31.8 17 35.5999 16 39.5999C14.6 45.0999 14.3 50.6999 15.5 56.2999C16.2 59.2999 17.2 62.1 20.1 63.8C20.5 64.1 20.9 64.4 21.4 64.9C21.4 64 21.4 63.3 21.4 62.5C23 63.1 24.1 64.4 25.5 65.4C25.5 64.5 25.5 63.8 25.5 63C26.1 63.4 26.7 63.7 27.2 64C27.7 64.3 28.2 64.7 28.8 65C28.8 64.7 28.8 64.6 28.8 64.4C28.7 63.1 28.1 62 27.1 61.2C20.4 55.6 17.5 48.6 18.9 39.9C19.2 37.8 19.8 35.7999 21.3 34.2999C21.8 33.7999 22 33.2 22.1 32.5C22.2 30 23 27.8 24.8 26C25.6 25.2 26.5 24.4 27.4 23.7C30.5 21.4 33.9 19.6 37.3 17.9C38.7 17.2 39.9 16.5 40.6 15C40.8 14.5 41.2 14.1 41.6 13.7C42.4 12.7 43.3 11.8 44.2 10.8C44.6 11.1 44.9 11.3 45.1 11.5C46.4 12.5 47.3 13.7 47.2 15.5C47.1 16.9 45.5 19.3999 44.2 20.2999C44.4 19.9999 44.5 19.8 44.6 19.6C45.1 18.6 45.6 17.7 46 16.7C46.3 15.9 46.1 15 45.5 14.2C44.9 14.8 44.4 15.3 43.9 15.9C41.8 18.5 40.2 21.3 39.1 24.4C38.8 25.3 38.3 25.8 37.4 26.1C36.6 26.4 35.7 26.7 34.9 27.1C34.6 27.2 34.3 27.5 34 27.7C34 27.8 34 27.9 34 27.9C34.4 28 34.7 28.2999 35.1 28.2999C36.1 28.3999 37.2 28.4 38.2 28.5C39.1 28.6 39.7 28.1999 40.2 27.2999C41.4 24.9999 43.2 23.4 45.6 22.4C45.9 22.3 46.1 22.2 46.4 22.1C45.2 24.2 43.9 26.1 42.6 28C42.1 28.7 41.5 29.0999 40.6 29.2999C39.3 29.5999 38 29.8999 36.7 30.2999C36.9 30.5999 37 30.8 37.1 31C37.8 32.7 37.7 34.3 36.8 35.9C36.6 36.3 36.3 36.3999 35.9 36.2999C35.4 36.0999 34.8 36.1 34.3 35.9C32.2 35.4 30.1 35.1 28.2 33.9C27.5 33.4 27.1 33.4999 26.4 34.0999C26.1 34.3999 25.8 34.7 25.6 35C24.9 36 24.1 36.9 23.4 38C23.1 37.4 22.9 36.8 22.6 36.2C19.8 38.4 20.7 51.9 23.9 54.9C24 54 24 53.1 24.1 52.2C24.2 52.2 24.2 52.2 24.3 52.2C24.9 53.5 26 54.4 27.3 55C28.9 55.8 29.8 57.0999 30.6 58.5999C30.7 58.7999 30.8 59.0999 31 59.2999C31.1 59.2999 31.1 59.2 31.2 59.2C30.7 56.1 30.3 53 27.8 50.7C27.4 50.3 27 49.8 26.5 49.5C24.2 47.7 23.8 45.2 24.2 42.5C24.3 41.8 24.6 40.9999 24.8 40.2999C24.9 40.2999 24.9 40.2999 25 40.2999C25 41.1999 25.1 42 25.1 42.9C25.3 45 26.1 46 28.1 46.7C28.3 46.7 28.4 46.7999 28.6 46.7999C29.3 46.9999 29.7 47.3999 30 48.0999C30.4 49.0999 30.8 50.1 31.1 51C31.4 51.8 31.6 52.5999 31.9 53.2999C32 53.2999 32 53.2999 32.1 53.2999C32.2 52.4999 32.3 51.6 32.4 50.9C33.6 51.2 34.7 51.4999 35.9 51.7999C35.5 52.5999 35.1 53.5 34.7 54.4C32.1 59.4 31 64.9 31 70.7C31 72 31.3 73.2 32.1 74.3C32.9 75.3 33.7 76.3 34.5 77.3C33.3 79.8 33.4 82.4 34.4 85C34.6 83.4 34.6 81.7 35.7 80.2C36 86.5 39.4 91.1 43 95.6C42.9 93.6 42.8 91.6 42.6 89.6H42.7C44.4 91.7 46.1 93.7 47.8 95.8C49.6 93.7 51.3 91.6 53.1 89.4C53 91.6 52.9 93.6 52.8 95.6C52.9 95.6 52.9 95.6 53 95.6C56.4 91 59.9 86.6 60.2 80.4C60.4 80.6 60.5 80.7 60.5 80.8C60.9 82.2 61.2 83.6 61.5 84.9C62.4 83.2 62.7 80.3 61.4 77.4C62.2 76.4 63 75.5 63.7 74.5C64.6 73.4 65 72.2 64.9 70.8C64.8 64.4 63.4 58.2 60.6 52.4C60.5 52.1 60.3 51.7999 60.2 51.5999C61.4 51.2999 62.6 51 63.7 50.7C63.8 51.4 63.9 52.2999 64 53.0999C64.2 52.8999 64.3 52.6999 64.4 52.5999C64.8 51.2999 65.3 50.0999 65.7 48.7999C66.1 47.4999 66.9 46.5999 68.3 46.2999C69.6 45.9999 70.4 45 70.7 43.7C70.9 42.7 70.9 41.7 71 40.7C71 40.5 71 40.3 71 40.2C71.3 40.5 71.5 40.9 71.5 41.2C71.6 42.3 71.7 43.4 71.8 44.5C71.9 46 71.3 47.3 70.3 48.4C69.5 49.2 68.7 50 67.9 50.7C66.9 51.6 66.2 52.6 65.9 53.9C65.7 54.6 65.4 55.3999 65.3 56.0999C65.1 57.0999 65 58 64.8 59C64.9 59 64.9 59 65 59C65.1 58.9 65.1 58.8 65.2 58.7C65.9 56.9 67 55.4999 68.8 54.5999C69.9 54.0999 70.8 53.1999 71.4 52.0999C71.4 51.9999 71.5 51.9999 71.7 51.7999C71.8 52.8999 71.8 53.8 71.9 54.7C72 54.6 72 54.5999 72.1 54.5999C72.3 54.2999 72.5 53.9999 72.7 53.5999C74.6 50.1999 75.2 46.5 75.1 42.7C75 40.7 74.7 38.7 74.1 36.9C74 36.5 73.7 36.2 73.5 35.7C73.2 36.5 72.9 37 72.6 37.7C72.1 37 71.6 36.4 71.1 35.7C70.6 35.1 70.1 34.5 69.6 33.9C68.9 33.1 68.5 33.0999 67.5 33.5999C66.8 33.9999 66.1 34.3 65.4 34.5C63.7 35 62 35.4 60.4 35.7C59.3 35.9 59.2 35.7999 58.7 34.7999C58.6 34.4999 58.5 34.2 58.4 34C58.2 32.6 58.1 31.1 59.3 29.9C57.9 29.6 56.5 29.2 55.2 28.9C54.5 28.8 53.9 28.3999 53.5 27.7999C52.2 25.8999 50.9 24 49.6 22.1C49.5 22 49.5 21.8999 49.5 21.7999L49.6 21.7C50.4 22.1 51.2 22.5 52 22.9C53.8 24 55 25.5999 56 27.2999C56.2 27.6999 56.5 28 57 28C58.3 28 59.7 27.9 61 27.9C61.3 27.9 61.7 27.6 62 27.4C62 27.3 62 27.2 62 27.1C61 26.7 60.1 26.1 59.1 25.9C57.8 25.6 57.1 24.8 56.7 23.6C55.6 20.4 53.9 17.6 51.7 15.1C51.4 14.7 50.9 14.3 50.4 13.8C50.2 14.5 50 15 50 15.5C49.9 16.7 50.6 17.7 51.1 18.7C51.3 19.2 51.6 19.6 51.9 20C51.8 20 51.8 20.1 51.7 20.1C50.9 19.1 50.1 18.1 49.4 17C48.9 16.2 48.7 15.3 48.8 14.3C49.1 12.5 50.3 11.5 51.7 10.6C51.8 10.7 51.9 10.7 52 10.8C53.2 12.2 54.5 13.6 55.5 15.1C56.2 16.1 57 16.7999 58.1 17.2999C61.8 19.0999 65.4 20.9999 68.7 23.4C71.8 25.8 73.9 28.6999 73.9 32.7999C73.9 33.0999 74.1 33.3 74.3 33.5C75.4 34.7 76.3 36.0999 76.6 37.7999C76.9 39.2999 77.1 40.7 77.2 42.2C77.5 47.2 76.2 51.8 73.3 55.9C71.9 57.9 70.1 59.6 68.3 61.2C67.4 61.9 66.9 63.4 67.2 64.5C68.2 63.9 69.3 63.2 70.4 62.5C70.4 63.4 70.4 64.1 70.4 65C71.7 63.8 72.9 62.7 74.5 62C74.5 62.8 74.5 63.5 74.5 64.3C75.3 63.7 75.9 63.0999 76.6 62.5999C77.9 61.6999 78.7 60.5 79.3 59C80.7 55.3 81.2 51.4999 81.1 47.5999C80.9 41.0999 79.1 35.1 76.5 29.2C75 25.8 72.8 23.2 69.7 21.2C68.6 20.5 68.6 20.5 69 19.2C69.3 18.3 69.2 17.8999 68.5 17.2999C68.3 17.0999 68.1 16.9999 67.9 16.7999C67.1 16.1999 66.9 15.4 67.2 14.4C67.4 13.9 67.5 13.4 67.8 13C70.2 8.99995 76.3 7.39995 80.3 10.8C81.3 11.6 82.1 12.6 82.6 13.9C81.5 12.3 80.1 11.2 78.3 10.5C75.2 9.29995 71.6 11 70.5 14.2C71.5 13.5 72.6 13.3 73.7 13.4C74.1 13.4 74.5 13.5 74.9 13.5C76.6 13.7 78.3 14.1 79.8 14.9C80.8 15.4 81.4 16.1 81.6 17.2C81.8 18.7 81.3 20 80.4 21.2C80.4 21 80.5 20.8 80.5 20.6C80.6 19.8 80.8 19.0999 80.9 18.2999C80.9 16.6999 80.2 15.7 78.7 15.3C77.6 15 76.4 14.8 75.3 14.9C74.4 15 73.5 15.4 72.8 15.8C71.6 16.6 71.6 17.9 72.7 18.9C73.5 19.6 74.3 20.3 75 21.1C76.9 23.1 78.2 25.4999 78.6 28.2999C78.6 28.5999 78.9 28.9999 79.1 29.2999C83.2 34.1999 86.3 39.7 88.1 45.9C89.7 51 90.3 56.2999 89.8 61.5999C89.7 62.5999 89.6 63.6 89.5 64.5C90.9 62.3 91.7 60 92.1 57.5C93 52.4 92.8 47.4 90 42.7C92.7 45.6 94.2 49.0999 95.1 53.0999C95.2 52.7999 95.2 52.7 95.2 52.7C95.2 52.4 95.2 52 95.2 51.7C95.1 47.7 94 43.7999 92 40.0999ZM33.7 36.9C35.7 37.2 36.4 37.7999 36.8 39.7999C36.2 40.2999 34.9 40 34.2 39.4C33.5 38.7 33.3 37.9 33.7 36.9ZM31 36.9C31.1 36.7 31.3 36.5 31.5 36.5C31.9 36.5 32.2 36.5999 32.6 36.5999C32 40.0999 34.8 41.5 37.3 40.7C37.5 41.1 37.7 41.5 37.9 42C36.1 42.1 34.4 42.1999 32.8 41.2999C31.3 40.5999 30.5 38.5 31 36.9ZM34.4 46.2999C33.2 46.3999 32.1 46.2 31.1 45.7C29.2 44.8 28.2 43.1999 28.1 41.0999C28.1 39.4999 28.1 37.8999 28.1 36.0999C28.3 36.3999 28.5 36.5 28.5 36.7C28.8 37.7 29.2 38.7 29.4 39.7C29.8 41.9 31.3 43.5 33.6 43.7C35 43.9 36.4 43.8 37.8 43.9C38.2 43.9 38.6 43.9999 39 44.0999C37.7 45.4999 36.1 46.0999 34.4 46.2999ZM39.1 49.2999C38.9 48.2999 38.7 47.4 38.5 46.4C38.5 46.3 38.5 46.1 38.5 46C38.6 46 38.6 45.9 38.7 45.9C39.2 46.7 39.9 47.4999 40.3 48.2999C40.8 49.2999 41.1 50.4999 41.4 51.5999C41.5 51.8999 41.3 52.3 41.1 52.5C39.8 53.8 38.4 55.1 37.1 56.4L37 56.2999C37.1 56.1999 37.1 56.1 37.2 55.9C37.7 55.1 38.1 54.2 38.7 53.4C39.3 52.2 39.4 50.7999 39.1 49.2999ZM35.2 75.8C35.8 74.9 36.6 74.6 37.4 74.4C38.9 74.1 40.5 73.7 42 73.3C42.6 73.1 43.1 72.8 43.6 72.6C41.9 72.6 40.1 72.8 38.4 72.6C36.7 72.5 35 72.1 33.3 71.8C32.8 71.7 32.5 71.4 32.6 70.8C36.6 70.7 40.5 70.9 44.4 70.4C44.4 70.3 44.4 70.3 44.4 70.2C43.6 70.1 42.8 69.9 42 69.8C39.1 69.5 36.3 68.6 33.7 67.3C33.1 67 32.9 66.7 33.1 65.9C36.3 66.7 39.4 67.4 42.6 68.2C42.6 68.1 42.7 68.1 42.7 68C42.5 67.9 42.4 67.7 42.2 67.6C39.7 65.9 37.1 64.1 34.6 62.4C34.2 62.1 34 61.8 34.2 61.2C35.8 62 37.4 62.7999 39 63.5999C39.1 61.6999 38.2 59.7 39.4 57.9C39.5 58.9 39.5 59.8999 39.6 60.7999C39.7 61.8999 40.2 63 40.9 63.8C41.3 64.4 41.8 64.8 42.6 64.9C43.5 65 44.1 65.7 44.6 66.4C45.2 67.3 45.7 68.2 46.3 69.1C46.6 69.6 47.2 69.9 47.6 70.3C45.7 71.9 43.8 73.6 41.8 75.3C41.1 75.9 40.3 76 39.5 75.9C38.2 76.1 36.8 75.9 35.2 75.8ZM57.6 53.5C58.3 54.4 58.7 55.5 59.3 56.4C59.2 56.5 59.2 56.4999 59.1 56.5999C57.7 55.2999 56.4 54 55 52.7C54.6 52.4 54.6 52 54.7 51.5C55.1 49.8 55.6 48.3 56.7 46.9C56.9 46.6 57.2 46.4 57.6 45.9C57.4 47.2 57.2 48.2999 57 49.2999C56.6 50.7999 56.7 52.2 57.6 53.5ZM54.8 60.2C54.5 61 54.3 61.7 53.9 62.3C53.7 62.6 53.1 62.8 52.6 63C52.2 63.1 51.8 63 51.4 63C50.7 63 49.9 63.1 49.6 63.9C49.3 64.7 49.3 65.5 49.8 66.3C49.8 66.4 49.9 66.4 50 66.5C49.9 66.7 49.8 66.9 49.7 67C49.4 67.2 49.1 67.4 48.7 67.7C48.5 67.4 48.3 67.1 48.2 66.7C48 66 47.9 65.3 47.8 64.7C47.7 65.5 47.5 66.3 47.3 67.2C47.2 67.8 46.9 67.9 46.4 67.5C46.1 67.3 45.9 67 45.8 66.7C45.7 66.5 45.9 66.2 46 65.9C46.4 64.1 46.3 63.2 44.2 63C44.1 63 44 63 43.9 63C41.9 63.2 41.1 62.3 41.2 60.2C43.2 60 45.2 60.4 47 61.4C47.6 61.8 48 61.8 48.6 61.4C50.6 60.4 52.5 60 54.8 60.2ZM55 87.6C54.9 85.9 54.8 84.3 54.6 82.4C52.4 85.5 50.3 88.4 48 91.6C45.7 88.5 43.6 85.5 41.4 82.4C41.3 84.2 41.2 85.9 41 87.6C40.9 87.6 40.9 87.6 40.8 87.6C39.7 85.6 38.9 83.4 39.1 81.1C39.2 79.9 40 79.1 41.1 78.7C43.6 77.8 46.3 77.3 49 77.5C50.9 77.6 52.8 78 54.7 78.7C56.2 79.3 57 80.4 56.9 82C56.8 84 56.1 85.8 55 87.6ZM61.8 61.2999C62.1 61.8999 61.7 62.2 61.3 62.5C59 64.1 56.6 65.6 54.3 67.2C53.9 67.5 53.6 67.7 53.2 68C53.2 68.1 53.2 68.1 53.3 68.2C56.5 67.4 59.7 66.7 62.9 65.9C63.1 66.6 63 66.9 62.4 67.2C59.5 68.8 56.4 69.5 53.1 69.9C52.6 70 52.1 70.1 51.6 70.2C51.6 70.3 51.6 70.3 51.6 70.4C55.5 70.9 59.4 70.8 63.4 70.8C63.6 71.4 63.4 71.8 62.8 71.9C59.4 72.7 56 73 52.5 72.5C52.8 72.7 53.2 73 53.5 73.1C55.2 73.6 56.9 74 58.6 74.4C59.7 74.7 59.9 74.8 60.6 75.7C58.8 76.1 57 76.5 55.1 76C54.6 75.9 54.2 75.5 53.8 75.2C52 73.6 50.2 72 48.3 70.4C49.8 69.7 50.4 68.3 51.2 67C51.8 65.9 52.6 65.1 53.9 65C54.3 65 54.6 64.6 54.9 64.3C56.1 63.1 56.5 61.6 56.6 60C56.6 59.3 56.6 58.7 56.7 58C57.2 58.8 57.4 59.8 57.3 60.7C57.2 61.7 57.1 62.5999 57 63.5999C58.6 62.7999 60.2 62.0999 61.8 61.2999ZM66.7 39.5C66.9 38 67.3 37.1 67.9 36.2C67.9 38.1 68 39.9 67.9 41.7C67.7 44.1 66.2 45.4 64 46C61.7 46.6 59.6 46.1 57.7 44.7C57.5 44.6 57.3 44.3999 57.1 44.2999C57.1 44.1999 57.2 44.0999 57.2 44.0999C57.4 43.9999 57.6 43.9 57.7 43.9C58.8 43.8 59.9 43.6999 60.9 43.7999C63.6 44.1999 66.3 42.3 66.7 39.5ZM62.4 37C62.7 38 62.5 38.8 61.8 39.4C61 40 60.2 40.2 59.2 39.9C59.5 38 60.5 37.1 62.4 37ZM58.8 40.7999C60.1 41.2999 61.3 41.0999 62.4 40.2999C63.6 39.3999 63.7 38.1999 63.4 36.7999C63.5 36.7999 63.6 36.7 63.7 36.7C65.1 36.4 65.2 36.6 65.2 38C65.1 40.4 63.8 41.7999 61.5 42.0999C60.5 42.1999 59.5 42.1999 58.3 42.2999C58.4 41.5999 58.6 41.1999 58.8 40.7999ZM55.9 31.7C55 34.4 56.5 36.2 58.3 37.9C57.2 39.8 56.1 41.7 55 43.7H54.9C55.4 42.1 55.9 40.4 56.4 38.7C56.5 38.4 56.3 37.9999 56.2 37.5999L56.1 37.5C55 35.6 53.6 34.2 51.2 33.9C49.9 33.7 48.9 32.9 48 31.9C47.6 32.3 47.2 32.8 46.8 33C45.6 33.5 44.3 34 43.1 34.4C42.3 34.6 41.7 35 41.2 35.7C40.8 36.3 40.4 36.9 40 37.4C39.7 37.8 39.6 38.2 39.8 38.7C40.3 40.1 40.7 41.6 41.1 43C41.1 43.1 41.2 43.3 41.1 43.5C40 41.6 38.9 39.8 37.8 37.9C39.5 36.2 41.1 34.5 40.1 31.7C43.3 31.7 46.3 31.7 48 28.2C49.8 31.7 52.8 31.8 55.9 31.7ZM61.1 14.7999C59.9 13.6999 58.7 12.4 57.4 11.3C54.7 8.89995 51.6 7.09995 48.4 5.59995C48.2 5.49995 47.7 5.49995 47.5 5.69995C42.7 7.99995 38.4 10.9 35 15C35 15 34.9 15.1 34.9 15C33.8 13.5 32.8 12 31.6 10.5C32.1 10.3 32.6 10.1 33.1 9.79995C37.7 7.79995 42.5 5.99995 47.5 5.29995C48.4 5.19995 49.3 5.39995 50.3 5.59995C55.2 6.59995 59.8 8.29995 64.3 10.4C63.2 12 62.1 13.3999 61.1 14.7999Z" fill="#B1B9D8"/>
<path d="M81.9 38.2C81.8 38.4 81.8 38.6 81.8 38.7C83.3 43.4 84.1 48.1999 84.3 53.0999C84.4 56.6999 84.2 60.1999 83.1 63.5999C82.2 66.4999 80.8 69.1 79.1 71.5C78 70.6 77 69.6 75.9 68.8C74.8 68 73.5 67.4 72.3 66.7C72.2 66.8 72.2 66.8 72.1 66.9C75.7 72.2 77 78 75.5 84.3C75.6 84.3 75.7 84.4 75.8 84.4C75.9 84.2 76.1 84 76.2 83.8C79.6 80 82.5 75.8 84.7 71.1C86.4 67.3 87.5 63.4 87.7 59.2C88 52.9 86.6 46.9 83.7 41.2C83.2 40.2 82.5 39.2 81.9 38.2Z" fill="#B1B9D8"/>
<path d="M23.8 66.9C21.1 67.9 18.8 69.4 16.9 71.6C16.8 71.5 16.8 71.5 16.7 71.5C13.5 67.2 11.8 62.3999 11.5 57.0999C11.2 50.8999 12.2 44.8 14 38.9C14.1 38.7 14.1 38.4999 14.2 38.2999C14 38.3999 13.9 38.4999 13.8 38.5999C12.7 40.7999 11.5 42.9999 10.6 45.2999C7.69997 52.7999 7.29997 60.3 9.79997 68C11.9 74.2 15.5 79.4 19.8 84.3C19.9 84.4 20 84.5 20.3 84.7C19 78 20.1 72.2 23.8 66.9Z" fill="#B1B9D8"/>
<path d="M31.5 86.1C28.4 82.3 26.2 77.9 25.4 73C25.3 72.4 25.2 71.8 25.1 71.2C25 70.6 25 70.1 24.9 69.4C24.8 69.6 24.7 69.7 24.7 69.8C23.5 73.5 23 77.3 23.9 81.1C26 89.6 32.1 93.6 40 95.7C39.8 95.5 39.5 95.2 39.3 95C36.7 92 34 89.2 31.5 86.1Z" fill="#B1B9D8"/>
<path d="M71.1 69.8C70.7 75 69 79.7 66.1 83.9C63.8 87.3 61.1 90.3 58.3 93.3C57.6 94.1 56.9 94.8 56.2 95.6C63 93.7 68.7 90.4 71.4 83.5C73.1 79.3 73 71.3 71.2 69.4C71.1 69.7 71.1 69.7 71.1 69.8Z" fill="#B1B9D8"/>
<path d="M35.5 23.4C36.1 22.1999 36.7 21.1 37.3 19.9C35.9 20 30.8 23.0999 28.5 25.2999C26.9 26.8999 25.6 28.7 24.9 30.9C25 30.8 25 30.8 25.1 30.7C27.6 27.3 30.9 25 34.9 23.7C35.2 23.7 35.4 23.5 35.5 23.4Z" fill="#B1B9D8"/>
<path d="M70.2 29.7C70.5 30.1 70.8 30.5 71.1 30.9L71.2 30.7999C68.9 25.0999 64 22.2999 58.7 19.7999C58.8 19.9999 58.8 20.1999 58.9 20.2999C59.3 21.1999 59.8 22 60.2 22.9C60.4 23.4 60.7 23.6 61.2 23.7C64.8 25 67.8 26.9 70.2 29.7Z" fill="#B1B9D8"/>
<path d="M27.6 30.4C29.4 29.9 29.7 30.1 30.8 31.6C31 31.9 31.2 32.1 31.4 32.3C31.8 32.7 32.2 32.8999 32.8 32.5999C33.8 32.0999 34.1 32.2999 34.8 33.0999C34.9 33.1999 35 33.3 35.1 33.5C35.5 32.7 35.7 32 35.5 31.2C35.4 30.6 35 29.9 34.4 29.9C33.5 29.9 32.9 29.4 32.2 29C31.9 28.8 31.4 28.6 31 28.7C29.7 29 28.6 29.6 27.6 30.4Z" fill="#B1B9D8"/>
<path d="M63.5 29.2C63.1 29.5 62.5 29.8 62 29.9C61.2 30.1 60.7 30.4 60.6 31.2C60.5 31.9 60.6 32.7 60.7 33.5C60.8 33.5 60.9 33.5 61 33.5C61.2 33.3 61.3 33.1 61.5 32.9C61.9 32.4 62.4 32.3 63 32.5C64 32.9 64.3 32.8 65 32C65.2 31.8 65.3 31.5 65.5 31.3C66.2 30.3 66.8 30.1 68 30.4C68.1 30.4 68.2 30.4 68.4 30.4C68.4 30.3 68.4 30.3 68.5 30.2C67.7 29.8 66.8 29.4 66 29C65 28.5 64.3 28.7 63.5 29.2Z" fill="#B1B9D8"/>
</svg>
