<svg width="20" height="20" viewBox="0 0 20 20" fill="none" xmlns="http://www.w3.org/2000/svg">
<path d="M7.29979 4.11781C8.10443 3.13587 8.04841 1.68445 7.13173 0.767769C6.1554 -0.20856 4.57252 -0.20856 3.5962 0.767769C3.01787 1.34609 2.78214 2.13718 2.88892 2.88892C2.13718 2.78214 1.34609 3.01787 0.767769 3.5962C-0.20856 4.57252 -0.20856 6.1554 0.767769 7.13173C1.68445 8.04841 3.13587 8.10443 4.11781 7.29979L12.6205 15.8025C11.8159 16.7844 11.8719 18.2359 12.7886 19.1525C13.7649 20.1289 15.3478 20.1289 16.3241 19.1525C16.9024 18.5742 17.1382 17.7831 17.0314 17.0314C17.7831 17.1382 18.5742 16.9024 19.1525 16.3241C20.1289 15.3478 20.1289 13.7649 19.1525 12.7886C18.2359 11.8719 16.7844 11.8159 15.8025 12.6205L7.29979 4.11781Z" fill="#B1B9D8"/>
</svg>
