<svg width="8" height="20" viewBox="0 0 8 20" fill="none" xmlns="http://www.w3.org/2000/svg">
<path d="M3.00423 1.80719L3.06673 1.93218L3.9911 1.56237C4.27679 1.44836 4.46393 1.17195 4.46393 0.86428C4.46393 0.747532 4.4368 0.632501 4.38461 0.527771L4.32005 0.399004C4.19781 0.15452 3.94783 0 3.67451 0C3.51827 0 3.3665 0.0508198 3.24151 0.144218L2.43457 0.749249C2.49432 0.818611 2.54788 0.894154 2.58943 0.977251L3.00423 1.80719Z" fill="#B1B9D8"/>
<path d="M4.44256 6.18079L4.45114 6.5664L4.47346 6.80367L4.4563 6.80711L4.46042 6.99528C4.46213 7.04232 4.46385 7.08936 4.46385 7.1364C4.46385 7.35788 4.45355 7.59104 4.43604 7.83861L5.31474 7.65902C5.61863 7.5979 5.83736 7.3311 5.83736 7.02103C5.83736 6.92008 5.81401 6.8205 5.76868 6.73019L5.67391 6.5403C5.56369 6.31985 5.33843 6.18079 5.09189 6.18079H4.44256Z" fill="#B1B9D8"/>
<path d="M3.62301 15.1364L3.71709 15.5121L3.83762 15.5423C4.14219 15.6185 4.42205 15.7542 4.6655 15.9372L4.97179 15.6309C5.08614 15.5166 5.15069 15.361 5.15069 15.1986V15.0331C5.15069 14.6955 4.87702 14.4219 4.53914 14.4219C4.489 14.4219 4.43921 14.4281 4.3908 14.4401L3.54163 14.6523C3.54952 14.7 3.55536 14.7484 3.56395 14.7962L3.62301 15.1364Z" fill="#B1B9D8"/>
<path d="M4.80735 12.4852V12.3616C4.80735 11.9821 4.50002 11.6748 4.12059 11.6748H3.60038L3.58698 11.7459C3.54441 11.9725 3.51041 12.2039 3.48672 12.4333L3.45307 12.754L3.4438 13.0682L3.43865 13.1894C3.43624 13.2341 3.43384 13.2784 3.43384 13.323L4.2552 13.1589C4.57625 13.0947 4.80735 12.8128 4.80735 12.4852Z" fill="#B1B9D8"/>
<path d="M5.49411 9.76432C5.49411 9.66577 5.4711 9.56894 5.42715 9.48069L5.32585 9.27844C5.21872 9.06349 4.99896 8.92786 4.75894 8.92786H4.30018C4.26584 9.11328 4.2267 9.30351 4.1776 9.50679L4.20163 9.50954L4.06909 9.95112L4.01243 10.1795L4.0011 10.1781L3.88367 10.5699L4.96462 10.3896C5.26988 10.3388 5.49411 10.074 5.49411 9.76432Z" fill="#B1B9D8"/>
<path d="M3.74072 3.33756L3.79875 3.46358L3.78055 3.47285L3.80596 3.54016C3.91447 3.82894 4.01268 4.13626 4.09886 4.4532L4.12839 4.44324L4.17922 4.70695L4.70321 4.57612C4.96623 4.50985 5.15063 4.27361 5.15063 4.00234V3.68094C5.15063 3.35473 4.88623 3.09033 4.55968 3.09033C4.49615 3.09033 4.43297 3.10063 4.37288 3.12055L3.74072 3.33756Z" fill="#B1B9D8"/>
<path d="M1.32544 4.70013L1.3536 4.77739C1.41781 4.95354 1.47206 5.1321 1.5191 5.31237L3.44682 4.66991C3.36613 4.36946 3.27239 4.07243 3.16319 3.78125L1.32544 4.70013Z" fill="#B1B9D8"/>
<path d="M2.52489 2.38367L0.797363 3.2476L1.08923 4.05076L2.89677 3.14699C2.85522 3.05703 2.81608 2.96638 2.77213 2.87779L2.52489 2.38367Z" fill="#B1B9D8"/>
<path d="M1.65161 5.9923C1.68286 6.21206 1.70209 6.43354 1.70861 6.65639L3.73145 6.25189C3.7026 5.94697 3.66002 5.64343 3.60199 5.34229L1.65161 5.9923Z" fill="#B1B9D8"/>
<path d="M3.66417 8.58447H1.45557C1.41265 8.72663 1.36835 8.8681 1.31478 9.00751L1.24817 9.18092L3.49111 9.43021C3.56047 9.1507 3.62056 8.86879 3.66417 8.58447Z" fill="#B1B9D8"/>
<path d="M3.06463 10.9452C3.08935 10.8528 3.10927 10.7594 3.13708 10.6677L3.30705 10.1008L0.993032 9.84363L0.671631 10.6791L3.06463 10.9452Z" fill="#B1B9D8"/>
<path d="M0.560741 2.5976L2.21754 1.76938L1.97511 1.28487C1.86454 1.06408 1.57714 0.96828 1.35703 1.07885L0.631477 1.4418C0.453608 1.53073 0.343384 1.70929 0.343384 1.90776C0.343384 1.96888 0.354028 2.02863 0.374631 2.08563L0.560741 2.5976Z" fill="#B1B9D8"/>
<path d="M1.62207 7.89765H3.74448C3.76474 7.64458 3.7771 7.39083 3.7771 7.13638C3.7771 7.07217 3.77264 7.0083 3.77161 6.94409L1.69315 7.35992C1.6777 7.54054 1.65366 7.71978 1.62207 7.89765Z" fill="#B1B9D8"/>
<path d="M5.11946 18.9829L4.87566 18.9479C4.44506 18.8864 4.12057 18.5125 4.12057 18.0774C4.12057 17.8426 4.21191 17.6218 4.3781 17.4556L4.74758 17.0858C4.5388 16.6493 4.14838 16.3276 3.6704 16.2081L3.52241 16.171L1.59229 17.8254C1.63486 17.844 1.67985 17.8556 1.72689 17.8556C2.25809 17.8556 2.7656 18.1094 3.08426 18.5345L3.26281 18.7724C3.48944 19.0746 3.83454 19.2717 4.20985 19.3136L5.799 19.4901C5.91849 19.5035 6.03421 19.5292 6.14581 19.5653C5.89343 19.259 5.53391 19.042 5.11946 18.9829Z" fill="#B1B9D8"/>
<path d="M3.02819 15.589L0.595703 16.3187C0.752626 16.6576 0.93805 16.9848 1.15472 17.2966L3.04913 15.6728L3.02819 15.589Z" fill="#B1B9D8"/>
<path d="M6.99285 18.0084L6.60105 17.7471L6.49289 17.5304C6.38129 17.3075 6.15707 17.1688 5.90743 17.1688C5.7354 17.1688 5.56646 17.2389 5.44456 17.3604L5.3934 17.4116L4.86357 17.9414C4.82785 17.9771 4.80725 18.0269 4.80725 18.0774C4.80725 18.1725 4.87833 18.2546 4.97242 18.268L5.21621 18.303C6.1478 18.4359 6.89086 19.124 7.12917 20C7.39769 19.7627 7.55427 19.4217 7.55427 19.0574C7.55427 18.635 7.34447 18.2429 6.99285 18.0084Z" fill="#B1B9D8"/>
<path d="M2.81603 14.451L0.097168 14.723C0.153138 15.0482 0.233832 15.3672 0.338905 15.6786L2.88745 14.9139C2.86032 14.7601 2.83491 14.6059 2.81603 14.451Z" fill="#B1B9D8"/>
<path d="M2.74702 13.3254C2.74702 13.2327 2.75423 13.1407 2.75697 13.0483H0.0260967C0.00927126 13.2382 0 13.4291 0 13.6211C0 13.7619 0.00721122 13.9013 0.016139 14.0407L2.76041 13.7663C2.75354 13.6194 2.74702 13.4724 2.74702 13.3254Z" fill="#B1B9D8"/>
<path d="M2.91189 11.6189L0.418282 11.3418C0.292262 11.6749 0.19646 12.0155 0.127441 12.3616H2.80338C2.82948 12.1127 2.86587 11.8651 2.91189 11.6189Z" fill="#B1B9D8"/>
</svg>
