<svg width="20" height="21" viewBox="0 0 20 21" fill="none" xmlns="http://www.w3.org/2000/svg">
<path fill-rule="evenodd" clip-rule="evenodd" d="M3.56492 10.6821C2.67544 11.2336 -0.803901 11.4726 0.170595 14.5548C-0.224089 17.8123 0.430576 19.645 2.19102 19.9766C2.00888 19.3096 1.90159 18.6427 1.82728 17.9757C2.78251 19.6615 4.01024 20.2279 5.34281 20.3638C4.66705 19.4524 4.0518 18.5215 3.64565 17.5239C5.29484 19.6832 7.31687 20.399 9.66656 19.8475C8.36001 19.0692 7.05347 18.2702 5.74692 17.3625C10.5686 19.357 12.6872 18.9638 13.9497 17.8143C11.7471 17.4284 9.57929 16.931 7.48445 16.2007C15.3777 17.0804 16.3101 15.7884 17.2228 14.4903C14.143 14.7866 10.8606 14.8287 7.40361 14.6517C15.3566 14.3429 19.4527 12.8842 19.324 10.1658C14.3325 12.0487 10.7168 12.519 7.24202 12.8444C17.544 10.7643 20.5134 8.10441 19.9302 5.16365C15.2867 8.18267 11.1311 9.97621 7.24202 11.1017C17.2559 6.27059 20.1261 2.67972 17.7481 0C13.478 5.1796 8.59065 8.17574 3.56492 10.6821Z" fill="#B1B9D8"/>
</svg>
