<svg width="88" height="96" viewBox="0 0 88 96" fill="none" xmlns="http://www.w3.org/2000/svg">
<path d="M21.7 30C26.1 25.7 31 22.1 36.8 19.9C37.1 19.8 37.1 19.5 37.1 19.3C37 17.7 37.3 16.2001 37.7 14.7001C38.6 11.6001 40.2 8.80005 41.9 6.00005C42.1 5.70005 42.2 5.40005 42.4 5.20005C39.3 4.70005 36.3 3.50005 33.1 4.30005C35.5 5.60005 36.9 7.50005 37.5 10.1C35.4 8.40005 33.1 7.40005 30.5 7.30005C27.9 7.20005 25.6 7.80005 23.3 9.50005C26.4 9.90005 28.8 11.2 30.4 13.8C30.1 13.7 30 13.7 29.9 13.6C27.4 12.7 24.8 12.5 22.2 12.9C18.3 13.5 14.9 15.2 11.7 17.6C11.2 17.9 10.8 18.3001 10.4 18.7001C10 19.1001 9.6 19.5 9.2 19.8C12.7 17.9 16.2 16.8 19.9 19.3C15.9 18.8 12.6 20.1 9.6 22.7C11.7 22.2 13.7 22.1 15.7 23.3C12.2 23.9 10.8 24.5 8.5 26C6.5 27.3 3.6 30 3.1 31.3C7.1 29.4 11 29.3 12.6 31.1C12.1 31.2 11.6 31.2 11.2 31.3C7.7 32 5.1 34.0001 2.9 36.7001C0.8 39.3001 0.0999999 42.3 0.0999999 45.5C-9.68575e-08 50.2 0 54.8 0 59.5C0 60 0 60.4001 0 60.9001H0.0999999C0.0999999 60.8001 0.2 60.8001 0.2 60.7001C2.3 56.2001 4.8 51.9001 7.5 47.7001C11.6 41.5001 16.2 35.4 21.7 30Z" fill="#B1B9D8"/>
<path d="M87.5 76.3C87.2 74.2 86.3 72.3 85.3 70.4C84.2 68.5 83 66.6 82 64.6C79.5 59.4 76.6 54.3 73.3 49.6C70.7 45.8 68.3 41.9001 66.3 37.7001C66 37.1001 65.7 36.5 65.5 35.8L65.6 35.7001C66.4 36.7001 67.2 37.7001 67.9 38.7001C69.8 41.3001 71.1 44.3001 72.5 47.2001C72.9 48.0001 73.4 48.9001 73.9 49.7001C74 49.7001 74 49.7 74.1 49.6C73.4 47.2 72.8 44.9 72.1 42.5C70.3 37 67.2 32.4 62.4 29C62.1 28.8 61.7 28.6 61.4 28.4C65.5 41.5 72.7 53 80.4 64.2C79.6 64.3 79 64.3 78.3 64.4C76.6 64.7 75.2 65.3 74.7 67.2C74.6 67.6 74.5 68.1 74.5 68.5C74.4 70.4 74.1 72.3 73.2 74.1C72.4 75.7 71.2 76.4 69.6 76.4C69.2 76.4 68.9 76.3 68.5 76.4C67.3 76.4 66.1 76.4 64.9 76.6C62.7 77 61.4 79.5 63.3 81.5C64.5 82.7 65.1 84.1 65.4 85.8C65.7 87.4 66.5 88.9 67.7 90.1C69.4 91.7 72.2 92.2 73.9 90.5C74 90.4 74.3 90.3 74.5 90.3C75 90.3 75.4 90.4 75.9 90.4C78 90.7 79.7 90 80.9 88.3C82.2 86.5 83.6 84.8 85.3 83.3C87.2 81.5 87.9 79 87.5 76.3Z" fill="#B1B9D8"/>
<path d="M54.7 22.9C59.9 26.7 65.7 29.4 72 31C73.8 31.5 75.7 31.8001 77.6 31.7001C75.4 30.3001 73.4 28.6 71.6 26.6C78.2 18.7 80 8.60005 80.2 4.30005C79.4 5.00005 78.8 5.80005 78.1 6.50005C77.2 7.30005 76.6 8.30005 76.2 9.40005C75.7 10.7 75.4 11.9 74.8 13.2C74 15 73.3 16.8 72.3 18.5C71.3 20.2 69.6 21.1 68 22.1C67.6 21.5 67.2 20.9 66.9 20.3C66.8 20.2 66.8 19.9 66.9 19.8C68.3 16.8 69.8 13.9 72.2 11.5C73 10.7 73.7 9.70005 74.5 8.90005C74.5 8.90005 74.5 8.90005 74.4 8.80005C71 11 67.6 13.3 64.3 15.5C63.5 14.7 62.8 13.9 62.1 13.1C60.5 11.6 58.7 10.4 56.6 9.60005C54.7 9.00005 53.3 8.00005 52.3 6.40005C52.3 6.30005 52.2 6.30005 52.1 6.20005C52.2 6.80005 52.2 7.30005 52.3 7.80005C53 11.8 53 15.7 51.8 19.6C51.7 19.8 51.8 20.1 52 20.3C52.8 21.2 53.7 22.2 54.7 22.9Z" fill="#B1B9D8"/>
<path d="M25.4 79.1C23.8 76.2 22 73.5 19.9 70.9C17.9 68.4 16 65.9001 14.2 63.3001C12 59.9001 10.7 56.2 10.3 52.1C10.1 50.4 10.1 48.8 10 47.1C10 47.1 10 47.1001 9.9 47.2001C8.3 50.6001 7.2 54.1001 6.9 57.9001C6.5 63.4001 7.8 68.5 10.6 73.2C15 80.6 21.3 85.8 28.9 89.6C30.1 90.2 31.3 90.7 32.6 91.2C32.9 89.9 33.2 88.8 33.5 87.7C32.7 87.2 32 86.8 31.4 86.3C28.9 84.5 27 82 25.4 79.1Z" fill="#B1B9D8"/>
<path d="M36 78.7C35.8 78.6 35.7 78.4 35.5 78.2C33.2 75.5 31.7 72.3 30.4 69C28.7 64.6 27.1 60.1001 24.9 55.9001C23.6 53.4001 22.3 51 21.1 48.5C19.4 44.9 18.8 41.2 19.5 37.3C19.7 36.4 19.9 35.5 20.1 34.5C19.9 34.7 19.7 34.9 19.6 35C18.2 36.6 17.1 38.4 16.2 40.3C14.2 44.6 13.6 49 14.6 53.6C15.5 57.3 17.3 60.6 19.5 63.6C21.5 66.3 23.7 68.8 25.7 71.5C27.3 73.7 28.7 76 30.3 78.2C31.6 80.1 33.2 81.8 35.2 83.2C35.5 82.4 35.8 81.5 36.2 80.8C36.9 80 36.9 79.3 36 78.7Z" fill="#B1B9D8"/>
<path d="M25.8 93.1C20.4 90.2 15.8 86.4 11.6 82C6 76.2 3.4 69.3001 3.9 61.2001C4 60.1001 4.1 59.0001 4.2 57.9001C4 58.1001 3.9 58.3 3.9 58.6C3.3 60.6 2.6 62.6 2.1 64.6C1 69.5 1.1 74.4 2.7 79.2C6.2 89.4 15.9 96 26.8 95.7C28.1 95.7 29.3 95.5 30.6 95.4C30.6 95.3 30.6 95.3 30.6 95.2C30.5 95.2 30.5 95.1 30.4 95.1C28.9 94.4 27.3 93.9 25.8 93.1Z" fill="#B1B9D8"/>
<path d="M39.1 22.6C39.3 24.2 39.7 25.8 40.5 27.3C40.6 27.2 40.6 27.2001 40.6 27.2001C40.6 27.1001 40.7 27 40.7 26.9C41.3 25.4 42.3 24.1001 43.6 23.2001C45.9 21.7001 47.2 19.5 47.9 16.9C48.6 14.2 48.5 11.5 48.3 8.70005C48.2 7.30005 48.3 6.00005 48.3 4.60005C48.8 6.10005 49.2 7.50005 49.6 9.00005C50.5 12.5 50.5 15.9001 49 19.2001C48.3 20.6001 47.4 21.9 46.5 23.3C47.3 22.6 48.1 22.0001 48.8 21.2001C50.8 19.0001 51.5 16.3 51.6 13.4C51.7 10.7 51.3 8.00005 50.8 5.30005C50.5 3.70005 50.1 2.10005 49.7 0.300049C48.4 1.50005 47.3 2.40005 46.2 3.50005C40.8 8.80005 38.3 15.1 39.1 22.6Z" fill="#B1B9D8"/>
<path d="M48.3 55.5C48.8 54.2 49.7 53.3 51.1 53C54.2 52.2 57.3 51.4001 60.3 50.4001C61.8 49.9001 63 50.1001 64.3 50.9001C67.4 53.0001 70.1 55.5001 72.5 58.4001C73.7 59.9001 74.8 61.6001 76 63.3001C76 62.6001 76.1 62 76 61.3C75.7 59.6 74.7 58.2 73.7 56.8C71.7 54.2 69.2 52.0001 66.7 49.9001C65.7 49.1001 64.6 48.3 63.4 47.6C61.8 46.6 60.1 46.5 58.4 47.6C58 47.9 57.6 48.1 57.1 48.3C55.8 48.9 54.4 49.2 52.9 49.1C51.1 48.9 49.8 47.9 48.7 46.6C48.3 46.1 47.9 45.6 47.5 45C47.8 47.3 47.4 49.4 46.8 51.5C45.7 55.5 44.6 59.5 43.6 63.5C43.1 65.7 42.8 68 42.5 70.2C43.5 70.5 44.3 70.8 45.3 71.1C45.7 70.1 46.1 69.2 46.3 68.2C46.9 66 47 63.6 47.1 61.3C47.3 59.3 47.6 57.3 48.3 55.5Z" fill="#B1B9D8"/>
<path d="M33 63.1C32.5 61.7 32.1 60.2 31.7 58.7C30.8 54.7 29.9 50.7001 28.9 46.7001C28.1 43.5001 26.9 40.4 26.5 37.1C26.2 34.3 26.3 31.5 27.6 28.9C28.1 27.9 28.7 27 29.3 26.1C28.3 26.9 27.2 27.8 26.4 28.8C22.5 33.8 21.5 39.3001 23.9 45.2001C26.2 50.8001 28.3 56.4 30.5 62.1C31.9 65.7 33.7 69.1001 36.2 72.1001C37 73.1001 37.8 73.9001 38.7 74.9001C39.5 73.3001 40.1 71.8001 40.8 70.3001C40.5 70.2001 40.3 70.1001 40.1 70.0001C36.7 68.7001 34.3 66.5 33 63.1Z" fill="#B1B9D8"/>
<path d="M54.8 63.9001C58.4 60.0001 62.9 59.1 67.9 60.3C69.8 60.8 71.4 61.9 72.9 63.1C72.8 62.8 72.7 62.5001 72.6 62.3001C70.6 58.4001 67.5 55.7001 63.7 53.7001C63.1 53.4001 62.3 53.4 61.7 53.6C59 54.5 56.3 55.5001 53.6 56.4001C52.3 56.8001 51.3 57.7 50.9 59C50.5 60.5 50.1 62.1 49.9 63.6C49.5 66.5 49.2 69.4001 46.6 71.5001C47.3 71.8001 47.9 72.0001 48.5 72.3001C48.8 72.4001 49 72.4001 49.3 72.2001C50.9 70.9001 51.9 69.2001 52.8 67.3001C53.4 66.1001 54 64.9001 54.8 63.9001Z" fill="#B1B9D8"/>
<path d="M45.1 36.7001C44.7 34.5001 44.5 32.3001 45.1 30.2001C45.4 29.0001 45.9 27.9 46.3 26.9C45.3 27.7 44.5 28.8 44 30C43.3 31.5 43.1 33.1001 42.9 34.7001C42.7 36.6001 42.6 38.6 42.2 40.5C41.5 44.4 40.6 48.2 39.7 52C38.9 55.7 38.2 59.3 38.4 63.1C38.5 64.2 38.7 65.2 39.3 66.2C39.7 66.9 40.3 67.6 41.1 68.1C41.1 67.9 41.1 67.7 41.1 67.6C41.2 64.4 41.6 61.2 42.4 58.1C43 55.7 43.8 53.3001 44.5 50.9001C46 46.2001 45.9 41.5001 45.1 36.7001Z" fill="#B1B9D8"/>
<path d="M40.6 35.8C41 34 41.2 32.1 41.5 30.3C41.4 30.3 41.3 30.2001 41.2 30.2001C40.6 31.1001 39.9 31.9 39.3 32.8C34.1 40.7 32.4 49.5 33.5 58.8C33.7 60.9 34.4 62.8 35.6 64.6C36 65.1 36.4 65.6 36.9 66.1C36.7 64.4 36.5 62.8 36.4 61.3C36.1 56 36.8 50.8001 38.1 45.7001C38.8 42.3001 39.8 39.1 40.6 35.8Z" fill="#B1B9D8"/>
<path d="M58.6 71.6C59.3 70.8 60 69.9 60.8 69.2C62.9 67.4 65.3 66.4 68.2 67.1C69.6 67.4 70.8 68.1 72 68.9C72 68.1 71.7 67.3 71.2 66.5C69.4 63.9 65.8 62.5 62.5 63.3C59.7 63.9 57.7 65.5 56.3 67.9C55.2 69.7 53.9 71.3 52 72.4C51.5 72.7 51 72.9 50.5 73.2C51.6 73.8 52.6 74.4 53.7 75C53.9 75.1 54.1 75 54.3 75C56 74.2 57.4 73 58.6 71.6Z" fill="#B1B9D8"/>
<path d="M47.5 38.9001C47.9 40.2001 49.3 42.7 50.3 43.8C52.1 45.9 54.1 46.3 56.5 44.8C57.7 44.1 58.9 43.8 60.3 44C61 44.1 61.8 44.2001 62.5 44.4001C61.8 43.7001 61 43 60.2 42.3C59.5 41.6 59 40.8001 58.3 40.2001C57 38.8001 55.5 38.3 53.6 38.8C51.6 39.2 49.6 39.5001 47.5 38.9001Z" fill="#B1B9D8"/>
<path d="M36.3 21.6C36.1 21.7 35.9 21.9 35.7 22C30.7 25.8 28.5 30.7 29.7 37C30.2 39.5 30.7 42.1 31.1 44.6C31.2 45 31.2 45.5001 31.3 45.9001C31.4 46.3001 31.5 46.7001 31.5 47.2001C31.7 47.0001 31.7 46.8001 31.8 46.7001C32.6 43.7001 32.6 40.6 32.3 37.5C32.1 35.3 32.2 33.1001 32.5 30.9001C33.3 27.5001 34.5 24.5001 36.3 21.6Z" fill="#B1B9D8"/>
<path d="M67.8 49.4001L67.9 49.3C67.8 49.2 67.8 49.1001 67.7 48.9001C66.6 46.8001 65.5 44.7 64.5 42.6C62.1 37.8 59.5 33.0001 58.6 27.6C58.6 27.5 58.5 27.3 58.4 27.3C57.7 26.9 57 26.5 56.3 26.1C56.2 26.3 56.2 26.5 56.2 26.6C56.2 26.7 56.2 26.8 56.2 26.8C55.8 29.2 56.3 31.5 57.4 33.6C59.4 37.6 61.8 41.2 64.4 44.8C65.5 46.5 66.7 47.9001 67.8 49.4001Z" fill="#B1B9D8"/>
<path d="M69.9 73.4C70.6 73.5 70.8 73 71.1 72.6C71.4 72.2 71.3 71.8 70.9 71.5C69.4 70.2 67.7 69.8 65.8 70.2C64.2 70.5 62.8 71.3 61.5 72.3C59.7 73.7 58.1 75.2 56 76.1C57.4 77.1 58.7 78.1 60 79.1C60.5 78.2 60.9 77.3 61.4 76.5C62.4 74.8 64 73.6 66 73.4C67.2 73.2 68.5 73.3 69.9 73.4Z" fill="#B1B9D8"/>
<path d="M52.9 23.6C52.8 23.8 52.7 23.9 52.7 24C51.7 26.4 51.1 28.9 51.3 31.5C51.6 34.4 53.6 36.7 56.5 37.3C56.9 37.4 57.2 37.4 57.6 37.5C57.6 37.4 57.6 37.4 57.7 37.3C57.5 37.2 57.4 37.0001 57.2 36.9001C56.1 35.7001 55.2 34.4 54.6 32.8C53.8 30.7 54 28.6 54.4 26.5C54.6 25.3 54 24.2 52.9 23.6Z" fill="#B1B9D8"/>
<path d="M46.5 32.3C46.3 35.3 49.3 37.7001 52.1 36.7001C49.9 35.1001 48.8 32.9001 49.1 30.2001C49.2 28.9001 49.7 27.6 50.1 26.3C50.5 25.2 51 24.2001 51.4 23.2001C51.3 23.2001 51.3 23.1 51.2 23.1C48.8 25.7 46.8 28.6 46.5 32.3Z" fill="#B1B9D8"/>
<path d="M34.9 36.1C35.7 34.8 36.5 33.5 37.2 32.3C37.3 32.1 37.2 31.9001 37.1 31.7001C36.8 30.9001 36.3 30.0001 36.2 29.2001C36 28.2001 36.2 27.1 36.2 26.1C34.5 29.2 34.3 32.6 34.9 36.1Z" fill="#B1B9D8"/>
</svg>
